<?xml version="1.0" encoding="UTF-8" standalone="no"?>
<svg
   xmlns:dc="http://purl.org/dc/elements/1.1/"
   xmlns:cc="http://creativecommons.org/ns#"
   xmlns:rdf="http://www.w3.org/1999/02/22-rdf-syntax-ns#"
   xmlns:svg="http://www.w3.org/2000/svg"
   xmlns="http://www.w3.org/2000/svg"
   version="1.1"
   id="svg2"
   viewBox="0 0 744.14546 754.5727"
   height="212.95718mm"
   width="210.01439mm">
  <defs
     id="defs4" />
  <metadata
     id="metadata7">
    <rdf:RDF>
      <cc:Work
         rdf:about="">
        <dc:format>image/svg+xml</dc:format>
        <dc:type
           rdf:resource="http://purl.org/dc/dcmitype/StillImage" />
        <dc:title></dc:title>
      </cc:Work>
    </rdf:RDF>
  </metadata>
  <g
     transform="translate(-122.19331,-515.24332)"
     id="layer1">
    <g
       transform="translate(-628.57143,28.571428)"
       id="g4153">
      <g
         id="g4175">
        <g
           transform="translate(564.64187,330.04854)"
           id="g4453">
          <g
             transform="translate(-4.8536573,190.91043)"
             id="g4562" />
          <g
             transform="translate(398.76832,-1022.1949)"
             id="g4593">
            <g
               id="g4623">
              <g
                 transform="matrix(1.674016,0,0,1.5848911,143.32646,-1130.8231)"
                 id="g4956">
                <path
                   style="fill:#fcfcf2;fill-opacity:1;fill-rule:evenodd;stroke:none;stroke-width:1px;stroke-linecap:butt;stroke-linejoin:miter;stroke-opacity:1"
                   d="m 96.24222,1473.5542 -47.58645,38.7742 22.91199,49.3489 139.23443,-10.5748 0,-45.824 z"
                   id="path4954" />
                <g
                   id="g4926"
                   transform="translate(274.94394,371.8793)">
                  <path
                     style="fill:#f2f2f3"
                     d="m -487.58373,1560.1578 c 0.2287,-0.6875 3.40672,-11.15 7.06226,-23.25 12.82758,-42.4597 19.88604,-59.1717 26.3638,-62.4201 6.23668,-3.1276 72.75078,-23.7578 73.66147,-22.8471 0.21253,0.2125 -0.5029,2.7269 -1.58985,5.5875 -1.08695,2.8606 -1.94277,5.9838 -1.90184,6.9404 0.0409,0.9566 1.1042,-1.1857 2.3628,-4.7607 3.36049,-9.5453 7.94027,-19.2349 11.61771,-24.5799 l 3.2371,-4.7049 -0.69267,-11.6076 c -1.04673,-17.5411 -1.40384,-18.8013 -6.06828,-21.4136 -2.18289,-1.2225 -5.65089,-4.4482 -7.70667,-7.1682 -5.15661,-6.8227 -14.01027,-24.2143 -17.83084,-35.0258 -2.75669,-7.801 -3.73284,-9.4043 -7.32695,-12.035 -5.25862,-3.849 -13.88466,-16.6931 -16.5889,-24.7008 -2.67203,-7.9123 -2.72137,-16.1963 -0.12188,-20.4596 l 1.94838,-3.1955 -2.48589,-6.1178 c -2.91504,-7.1739 -6.0449,-19.9827 -6.97458,-28.5431 -0.64444,-5.9339 -0.55857,-6.2239 4.40606,-14.8823 6.2153,-10.8396 7.8857,-17.7014 6.17261,-25.3563 l -1.20428,-5.3813 3.92871,-4.6641 c 15.0542,-17.8724 54.11743,-37.0157 80.89762,-39.6446 7.41201,-0.7276 20.35552,0.1795 20.35552,1.4266 0,0.3923 -3.4875,1.4696 -7.75,2.3941 -4.2625,0.9244 -9.92318,2.6885 -12.57929,3.9203 l -4.82928,2.2394 20.32928,0.01 c 16.19749,0 21.65037,0.3616 26.82929,1.7551 7.92283,2.1318 21.2518,8.5739 25.98288,12.558 l 3.48288,2.9329 -4.97521,1.4052 c -3.14109,0.8872 -5.09565,2.0306 -5.3019,3.1016 -0.17968,0.933 2.59883,6.0939 6.17446,11.4687 10.44476,15.7003 13.58688,25.2366 13.61953,41.3352 0.0166,8.1903 -0.11125,8.6862 -2.93772,11.3941 -3.53903,3.3906 -5.91922,9.8289 -6.72316,18.1858 -0.53488,5.56 -0.3894,6.2507 1.5333,7.2797 5.6733,3.0362 6.79102,14.3213 2.64246,26.6797 -2.8736,8.5603 -9.11603,18.9777 -13.87683,23.1577 -2.55779,2.2458 -3.52714,4.1649 -4.4478,8.8059 -2.37934,11.994 -13.61451,31.7152 -23.5813,41.3924 l -4.59159,4.4584 0.0309,11.0418 c 0.017,6.073 0.4486,14.2562 0.95915,18.1849 0.83287,6.4089 1.46255,7.8478 6.12657,14 5.97777,7.8851 12.4167,20.6879 17.27913,34.3569 2.68919,7.5597 3.81087,9.5653 5.49184,9.8195 1.16184,0.1758 2.11243,-0.1117 2.11243,-0.6388 0,-0.5272 -0.7323,-0.896 -1.62733,-0.8196 -1.17313,0.1001 -2.54243,-2.3133 -4.90593,-8.6468 -1.80323,-4.8321 -4.90504,-12.2105 -6.89291,-16.3964 -1.98788,-4.1859 -3.38595,-7.8391 -3.10684,-8.1182 0.76049,-0.7605 42.73122,5.5185 52.74678,7.8912 4.79257,1.1353 9.83068,2.9428 11.19581,4.0166 1.36513,1.0738 4.05212,5.0908 5.97109,8.9266 1.91898,3.8358 4.36065,8.2098 5.42594,9.7201 5.55239,7.8713 12.31378,25.6347 22.59974,59.3735 3.62649,11.8953 6.59363,21.9078 6.59363,22.25 0,0.3423 -23.33338,0.6223 -51.85196,0.6223 l -51.85196,0 -3.02491,-6.75 c -4.60287,-10.2712 -5.74505,-15.7355 -5.69593,-27.25 0.086,-20.1557 7.18201,-32.4149 20.92476,-36.1499 2.63036,-0.7149 2.52068,-0.7608 -0.89017,-0.3729 -8.23196,0.9364 -15.87457,9.0385 -19.35903,20.5228 -1.12387,3.7041 -1.66876,9.0917 -1.66876,16.5 0,11.7882 1.53113,18.843 6.00616,27.6741 1.32649,2.6176 2.4118,4.9994 2.4118,5.2927 0,0.2932 -1.74459,0.5332 -3.87686,0.5332 -3.72197,0 -3.96752,-0.2097 -6.14644,-5.25 -2.93649,-6.7927 -4.94988,-14.3626 -4.96483,-18.6667 -0.017,-4.8947 -0.63936,-3.4895 -1.29175,2.9167 -0.30806,3.025 -0.21589,4.6075 0.20482,3.5167 0.62301,-1.6154 0.89921,-1.2443 1.48866,2 0.39805,2.1908 1.81783,6.4002 3.15506,9.3541 1.33724,2.954 2.43134,5.5415 2.43134,5.75 0,0.2086 -11.217,0.3792 -24.92668,0.3792 -22.8988,0 -24.96388,-0.1424 -25.38399,-1.75 -0.43555,-1.6667 -0.46285,-1.6667 -0.57333,0 -0.10926,1.6484 -4.06346,1.75 -68.08461,1.75 -53.93,0 -67.88274,-0.2582 -67.5528,-1.25 z m 177.18369,-5 c -0.27741,-0.6875 -0.50439,-0.125 -0.50439,1.25 0,1.375 0.22698,1.9375 0.50439,1.25 0.27741,-0.6875 0.27741,-1.8125 0,-2.5 z m -41.97917,0.062 c -0.31922,-0.7977 -0.55618,-0.5608 -0.60416,0.6042 -0.0434,1.0541 0.19292,1.6448 0.52522,1.3125 0.33229,-0.3323 0.36781,-1.1948 0.0789,-1.9167 z m 43.00988,-6.5435 c -0.25354,-0.9729 -0.47766,-0.419 -0.49804,1.231 -0.0204,1.65 0.18706,2.4461 0.46099,1.769 0.27392,-0.677 0.29059,-2.027 0.0371,-3 z m -45.00988,-4.4565 c -0.31922,-0.7977 -0.55618,-0.5608 -0.60416,0.6042 -0.0434,1.0541 0.19292,1.6448 0.52522,1.3125 0.33229,-0.3323 0.36781,-1.1948 0.0789,-1.9167 z m -1.02083,-6.0625 c -0.27741,-0.6875 -0.50439,-0.125 -0.50439,1.25 0,1.375 0.22698,1.9375 0.50439,1.25 0.27741,-0.6875 0.27741,-1.8125 0,-2.5 z m -1,-5 c -0.27741,-0.6875 -0.50439,-0.125 -0.50439,1.25 0,1.375 0.22698,1.9375 0.50439,1.25 0.27741,-0.6875 0.27741,-1.8125 0,-2.5 z m -0.97917,-4.9375 c -0.31922,-0.7977 -0.55618,-0.5608 -0.60416,0.6042 -0.0434,1.0541 0.19292,1.6448 0.52522,1.3125 0.33229,-0.3323 0.36781,-1.1948 0.0789,-1.9167 z m 120.86279,-9.6924 c -1.44351,-3.7776 -4.20118,-9.4866 -6.12815,-12.6867 -4.15983,-6.9081 -12.10513,-16.4334 -13.70748,-16.4334 -0.6243,0 0.94045,2.1375 3.47722,4.75 2.53677,2.6125 6.17409,7.225 8.08293,10.25 3.73351,5.9166 9.67946,19.165 9.80853,21.8547 0.0502,1.0467 0.26316,1.1884 0.58524,0.3896 0.27846,-0.6907 -0.67477,-4.3465 -2.11829,-8.1242 z m -121.88362,3.6299 c -0.27741,-0.6875 -0.50439,-0.125 -0.50439,1.25 0,1.375 0.22698,1.9375 0.50439,1.25 0.27741,-0.6875 0.27741,-1.8125 0,-2.5 z m -16.77086,0.6551 c 9.52178,-5.6247 9.87941,-19.6038 0.6562,-25.6498 -4.08833,-2.68 -4.60848,-5.1712 -3.39203,-16.2457 0.89743,-8.1702 6.16035,-27.0762 7.70465,-27.6775 0.46918,-0.1826 1.14517,-2.1321 1.50219,-4.3321 0.59674,-3.6772 0.44414,-3.5157 -1.89073,2 -4.28792,10.1295 -7.34963,20.9704 -8.47089,29.9934 -1.13722,9.1517 -0.55501,15.5066 1.42064,15.5066 2.21452,0 7.55116,6.1845 8.55568,9.9151 1.7255,6.408 -0.93652,12.1842 -7.47713,16.2243 -3.65896,2.2602 -2.39384,2.5017 1.39142,0.2657 z m 15.79169,-5.5926 c -0.31922,-0.7977 -0.55618,-0.5608 -0.60416,0.6042 -0.0434,1.0541 0.19292,1.6448 0.52522,1.3125 0.33229,-0.3323 0.36781,-1.1948 0.0789,-1.9167 z m -35.99286,-4.6785 c -0.86648,-3.2463 -0.70403,-4.5286 1.01347,-8 2.44347,-4.9386 2.05241,-5.4224 -0.71468,-0.884 -2.19994,3.6082 -2.47264,6.3478 -1.01379,10.1849 1.46455,3.8521 1.88582,3.0856 0.715,-1.3009 z m 34.97203,-1.384 c -0.27741,-0.6875 -0.50439,-0.125 -0.50439,1.25 0,1.375 0.22698,1.9375 0.50439,1.25 0.27741,-0.6875 0.27741,-1.8125 0,-2.5 z m -0.97917,-4.9375 c -0.31922,-0.7977 -0.55618,-0.5608 -0.60416,0.6042 -0.0434,1.0541 0.19292,1.6448 0.52522,1.3125 0.33229,-0.3323 0.36781,-1.1948 0.0789,-1.9167 z m -1,-6 c -0.31922,-0.7977 -0.55618,-0.5608 -0.60416,0.6042 -0.0434,1.0541 0.19293,1.6448 0.52522,1.3125 0.33229,-0.3323 0.36781,-1.1948 0.0789,-1.9167 z m 71.70616,-12.2075 c 2.5359,-1.5923 4.61073,-3.2009 4.61073,-3.5749 0,-3.293 -11.79575,-31.5677 -12.76513,-30.5983 -0.25825,0.2582 0.97457,3.5292 2.73961,7.2689 1.76504,3.7396 4.553,10.3993 6.19548,14.7993 l 2.9863,8 -2.82813,1.9867 c -4.61096,3.2391 -13.32813,12.5704 -13.32813,14.2671 0,0.8645 1.75017,-0.864 3.88927,-3.841 2.1391,-2.977 5.9641,-6.7155 8.5,-8.3078 z m -72.70616,6.2075 c -0.31922,-0.7977 -0.55618,-0.5608 -0.60416,0.6042 -0.0434,1.0541 0.19292,1.6448 0.52522,1.3125 0.33229,-0.3323 0.36781,-1.1948 0.0789,-1.9167 z m 62.00988,-2.5435 c -0.25354,-0.9729 -0.47766,-0.419 -0.49804,1.231 -0.0204,1.65 0.18706,2.4461 0.46099,1.769 0.27392,-0.677 0.29059,-2.027 0.0371,-3 z m -63.03071,-4.519 c -0.27741,-0.6875 -0.50439,-0.125 -0.50439,1.25 0,1.375 0.22698,1.9375 0.50439,1.25 0.27741,-0.6875 0.27741,-1.8125 0,-2.5 z m 64.04498,-3.9883 c -0.23919,-1.2439 -0.44398,-0.4617 -0.45508,1.7383 -0.0111,2.2 0.18461,3.2178 0.4349,2.2617 0.25029,-0.9561 0.25937,-2.7561 0.0202,-4 z m -65.01427,-1.4927 c -0.25354,-0.9729 -0.47766,-0.419 -0.49804,1.231 -0.0204,1.65 0.18706,2.4461 0.46099,1.769 0.27392,-0.677 0.29059,-2.027 0.037,-3 z m -1.03071,-6.519 c -0.27741,-0.6875 -0.50439,-0.125 -0.50439,1.25 0,1.375 0.22698,1.9375 0.50439,1.25 0.27741,-0.6875 0.27741,-1.8125 0,-2.5 z m 67.03071,-0.481 c -0.25354,-0.9729 -0.47766,-0.419 -0.49804,1.231 -0.0204,1.65 0.18706,2.4461 0.46099,1.769 0.27392,-0.677 0.29059,-2.027 0.0371,-3 z m -68.03071,-6.519 c -0.27741,-0.6875 -0.50439,-0.125 -0.50439,1.25 0,1.375 0.22698,1.9375 0.50439,1.25 0.27741,-0.6875 0.27741,-1.8125 0,-2.5 z m 69.02705,-5.5 c -0.25153,-0.9625 -0.45733,-0.175 -0.45733,1.75 0,1.925 0.2058,2.7125 0.45733,1.75 0.25152,-0.9625 0.25152,-2.5375 0,-3.5 z m -70,-4 c -0.25153,-0.9625 -0.45733,-0.175 -0.45733,1.75 0,1.925 0.2058,2.7125 0.45733,1.75 0.25152,-0.9625 0.25152,-2.5375 0,-3.5 z m 158.31067,-184.63 c 0,-0.2635 3.85565,-6.2483 8.56812,-13.2995 4.71247,-7.0513 10.80872,-17.2912 13.54724,-22.7554 4.15968,-8.2999 4.9302,-10.6862 4.68188,-14.5 l -0.29724,-4.5651 -7.86694,-0.713 c -28.38337,-2.5726 -52.48518,-21.9254 -59.14397,-47.4902 -2.08072,-7.9884 -2.02224,-31.1081 0.097,-38.3653 5.28394,-18.0941 21.73987,-34.6677 42.88925,-43.1957 l 8.02466,-3.2358 49.18626,-0.2939 c 54.61566,-0.3263 54.91982,-0.2983 68.75351,6.3297 14.65819,7.0231 27.50026,19.2706 33.51613,31.9642 4.37972,9.2413 5.337,15.3943 4.83361,31.0683 -0.39328,12.2454 -0.77316,14.7184 -3.13851,20.4317 -5.40357,13.0517 -18.10404,26.7005 -31.47352,33.8235 -3.12261,1.6637 -9.27748,4.2533 -13.67748,5.7547 -7.14148,2.4368 -9.93167,2.7937 -26,3.3258 -17.51778,0.58 -18.13395,0.6734 -23,3.4855 -10.86931,6.2813 -36.42512,25.3991 -60.25,45.0717 -5.0875,4.2008 -9.25,7.4223 -9.25,7.1588 z m 25.85497,-110.045 c 3.48619,-1.8028 5.14503,-5.421 5.14503,-11.2221 0,-3.8445 -0.52903,-5.0819 -3.4,-7.9529 -3.62637,-3.6264 -7.82159,-4.4068 -13.03444,-2.4249 -7.10503,2.7013 -8.71125,14.825 -2.67826,20.2155 3.5961,3.2131 9.33194,3.7816 13.96767,1.3844 z m 43.37925,-1.493 c 3.01891,-2.6974 3.26578,-3.3839 3.26578,-9.082 0,-5.6981 -0.24687,-6.3846 -3.26578,-9.082 -2.57569,-2.3014 -4.20999,-2.918 -7.73422,-2.918 -3.52423,0 -5.15853,0.6166 -7.73422,2.918 -3.01891,2.6974 -3.26578,3.3839 -3.26578,9.082 0,5.6981 0.24687,6.3846 3.26578,9.082 2.57569,2.3014 4.20999,2.918 7.73422,2.918 3.52423,0 5.15853,-0.6166 7.73422,-2.918 z m 41.81175,0.168 c 2.20115,-1.9669 3.23909,-3.9549 3.64491,-6.9811 1.11563,-8.3194 -3.64838,-14.2689 -11.42574,-14.2689 -3.74467,0 -5.01375,0.5486 -7.86514,3.4 -2.94841,2.9484 -3.39529,4.0442 -3.36456,8.25 0.0611,8.357 3.7576,12.2481 11.69878,12.3146 3.23757,0.027 4.95862,-0.6119 7.31175,-2.7146 z"
                     id="path4952" />
                  <path
                     style="fill:#d6d7d8"
                     d="m -454.26009,1555.6578 c 10.94609,-16.2352 22.77731,-38.8998 27.16698,-52.0425 2.49152,-7.4597 3.60683,-9.3524 7.78302,-13.2075 4.65413,-4.2964 22.55811,-17.1633 30.49777,-21.9176 3.48933,-2.0894 3.75266,-2.1182 3.78823,-0.414 0.021,1.0074 1.31213,-1.9934 2.86911,-6.6684 3.76065,-11.2918 6.01543,-16.2595 11.42374,-25.1688 l 4.52328,-7.4513 -0.88739,-10.44 c -1.64862,-19.3957 -1.58195,-19.1675 -6.2941,-21.5481 -2.66124,-1.3445 -5.69898,-4.2425 -8.38571,-8 -5.23738,-7.3247 -14.40661,-25.5825 -17.52298,-34.8918 -1.97606,-5.903 -3.28285,-7.8928 -8.3384,-12.6968 -14.01299,-13.3158 -21.86505,-36.8084 -14.69813,-43.9753 1.94527,-1.9453 1.95276,-2.1146 0.25044,-5.6665 -3.73588,-7.7951 -8.97809,-28.6297 -8.97809,-35.6825 0,-1.4887 2.01255,-5.9359 4.47233,-9.8824 6.12213,-9.8226 8.3692,-18.5529 6.75548,-26.2463 l -1.2081,-5.7597 3.8377,-4.5452 c 5.67487,-6.7212 19.4818,-16.7879 31.79157,-23.1794 22.15332,-11.5025 37.64998,-16.0103 55.59511,-16.1719 7.22456,-0.065 12.16013,0.3102 12.82518,0.9753 0.77479,0.7748 -0.25859,1.282 -3.64733,1.7901 -5.21897,0.7827 -18.24639,4.9651 -19.56149,6.2802 -0.45938,0.4593 6.24659,0.6587 14.90216,0.4429 18.0365,-0.4495 30.08383,1.1631 40.83165,5.4658 6.924,2.7719 18.40574,9.8798 18.40574,11.3943 0,0.4824 -1.80534,1.418 -4.01188,2.0791 -6.64959,1.9923 -6.64518,2.6798 0.0823,12.8227 11.14133,16.7975 14.8784,27.7666 14.91223,43.7704 0.015,7.0931 -0.24531,8.3554 -1.90632,9.2444 -3.09064,1.654 -6.93956,10.8477 -7.86805,18.794 -0.81738,6.9952 -0.76206,7.3091 1.55563,8.8278 2.99857,1.9647 5.2361,7.1682 5.2361,12.1768 0,10.315 -7.20749,27.1338 -15.03599,35.0868 -3.96614,4.0292 -4.95419,5.8109 -5.95739,10.7428 -2.48042,12.1943 -13.55724,31.6394 -23.7128,41.6272 l -4.79382,4.7147 0.6648,17.4246 0.66481,17.4246 5.12092,6.355 c 5.8834,7.3012 13.48449,22.1088 18.41116,35.8665 3.0266,8.4518 3.69087,9.5349 6.02014,9.8164 2.45793,0.2971 2.62343,0.052 2.70414,-4 0.16576,-8.3226 2.52691,-22.4595 3.39326,-20.3164 8.93923,22.1132 13.16413,30.2913 18.92901,36.6405 6.90666,7.6067 14.60575,22.6321 17.58845,34.3254 1.9054,7.4699 6.08913,15.8016 13.16336,26.2143 1.56197,2.2991 2.83995,4.4366 2.83995,4.75 -1e-5,0.3134 -14.62501,0.5698 -32.50001,0.5698 l -32.5,0 0.0418,-3.25 c 0.023,-1.7875 1.72413,-17.7625 3.78034,-35.5 l 3.73856,-32.25 -2.53035,0.022 c -7.99176,0.069 -16.83752,8.3986 -20.11043,18.9362 -5.12816,16.5109 -3.17015,33.6405 5.86294,51.2918 0.2111,0.4125 -1.39827,0.75 -3.57637,0.75 -3.78921,0 -4.05141,-0.212 -6.07289,-4.911 -2.64668,-6.1524 -5.1336,-15.5824 -5.1336,-19.4658 0,-5.1 -0.81611,-2.4426 -2.42492,7.896 -0.85422,5.4895 -1.80346,11.4433 -2.10942,13.2308 l -0.55629,3.25 -19.27259,0 -19.27259,0 -2.78531,-14.75 c -9.52056,-50.4174 -14.56347,-82.8418 -14.61473,-93.9683 l -0.0359,-7.7817 -3.05836,7 c -4.18906,9.588 -7.80257,24.2437 -8.5404,34.6383 l -0.61491,8.6628 3.02357,1.5635 c 5.35518,2.7693 8.2618,7.1896 8.2618,12.5642 0,7.1482 -4.01811,12.3217 -11.25,14.485 -1.33897,0.4005 -1.75,1.6098 -1.75,5.1485 0,2.5438 -1.32591,8.9704 -2.94647,14.2814 -1.62057,5.311 -3.43791,11.5688 -4.03855,13.9063 l -1.09207,4.25 -33.99871,0 -33.99872,0 3.87675,-5.75 z m 213.10686,-26.1591 c -0.67624,-2.2571 -1.41362,-3.9197 -1.63862,-3.6947 -0.225,0.225 0.1442,2.2558 0.82044,4.5129 0.67624,2.2571 1.41362,3.9197 1.63862,3.6947 0.225,-0.225 -0.1442,-2.2558 -0.82044,-4.5129 z m -2.78702,-7.7659 c -1.17884,-2.0272 -1.46351,-1.3784 -0.49853,1.1363 0.34294,0.8937 0.83419,1.4143 1.09166,1.1568 0.25747,-0.2574 -0.009,-1.2893 -0.59313,-2.2931 z m -148.92964,-4.075 c -3.86041,-5.4616 -3.6318,-11.6152 0.62418,-16.8013 0.92587,-1.1282 0.16849,-0.5151 -1.68304,1.3624 -3.10238,3.1459 -3.32935,3.7996 -2.89366,8.3339 0.31704,3.2995 1.23636,5.7331 2.79075,7.3876 3.05988,3.2571 3.57512,3.1318 1.16177,-0.2826 z m 145.75552,-3.4031 c -4.00464,-7.943 -10.82566,-16.5774 -15.58769,-19.7317 -2.58673,-1.7133 -5.1885,-3.0953 -5.7817,-3.071 -0.59321,0.024 0.54242,0.9009 2.52362,1.9481 5.1086,2.7 13.00435,11.7054 16.97097,19.3559 1.86141,3.5902 3.53784,6.3742 3.72538,6.1866 0.18755,-0.1875 -0.64522,-2.2971 -1.85058,-4.6879 z m -49.28279,-20.92 c 2.62631,-2.8077 6.22321,-5.8524 7.99312,-6.7659 l 3.21801,-1.661 -3.78641,-10 c -2.08253,-5.5 -5.18305,-12.7 -6.89005,-16 l -3.10363,-6 -0.0569,5.5 c -0.0572,5.534 -3.51814,38.6567 -4.5725,43.7608 -0.51721,2.5039 -0.43743,2.4614 0.9287,-0.4949 0.82199,-1.7787 3.64332,-5.5313 6.26962,-8.339 z m -90.94891,-7.6769 c -0.22912,-1.5125 -0.41659,-0.275 -0.41659,2.75 0,3.025 0.18747,4.2625 0.41659,2.75 0.22913,-1.5125 0.22913,-3.9875 0,-5.5 z m 116.53375,5.0877 c -0.6875,-0.2774 -1.8125,-0.2774 -2.5,0 -0.6875,0.2774 -0.125,0.5044 1.25,0.5044 1.375,0 1.9375,-0.227 1.25,-0.5044 z m 4.25,-6.8738 c -1.65,-0.7555 -3.9,-1.3594 -5,-1.3419 -1.1,0.017 -0.2,0.6249 2,1.35 5.23891,1.7266 6.77939,1.7224 3,-0.01 z m -119.81067,-7.2139 c -0.25153,-0.9625 -0.45733,-0.175 -0.45733,1.75 0,1.925 0.2058,2.7125 0.45733,1.75 0.25152,-0.9625 0.25152,-2.5375 0,-3.5 z m 0.99378,-5.4375 c -0.31922,-0.7977 -0.55618,-0.5608 -0.60416,0.6042 -0.0434,1.0541 0.19292,1.6448 0.52522,1.3125 0.33229,-0.3323 0.36781,-1.1948 0.0789,-1.9167 z m 182.69686,-208.5625 c 14.42605,-21.1133 21.9577,-37.0187 19.7862,-41.7846 -0.83456,-1.8317 -2.10673,-2.2514 -8.44873,-2.7875 -25.91986,-2.1911 -49.46756,-19.6985 -57.77505,-42.9551 -1.78868,-5.0074 -2.31423,-9.0969 -2.69075,-20.9375 -0.41374,-13.0114 -0.22021,-15.5301 1.67203,-21.7599 5.29459,-17.4313 17.79095,-31.146 36.57633,-40.1424 14.30371,-6.8501 14.61868,-6.883 65.9802,-6.883 43.17936,0 46.51708,0.1267 53.36853,2.0253 24.15404,6.6934 44.13951,25.4749 49.6596,46.668 1.97205,7.5712 1.9735,27.0366 0.003,34.6035 -5.54528,21.2898 -23.7442,38.6341 -49.01091,46.7094 -5.74249,1.8354 -10.05396,2.3224 -24,2.7114 -16.98545,0.4737 -17.00527,0.4769 -23.16242,3.8112 -8.98032,4.863 -23.86792,15.7356 -47.54311,34.7212 -11.48806,9.2125 -21.08364,16.75 -21.32351,16.75 -0.23987,0 2.86918,-4.8375 6.90901,-10.75 z m 18.85968,-98.4205 c 4.19513,-2.1433 6.15367,-11.6774 3.56566,-17.3574 -1.54968,-3.4012 -5.65795,-5.4721 -10.85565,-5.4721 -3.38589,0 -4.77545,0.6258 -7.54966,3.4 -2.93723,2.9372 -3.4,4.0639 -3.4,8.2775 0,10.3297 9.03575,15.8543 18.23965,11.152 z m 41.59566,-0.1219 c 7.12062,-3.4664 6.74493,-18.2997 -0.54763,-21.6224 -1.30998,-0.5969 -4.20561,-1.0852 -6.43473,-1.0852 -3.2759,0 -4.70481,0.6519 -7.45295,3.4 -2.89168,2.8917 -3.4,4.0951 -3.4,8.0497 0,7.208 2.54992,10.8553 9,12.8734 1.87553,0.5868 5.77661,-0.1265 8.83531,-1.6155 z m 41.90076,-0.3405 c 4.09425,-2.5542 5.55994,-5.9347 5.01807,-11.574 -0.40383,-4.2028 -1.08757,-5.7018 -3.64144,-7.9837 -5.53543,-4.9459 -15.45903,-3.2159 -18.09796,3.155 -1.67029,4.0324 -0.82401,12.4839 1.50811,15.0608 3.47673,3.8418 10.24855,4.4391 15.21322,1.3419 z"
                     id="path4950" />
                  <path
                     style="fill:#a6cbdb"
                     d="m -350.40014,1560.6578 c -0.82906,-1.364 -12.55374,-67.414 -15.22168,-85.75 -1.72043,-11.8241 -2.45741,-20.3896 -2.14794,-24.9646 l 0.47112,-6.9647 -1.91685,3.7363 c -2.99676,5.8413 -8.63298,23.5177 -9.78664,30.693 -0.57479,3.575 -1.03874,9.2 -1.03099,12.5 0.0136,5.7747 0.13498,6.0563 3.23297,7.5 9.51491,4.4339 10.36298,18.5994 1.43928,24.0405 -3.79821,2.3159 -9.97227,2.5534 -12.44002,0.4785 -0.96879,-0.8146 -2.56533,-2.058 -3.54787,-2.7632 -2.39842,-1.7215 -4.47117,-8.0472 -3.90371,-11.9136 0.29946,-2.0404 2.03033,-4.6391 4.95876,-7.445 4.00319,-3.8357 4.42857,-4.6613 3.8618,-7.4952 -1.01108,-5.0553 1.28824,-20.5532 4.58471,-30.902 3.25707,-10.225 8.23653,-20.8596 13.05492,-27.8811 l 3.00644,-4.3811 -1.19038,-13.1189 c -1.44936,-15.973 -1.77548,-17.3855 -4.19091,-18.1522 -3.25577,-1.0333 -7.8311,-5.4821 -12.09386,-11.7593 -4.81866,-7.0958 -13.83102,-25.7829 -16.37514,-33.9539 -1.43813,-4.6189 -2.76015,-6.5652 -6.73682,-9.9184 -5.84304,-4.9269 -12.98881,-15.5672 -15.85124,-23.603 -2.87646,-8.0751 -2.96823,-17.1965 -0.21063,-20.9353 2.1108,-2.8618 2.11264,-2.9134 0.23568,-6.572 -2.44669,-4.7691 -6.48905,-19.9145 -7.91123,-29.6408 l -1.11553,-7.6292 4.61414,-7.4774 c 6.90612,-11.1917 9.23926,-21.4026 6.52287,-28.5473 -1.25756,-3.3076 -0.28736,-4.9736 7.17743,-12.3249 11.33808,-11.1657 33.59818,-23.7602 52.84914,-29.9013 12.74325,-4.0651 20.29952,-5.3252 31.74582,-5.2939 10.33276,0.028 14.18739,1.381 7.06642,2.48 -5.57712,0.8607 -15.98739,4.2864 -18.4108,6.0584 -1.6305,1.1923 0.036,1.3071 12.10386,0.8342 23.93285,-0.9378 41.11936,2.7456 54.81017,11.7468 3.67649,2.4171 6.68453,4.6781 6.68453,5.0244 0,0.3463 -1.74662,1.1529 -3.88137,1.7925 -7.11432,2.1315 -7.10042,3.0222 0.21695,13.9091 10.52688,15.662 13.33555,23.4607 14.31395,39.7446 l 0.60085,10 -3.3846,3.5661 c -3.7695,3.9716 -6.55867,11.6876 -7.02501,19.4339 -0.26813,4.4538 0.0336,5.3284 2.76233,8.0063 3.80815,3.7372 4.86529,9.3768 3.34376,17.838 -1.63209,9.0761 -7.87935,21.6467 -13.94541,28.0606 -4.41518,4.6684 -5.33524,6.3512 -6.48992,11.87 -2.62256,12.5345 -17.91814,38.0141 -25.99842,43.3085 -2.23447,1.464 -2.51197,2.3268 -2.50279,7.7816 0.006,3.3742 0.47427,11.4232 1.04132,17.8866 l 1.031,11.7517 5.12201,6.7483 c 5.8626,7.7241 14.1325,24.2303 18.32197,36.5695 l 2.8644,8.4365 6.0839,0.4883 c 10.76816,0.8644 19.38112,6.9344 27.55609,19.4202 9.32655,14.2447 15.52545,35.7743 14.78028,51.3339 -0.29509,6.1617 -0.44657,6.5157 -2.91065,6.8019 l -2.59937,0.3019 -0.67903,-10.503 c -0.89035,-13.7715 -3.56025,-23.86 -9.55403,-36.1008 -5.60569,-11.4483 -10.30152,-17.3803 -16.74952,-21.1591 -9.33106,-5.4684 -18.2065,-4.8325 -25.79611,1.8481 -5.40285,4.7558 -7.97434,9.3865 -10.01206,18.0295 -3.11704,13.2209 -1.08232,30.7994 4.94089,42.6856 l 2.58228,5.0959 -3.57217,0 c -3.33816,0 -3.72922,-0.3439 -5.96972,-5.25 -2.88756,-6.323 -5.45846,-15.8614 -5.58199,-20.7101 l -0.0902,-3.5399 -0.81738,3 c -0.44956,1.65 -1.59241,8.2875 -2.53967,14.75 l -1.72229,11.75 -18.81112,0 c -10.34612,0 -19.01626,-0.3375 -19.26698,-0.75 z m 56.296,-69.5932 c 2.28205,-2.0618 5.21717,-4.2352 6.52247,-4.8299 l 2.37328,-1.0814 -3.04213,-8.6227 c -1.67317,-4.7426 -4.72563,-11.97 -6.78325,-16.061 l -3.74113,-7.4383 -0.69161,9.4383 c -0.64335,8.7796 -2.85395,29.2164 -4.15778,38.4382 l -0.56554,4 2.96824,-5.0473 c 1.63254,-2.7761 4.83539,-6.7342 7.11745,-8.7959 z m 89.56238,-225.2298 c 15.66776,-21.8376 25.39182,-42.8566 21.32499,-46.0949 -0.74005,-0.5894 -4.27055,-1.3813 -7.84555,-1.76 -18.77602,-1.9888 -32.59908,-8.8608 -45.19941,-22.4703 -11.2483,-12.1492 -15.75974,-24.4998 -15.78581,-43.2153 -0.0189,-13.581 1.15516,-19.7097 5.43794,-28.3865 6.47695,-13.1221 17.46479,-23.744 32.04728,-30.98 14.85439,-7.3709 15.92348,-7.4904 67,-7.4904 49.0825,0 51.47552,0.2189 63.8797,5.8432 20.41012,9.2544 36.27669,27.5349 39.5446,45.5609 0.59163,3.2635 1.0757,9.8183 1.0757,14.5663 0,19.7541 -4.58461,30.8653 -18.37932,44.544 -7.63961,7.5753 -10.66334,9.7998 -18.62068,13.6986 -13.45065,6.5903 -19.56742,7.9285 -39.51642,8.6457 l -17.01642,0.6117 -7.7914,4.8571 c -12.4059,7.7337 -30.11424,21.1219 -53.39422,40.3682 -6.17015,5.1011 -11.43803,9.2747 -11.7064,9.2747 -0.26837,0 1.95707,-3.4078 4.94542,-7.573 z m 21.45599,-102.2464 c 1.3879,-1.0294 3.09469,-3.5783 3.79286,-5.6642 3.60698,-10.7763 -5.38026,-20.0566 -15.50138,-16.007 -2.12923,0.852 -4.63559,2.8428 -5.56968,4.4241 -2.12505,3.5974 -2.18741,10.2201 -0.13364,14.1916 2.96742,5.7384 11.72302,7.2748 17.41184,3.0555 z m 39.48915,1.3982 c 8.23382,-3.4403 8.93534,-18.3503 1.06165,-22.5642 -5.65788,-3.028 -13.43675,-1.0243 -16.11266,4.1504 -3.32463,6.4291 -0.80069,15.8919 4.90002,18.3713 4.09298,1.7802 5.97323,1.7881 10.15099,0.042 z m 42,0 c 8.26858,-3.4549 8.93153,-18.3523 1.00546,-22.5942 -3.72788,-1.9951 -10.10738,-1.6438 -13.31426,0.7333 -7.18288,5.3243 -5.89179,18.3169 2.16858,21.823 4.08186,1.7755 5.96468,1.7825 10.14022,0.038 z"
                     id="path4948" />
                  <path
                     style="fill:#f9ad6f"
                     d="m -350.40038,1559.1795 c -1.20043,-4.8202 -9.88877,-53.1439 -12.63447,-70.2717 -3.92013,-24.4539 -5.32415,-37.1617 -4.63678,-41.9672 l 0.57684,-4.0328 -2.01877,3.7717 c -2.99861,5.6023 -8.69462,23.3024 -9.88857,30.7283 -0.57479,3.575 -1.04848,9.2292 -1.05264,12.5648 -0.007,5.9515 0.0579,6.096 3.49929,7.7371 9.35485,4.461 10.05315,18.3372 1.19461,23.7386 -1.7608,1.0736 -4.49018,1.9537 -6.0653,1.9558 -3.85825,0.01 -9.93937,-3.5467 -11.97622,-6.9948 -4.42277,-7.4872 0.60101,-18.7137 8.55489,-19.1175 1.89072,-0.096 1.96045,-0.1993 0.40397,-0.5986 -1.74642,-0.448 -1.84637,-1.3532 -1.39501,-12.634 0.42147,-10.5339 0.96419,-13.5719 4.07718,-22.8229 3.87447,-11.5139 8.20088,-20.7569 12.97023,-27.7096 l 3.00529,-4.3811 -1.19038,-13.1189 c -1.44936,-15.973 -1.77548,-17.3855 -4.19091,-18.1522 -3.25577,-1.0333 -7.8311,-5.4821 -12.09386,-11.7593 -4.81866,-7.0958 -13.83102,-25.7829 -16.37514,-33.9539 -1.43813,-4.6189 -2.76015,-6.5652 -6.73682,-9.9184 -5.84304,-4.9269 -12.98881,-15.5672 -15.85124,-23.603 -2.86025,-8.0296 -2.96813,-17.226 -0.24497,-20.8822 l 2.09315,-2.8103 -2.31001,-5.2234 c -2.7064,-6.1196 -5.73486,-17.7247 -7.4033,-28.3693 l -1.18388,-7.5531 4.07257,-6.3011 c 7.28975,-11.2787 9.92398,-22.2658 7.11174,-29.6626 -1.25758,-3.3077 -0.28725,-4.9738 7.17743,-12.3247 14.09138,-13.8764 43.7653,-28.9088 66.22272,-33.5475 7.94893,-1.6419 26.22627,-2.0984 28.41512,-0.7097 0.80769,0.5125 -1.29536,1.2795 -5.63441,2.0549 -3.8077,0.6805 -9.50905,2.4538 -12.66966,3.9408 l -5.74657,2.7035 20.38097,0.04 c 22.28743,0.044 29.64551,1.2866 41.03508,6.9308 6.01384,2.9803 14.84102,8.6732 14.84396,9.5734 0.001,0.3255 -1.74469,1.115 -3.87944,1.7546 -7.18482,2.1526 -7.16192,3.0396 0.36668,14.205 10.20787,15.1387 14.4379,27.9864 14.49488,44.0244 0.0165,4.6385 -0.39191,5.9625 -2.42971,7.8769 -3.61925,3.4001 -6.42691,10.1252 -7.55865,18.105 l -1.00226,7.0669 3.3513,3.1877 c 2.3829,2.2667 3.54802,4.4431 4.03211,7.5321 1.6421,10.4783 -5.21636,28.8804 -14.37153,38.5607 -4.41518,4.6684 -5.33524,6.3511 -6.48992,11.8699 -2.62256,12.5345 -17.91814,38.0141 -25.99842,43.3085 -2.23447,1.4641 -2.51197,2.3268 -2.50279,7.7816 0.006,3.3742 0.47427,11.4232 1.04132,17.8866 l 1.031,11.7517 5.12201,6.7483 c 5.8626,7.7242 14.1325,24.2303 18.32197,36.5695 l 2.8644,8.4365 6.09968,0.4896 c 3.35482,0.2693 7.65434,1.2799 9.55449,2.2457 17.87824,9.0877 31.76039,36.6349 32.25574,64.0071 l 0.19907,11 -2.59427,0.3014 -2.59427,0.3014 -0.63352,-10.8014 c -0.34843,-5.9408 -1.5634,-14.1764 -2.69993,-18.3014 -2.49819,-9.0671 -10.65984,-26.088 -14.9869,-31.2547 -7.22088,-8.6222 -17.11673,-12.7497 -25.50417,-10.6377 -5.3569,1.3489 -12.75052,7.5286 -15.53301,12.9827 -7.00432,13.7296 -6.33435,37.3584 1.49748,52.8138 l 2.58228,5.0959 -3.57217,0 c -3.33816,0 -3.72922,-0.3439 -5.96972,-5.25 -3.01197,-6.5954 -5.4918,-16.0333 -5.4918,-20.9011 0,-2.052 -0.45,-4.009 -1,-4.3489 -0.59766,-0.3694 -1.01557,0.9145 -1.03871,3.191 -0.0213,2.0949 -0.82826,8.984 -1.79327,15.309 l -1.75457,11.5 -18.59288,0.2717 -18.59289,0.2716 -0.56574,-2.2716 z m -37.66194,-42.1493 c 0,-0.2076 -0.7875,-0.9951 -1.75,-1.75 -1.58606,-1.2438 -1.62143,-1.2085 -0.37756,0.3776 1.30637,1.6658 2.12756,2.1955 2.12756,1.3724 z m 12.12756,-1.3724 c 1.24387,-1.5861 1.2085,-1.6214 -0.37756,-0.3776 -0.9625,0.7549 -1.75,1.5424 -1.75,1.75 0,0.8231 0.82119,0.2934 2.12756,-1.3724 z m 79.76543,-22.5181 c 2.21999,-2.4084 5.58627,-5.2136 7.48061,-6.2338 l 3.44425,-1.8548 -3.02496,-8.5717 c -2.53658,-7.1877 -11.26333,-26.0662 -12.05293,-26.0739 -0.13198,-10e-4 -0.094,3.5736 0.0844,7.9443 0.27495,6.7352 -2.79419,39.0985 -4.46269,47.058 -0.28824,1.375 0.60521,0.1624 1.98543,-2.6946 1.38022,-2.857 4.32585,-7.1651 6.54585,-9.5735 z m -92.39299,10.2681 c 0.99549,-1.1 1.58498,-2 1.30998,-2 -0.275,0 -1.31449,0.9 -2.30998,2 -0.99549,1.1 -1.58497,2 -1.30997,2 0.275,0 1.31448,-0.9 2.30997,-2 z m 13.5,1.655 c 0,-0.1898 -1.0125,-1.2023 -2.25,-2.25 l -2.25,-1.905 1.90499,2.25 c 1.79022,2.1144 2.59501,2.7052 2.59501,1.905 z m 169.80985,-237.905 c 15.12724,-20.5059 25.59458,-42.8188 22.34394,-47.6298 -0.58738,-0.8694 -4.04468,-1.6635 -9.34514,-2.1466 -16.34902,-1.4902 -29.70634,-7.8714 -41.80888,-19.9736 -12.27409,-12.2737 -16.77879,-22.9835 -17.66584,-42 -0.92432,-19.8154 3.36012,-32.9202 14.86914,-45.4803 10.20554,-11.1376 23.05631,-18.8776 37.45791,-22.5609 7.03783,-1.7999 11.24179,-1.9588 51.83902,-1.9588 40.38731,0 44.82853,0.1658 51.73356,1.9319 26.99985,6.9054 48.59534,28.7874 51.87983,52.5681 1.413,10.2306 0.42035,24.9601 -2.21486,32.8656 -4.73226,14.1964 -17.37798,28.0642 -32.90289,36.0825 -13.09465,6.7631 -21.21373,8.5498 -38.9056,8.5617 -13.45402,0.01 -15.00834,0.2045 -19.96224,2.5106 -9.24941,4.3057 -38.08759,25.5154 -61.35465,45.1247 -4.79976,4.0452 -8.97646,7.3549 -9.28154,7.3549 -0.30508,0 1.18812,-2.3625 3.31824,-5.25 z m 22.76923,-103.8243 c 7.39965,-6.9516 4.27886,-20.1664 -5.33215,-22.5786 -3.69295,-0.9268 -9.90284,1.3609 -12.11082,4.4618 -6.6541,9.3448 -0.14666,22.0811 10.67616,20.8952 2.62572,-0.2877 5.27224,-1.3743 6.76681,-2.7784 z m 40.52304,0.7917 c 4.84946,-3.2577 6.68218,-8.8641 4.80193,-14.6893 -1.81967,-5.6375 -5.68502,-8.5281 -11.40405,-8.5281 -5.59299,0 -9.53595,2.8674 -11.46917,8.3406 -1.29222,3.6584 -1.29222,4.6673 0,8.3768 1.73211,4.9722 6.70811,8.7826 11.46917,8.7826 1.76233,0 4.73328,-1.0272 6.60212,-2.2826 z m 41.58406,0.3324 c 4.16023,-2.5367 5.54459,-5.2978 5.54459,-11.0587 0,-5.7105 -2.39447,-9.7437 -6.90305,-11.6275 -4.47975,-1.8718 -7.25224,-1.707 -11.1379,0.662 -6.05826,3.6937 -7.89002,12.1557 -3.9098,18.0619 4.05732,6.0207 10.48455,7.5729 16.40616,3.9623 z"
                     id="path4946" />
                  <path
                     style="fill:#71bcd0"
                     d="m -350.40038,1559.1795 c -1.16702,-4.686 -9.85899,-52.9533 -12.65451,-70.2717 -4.35102,-26.9547 -5.59333,-39.9187 -4.13254,-43.1248 0.66,-1.4485 0.96212,-2.8715 0.6714,-3.1622 -0.78365,-0.7837 -5.94644,11.1018 -8.90532,20.5013 -3.10568,9.8658 -4.62321,18.6599 -4.63342,26.8505 -0.007,5.9515 0.0579,6.096 3.49929,7.7371 9.35485,4.461 10.05315,18.3372 1.19461,23.7386 -1.7608,1.0736 -4.49018,1.9537 -6.0653,1.9558 -3.85825,0.01 -9.93937,-3.5467 -11.97622,-6.9948 -4.42277,-7.4872 0.60101,-18.7137 8.55489,-19.1175 1.89072,-0.096 1.96045,-0.1993 0.40397,-0.5986 -1.74642,-0.448 -1.84637,-1.3532 -1.39501,-12.634 0.42147,-10.5339 0.96419,-13.5719 4.07718,-22.8229 3.87582,-11.5179 8.201,-20.7571 12.97546,-27.7172 2.99564,-4.367 3.00737,-4.4388 2.37082,-14.5 -1.26227,-19.9513 -1.21298,-19.7851 -6.79066,-22.8992 -3.70698,-2.0697 -6.04445,-4.486 -9.48581,-9.8058 -5.61532,-8.6804 -13.49839,-25.1105 -16.38798,-34.1563 -1.18593,-3.7125 -2.51829,-6.75 -2.96081,-6.75 -1.51923,0 -11.76173,-10.9575 -12.97064,-13.8761 -0.66504,-1.6055 -2.69072,-9.6027 -4.5015,-17.7715 -2.82968,-12.7652 -3.09769,-15.0764 -1.90718,-16.4465 1.19324,-1.3732 1.04143,-2.3714 -1.0956,-7.2036 -2.86218,-6.4719 -5.87301,-17.9027 -7.57406,-28.7554 l -1.18388,-7.5531 4.07257,-6.3011 c 7.28975,-11.2787 9.92398,-22.2658 7.11174,-29.6626 -1.25758,-3.3077 -0.28725,-4.9738 7.17743,-12.3247 14.09138,-13.8764 43.7653,-28.9088 66.22272,-33.5475 7.94893,-1.6419 26.22627,-2.0984 28.41512,-0.7097 0.80769,0.5125 -1.29536,1.2795 -5.63441,2.0549 -3.8077,0.6805 -9.50905,2.4538 -12.66966,3.9408 l -5.74657,2.7035 20.38097,0.04 c 22.28743,0.044 29.64551,1.2866 41.03508,6.9308 6.01384,2.9803 14.84102,8.6732 14.84396,9.5734 0.001,0.3255 -1.74469,1.115 -3.87944,1.7546 -7.18482,2.1526 -7.16192,3.0396 0.36668,14.205 10.20787,15.1387 14.4379,27.9864 14.49488,44.0244 0.0165,4.6385 -0.39191,5.9625 -2.42971,7.8769 -3.78243,3.5534 -6.50013,10.3553 -7.70012,19.2719 -0.60158,4.4701 -1.93733,9.5108 -2.96833,11.2015 -2.17213,3.562 -2.54462,5.8624 -0.4955,3.0601 1.51061,-2.0659 1.61265,-1.7375 4.97547,16.0139 l 1.32607,7 -3.41767,6.8712 c -1.87972,3.7792 -5.59129,9.0449 -8.24795,11.7016 -3.72795,3.7279 -4.98921,5.8112 -5.52669,9.1287 -1.90877,11.7815 -11.59911,29.6304 -22.1707,40.8368 l -6.32506,6.7049 0.0439,10.3784 c 0.0241,5.7081 0.41015,13.5325 0.85776,17.3875 0.73857,6.3608 1.30464,7.6558 6.11942,14 6.02635,7.9406 14.27218,24.3436 18.50553,36.812 l 2.8644,8.4365 6.09968,0.4896 c 3.35482,0.2693 7.65434,1.2799 9.55449,2.2457 17.87824,9.0877 31.76039,36.635 32.25574,64.0071 l 0.19907,11 -2.59427,0.3014 -2.59427,0.3014 -0.63352,-10.8014 c -0.34843,-5.9408 -1.5634,-14.1764 -2.69993,-18.3014 -2.49819,-9.0671 -10.65984,-26.088 -14.9869,-31.2547 -7.22088,-8.6222 -17.11673,-12.7497 -25.50417,-10.6377 -5.3569,1.3489 -12.75052,7.5286 -15.53301,12.9827 -7.00432,13.7296 -6.33435,37.3584 1.49748,52.8138 l 2.58228,5.0959 -3.57217,0 c -3.33816,0 -3.72922,-0.3439 -5.96972,-5.25 -3.01196,-6.5954 -5.49179,-16.0333 -5.49179,-20.9011 0,-2.052 -0.45,-4.009 -1,-4.3489 -0.59766,-0.3694 -1.01557,0.9145 -1.03871,3.191 -0.0213,2.0949 -0.82826,8.984 -1.79327,15.309 l -1.75457,11.5 -18.59288,0.2717 -18.59289,0.2716 -0.56574,-2.2716 z m -37.66194,-42.1493 c 0,-0.2076 -0.7875,-0.9951 -1.75,-1.75 -1.58606,-1.2438 -1.62143,-1.2085 -0.37756,0.3776 1.30637,1.6658 2.12756,2.1955 2.12756,1.3724 z m 12.12756,-1.3724 c 1.24387,-1.5861 1.2085,-1.6214 -0.37756,-0.3776 -0.9625,0.7549 -1.75,1.5424 -1.75,1.75 0,0.8231 0.82119,0.2934 2.12756,-1.3724 z m 79.76543,-22.5181 c 2.21999,-2.4084 5.58627,-5.2136 7.48061,-6.2338 l 3.44425,-1.8548 -3.02496,-8.5717 c -2.53658,-7.1877 -11.26333,-26.0662 -12.05293,-26.0739 -0.13198,-10e-4 -0.094,3.5736 0.0844,7.9443 0.27495,6.7352 -2.79419,39.0985 -4.46269,47.058 -0.28824,1.375 0.60521,0.1624 1.98543,-2.6946 1.38022,-2.857 4.32585,-7.1651 6.54585,-9.5735 z m -92.39299,10.2681 c 0.99549,-1.1 1.58498,-2 1.30998,-2 -0.275,0 -1.31449,0.9 -2.30998,2 -0.99549,1.1 -1.58497,2 -1.30997,2 0.275,0 1.31448,-0.9 2.30997,-2 z m 13.5,1.655 c 0,-0.1898 -1.0125,-1.2023 -2.25,-2.25 l -2.25,-1.905 1.90499,2.25 c 1.79022,2.1144 2.59501,2.7052 2.59501,1.905 z m 50.48077,-50.4203 c -0.56057,-0.4041 -3.88422,-5.0097 -7.38588,-10.2347 -8.47958,-12.6528 -16.30537,-22.317 -20.31683,-25.0895 l -3.27806,-2.2656 2.42431,2.6775 2.42432,2.6776 -3.10477,0 c -2.44825,0 -3.17958,-0.4758 -3.45858,-2.25 -0.1946,-1.2375 -1.35723,2.925 -2.58362,9.25 -2.70919,13.9725 -3.39699,20.2388 -2.13587,19.4593 0.51381,-0.3175 0.93421,-0.074 0.93421,0.5407 0,0.6149 0.45,0.8399 1,0.5 0.55,-0.3399 1,-0.1556 1,0.4096 0,0.5652 0.74882,0.7403 1.66404,0.3891 1.11132,-0.4265 1.42623,-0.2538 0.94807,0.5199 -0.46779,0.7569 -0.178,0.952 0.83595,0.563 0.85966,-0.3299 1.55194,-0.072 1.55194,0.5788 0,0.7424 0.78179,0.9262 2.12523,0.4999 1.56442,-0.4966 1.91921,-0.3412 1.34451,0.5887 -0.59408,0.9612 -0.0145,1.11 2.42448,0.6222 2.00268,-0.4006 2.97682,-0.2716 2.59647,0.3439 -0.38611,0.6247 3.52711,0.9793 10.70029,0.9696 6.21996,-0.01 10.85037,-0.3459 10.28979,-0.75 z m -1.19865,-51.5993 c 3.81741,-1.6188 8.70276,-6.2684 22.36699,-21.2875 11.30743,-12.4286 11.24509,-12.2831 14.84463,-34.6522 1.82885,-11.3652 2.81296,-14.3022 5.92939,-17.6957 1.37226,-1.4943 2.75572,-4.8854 3.43891,-8.4294 0.62867,-3.2612 1.81689,-6.9578 2.64049,-8.2148 2.14359,-3.2715 1.88515,-8.0235 -1.52708,-28.0789 -4.51635,-26.5449 -10.44901,-49.2769 -12.86044,-49.2769 -0.4077,0 -3.75994,1.8206 -7.44942,4.0459 -3.68948,2.2252 -7.2181,3.7307 -7.84137,3.3455 -0.74642,-0.4614 -0.85383,-0.2483 -0.31468,0.624 0.59931,0.9697 0.35895,1.1481 -0.89743,0.666 -0.94379,-0.3622 -1.46735,-0.2562 -1.16346,0.2355 0.71026,1.1492 -10.49608,6.4253 -21.59615,10.1676 -11.09217,3.7397 -12.8192,3.658 -5.58928,-0.2646 3.16978,-1.7197 5.58481,-3.3052 5.36674,-3.5233 -0.21807,-0.218 -2.65215,-0.097 -5.40907,0.2685 -6.01036,0.7973 -15.7107,6.5884 -19.61911,11.7126 -1.71469,2.2481 -2.88409,5.3104 -3.26904,8.5606 -0.54799,4.627 -0.2024,5.836 4.03396,14.1123 2.54832,4.9784 4.6333,9.712 4.6333,10.5192 0,0.8071 0.5851,1.2429 1.30023,0.9685 1.03908,-0.3987 1.14107,1.0638 0.50778,7.2814 -1.0014,9.8318 -1.23935,37.3459 -0.34729,40.1566 0.89965,2.8345 4.30294,3.5373 11.26798,2.3269 9.07985,-1.578 8.49288,0.3128 -1.32983,4.2837 l -5.89887,2.3846 -2.86279,7.5177 -2.86279,7.5177 -5.63721,0.4036 c -3.10046,0.222 1.56279,0.3555 10.36279,0.2966 14.6314,-0.098 16.4063,-0.3072 20.75,-2.4463 3.19328,-1.5726 4.75,-2.9654 4.75,-4.25 0,-2.4684 1.63815,-2.4554 2.96482,0.024 1.35934,2.54 1.32437,2.7408 -0.60626,3.4816 -1.29726,0.4978 -1.40393,0.3437 -0.50868,-0.735 0.62302,-0.7507 0.85469,-1.643 0.51481,-1.9828 -0.33988,-0.3399 -1.58584,0.8182 -2.76881,2.5736 -3.22798,4.79 -9.07517,6.609 -21.45429,6.674 l -10.35841,0.054 0.68632,2.75 c 0.812,3.2536 3.29806,6.25 5.18549,6.25 1.50816,0 1.81539,1.5913 0.46801,2.424 -0.48236,0.2981 -1.40113,2.6235 -2.04173,5.1675 -1.0098,4.0103 -0.91969,5.0977 0.6775,8.1754 1.01321,1.9524 3.38747,4.3786 5.27612,5.3915 4.07517,2.1855 11.69104,2.4091 16.24723,0.477 z m -0.28212,-103.1682 c 0,-1.9146 5.71624,-8.2729 8.89844,-9.8978 7.43433,-3.7964 15.01572,-2.5873 21.4581,3.4221 4.39807,4.1025 4.54371,6.2997 0.23022,3.4734 -2.16061,-1.4157 -2.58676,-1.4544 -2.58676,-0.2349 0,2.1964 -3.33102,4.77 -6.17375,4.77 -2.9281,0 -5.86377,-2.8481 -6.09463,-5.9127 -0.10248,-1.3605 -0.65748,-1.946 -1.52807,-1.6119 -0.75192,0.2885 -1.9601,0.5246 -2.68485,0.5246 -0.72475,0 -3.61294,1.5446 -6.41821,3.4324 -3.39701,2.286 -5.10049,2.9656 -5.10049,2.0348 z m -7.97804,-20.2172 c 0.0121,-0.9625 0.86313,-3.6023 1.89123,-5.8662 1.80598,-3.9769 2.10144,-4.1614 8.72803,-5.4493 14.71707,-2.8604 27.2411,-1.1347 30.71277,4.232 3.08958,4.776 3.03716,4.7982 -12.35399,5.2498 -8.38002,0.2458 -17.03241,1.0768 -20.5,1.9689 -7.72016,1.9861 -8.5045,1.9736 -8.47804,-0.1352 z m -23.2603,93.0629 c -0.95609,-0.2503 -2.75609,-0.2593 -4,-0.02 -1.24391,0.2392 -0.46166,0.444 1.73834,0.4551 2.2,0.011 3.21775,-0.1846 2.26166,-0.4349 z m -6.76166,-5.0261 c -0.825,-0.3054 -2.175,-1.0574 -3,-1.6711 -1.30346,-0.9695 -1.32017,-0.8864 -0.12756,0.6343 0.75485,0.9625 2.10485,1.7145 3,1.671 1.36145,-0.066 1.38231,-0.1697 0.12756,-0.6342 z m -42.30701,-58.0178 c -0.25354,-0.9729 -0.47766,-0.419 -0.49804,1.231 -0.0204,1.65 0.18706,2.4461 0.46099,1.769 0.27392,-0.677 0.29059,-2.027 0.0371,-3 z m 18.52777,-3.2279 c 5.02551,-3.475 9.77924,-4.9158 9.77924,-2.964 0,1.8973 4.09393,5.9357 5.92431,5.8439 1.3497,-0.068 1.36056,-0.158 0.0757,-0.6304 -2.82946,-1.0404 -5,-3.6022 -5,-5.9012 0,-2.2629 -0.0674,-2.2769 -4.11017,-0.8505 -2.2606,0.7976 -5.94925,2.8026 -8.19701,4.4556 -5.27525,3.8795 -4.06843,3.9163 1.52794,0.047 z m 22.70075,0.3316 c 1.794,-2.2807 2.29835,-2.4529 3.82258,-1.3048 1.64084,1.2359 1.63971,1.1959 -0.0172,-0.6101 -1.74487,-1.9018 -1.80862,-1.8906 -4,0.7051 -1.22478,1.4507 -2.90187,2.872 -3.72687,3.1584 -1.21657,0.4224 -1.18304,0.5357 0.17742,0.5997 0.92258,0.043 2.60742,-1.1033 3.74409,-2.5483 z m -42.19678,-11.6048 c -0.22256,-1.7973 -0.40925,-0.5679 -0.41486,2.7321 -0.006,3.3 0.17648,4.7706 0.40466,3.2679 0.22817,-1.5026 0.23276,-4.2026 0.0102,-6 z m -0.007,-13.5041 c -0.2298,-1.5201 -0.42401,-0.5138 -0.43152,2.2362 -0.007,2.75 0.18056,3.9937 0.41792,2.7638 0.23736,-1.23 0.24351,-3.48 0.0136,-5 z m 8.66398,2.1843 c 0.34149,-0.89 0.17385,-1.2914 -0.39301,-0.941 -0.54365,0.336 -0.9885,1.0344 -0.9885,1.5519 0,1.4385 0.71677,1.1215 1.38156,-0.6109 z m 2.74605,-4.1981 c 1.24387,-1.5861 1.2085,-1.6214 -0.37756,-0.3776 -0.9625,0.7549 -1.75,1.5424 -1.75,1.75 0,0.8231 0.82119,0.2934 2.12756,-1.3724 z m 4.3989,-3.0569 c -0.30789,-0.3079 -1.11479,-6e-4 -1.79313,0.6828 -0.98026,0.9876 -0.8654,1.1025 0.5598,0.5598 0.98622,-0.3755 1.54122,-0.9347 1.23333,-1.2426 z m -14.84335,-2.3806 c -0.31922,-0.7977 -0.55618,-0.5608 -0.60416,0.6042 -0.0434,1.0541 0.19293,1.6448 0.52522,1.3125 0.33229,-0.3323 0.36782,-1.1948 0.0789,-1.9167 z m 46.31689,0.8099 c 0,-0.2076 -0.7875,-0.9951 -1.75,-1.75 -1.58606,-1.2438 -1.62143,-1.2085 -0.37756,0.3776 1.30637,1.6658 2.12756,2.1955 2.12756,1.3724 z m -13.25,-2.3117 c -0.9625,-0.2515 -2.5375,-0.2515 -3.5,0 -0.9625,0.2515 -0.175,0.4573 1.75,0.4573 1.925,0 2.7125,-0.2058 1.75,-0.4573 z m -19.25,-19.1464 c 1.1,-0.6069 1.43089,-1.1172 0.73532,-1.1339 -0.69558,-0.017 -2.74142,1.4321 -4.5463,3.2196 -1.80489,1.7875 -2.13578,2.2977 -0.73531,1.1338 1.40046,-1.1638 3.44629,-2.6126 4.54629,-3.2195 z m 14.25,-0.8536 c -0.9625,-0.2515 -2.5375,-0.2515 -3.5,0 -0.9625,0.2515 -0.175,0.4573 1.75,0.4573 1.925,0 2.7125,-0.2058 1.75,-0.4573 z m 5.97917,-0.9149 c -0.3323,-0.3323 -1.1948,-0.3678 -1.91667,-0.079 -0.79773,0.3193 -0.56078,0.5562 0.60417,0.6042 1.05416,0.043 1.64479,-0.1929 1.3125,-0.5252 z m 12,-3 c -0.3323,-0.3323 -1.1948,-0.3678 -1.91667,-0.079 -0.79773,0.3193 -0.56078,0.5562 0.60417,0.6042 1.05416,0.043 1.64479,-0.1929 1.3125,-0.5252 z m 27.27083,-4.9662 c 0,-0.275 -0.9,-0.018 -2,0.5704 -1.1,0.5887 -2,1.2954 -2,1.5704 0,0.275 0.9,0.018 2,-0.5704 1.1,-0.5887 2,-1.2954 2,-1.5704 z m 8.05383,-5.9909 c 1.89539,-1.9588 2.77117,-3.278 1.94617,-2.9316 -1.37999,0.5794 -6.63715,6.4929 -5.77223,6.4929 0.20895,0 1.93067,-1.6026 3.82606,-3.5613 z m 119.75602,29.3113 c 15.12724,-20.5059 25.59458,-42.8188 22.34394,-47.6298 -0.58738,-0.8694 -4.04468,-1.6635 -9.34514,-2.1466 -16.34902,-1.4902 -29.70634,-7.8714 -41.80888,-19.9736 -12.27409,-12.2737 -16.77879,-22.9835 -17.66584,-42 -0.92432,-19.8154 3.36012,-32.9202 14.86914,-45.4803 10.20554,-11.1376 23.05631,-18.8776 37.45791,-22.5609 7.03783,-1.7999 11.24179,-1.9588 51.83902,-1.9588 40.38731,0 44.82853,0.1658 51.73356,1.9319 26.99985,6.9054 48.59534,28.7874 51.87983,52.5681 1.413,10.2306 0.42035,24.9601 -2.21486,32.8656 -4.73226,14.1964 -17.37798,28.0642 -32.90289,36.0825 -13.09465,6.7631 -21.21373,8.5498 -38.9056,8.5617 -13.45402,0.01 -15.00834,0.2045 -19.96224,2.5106 -9.24941,4.3057 -38.08759,25.5154 -61.35465,45.1247 -4.79976,4.0452 -8.97646,7.3549 -9.28154,7.3549 -0.30508,0 1.18812,-2.3625 3.31824,-5.25 z m 22.76923,-103.8243 c 7.39965,-6.9516 4.27886,-20.1664 -5.33215,-22.5786 -3.69295,-0.9268 -9.90284,1.3609 -12.11082,4.4618 -6.6541,9.3448 -0.14666,22.0811 10.67616,20.8952 2.62572,-0.2877 5.27224,-1.3743 6.76681,-2.7784 z m 40.52304,0.7917 c 4.84946,-3.2577 6.68218,-8.8641 4.80193,-14.6893 -1.81967,-5.6375 -5.68502,-8.5281 -11.40405,-8.5281 -5.59299,0 -9.53595,2.8674 -11.46917,8.3406 -1.29222,3.6584 -1.29222,4.6673 0,8.3768 1.73211,4.9722 6.70811,8.7826 11.46917,8.7826 1.76233,0 4.73328,-1.0272 6.60212,-2.2826 z m 41.58406,0.3324 c 4.16023,-2.5367 5.54459,-5.2978 5.54459,-11.0587 0,-5.7105 -2.39447,-9.7437 -6.90305,-11.6275 -4.47975,-1.8718 -7.25224,-1.707 -11.1379,0.662 -6.05826,3.6937 -7.89002,12.1557 -3.9098,18.0619 4.05732,6.0207 10.48455,7.5729 16.40616,3.9623 z"
                     id="path4944" />
                  <path
                     style="fill:#f69857"
                     d="m -301.57532,1556.1578 c -7.63655,-16.6886 -7.8252,-40.3659 -0.43702,-54.848 2.70185,-5.296 8.94583,-12.0463 13.32362,-14.4039 l 3.44425,-1.8548 -3.02534,-8.5717 c -1.66394,-4.7144 -5.23682,-12.9785 -7.93973,-18.3648 -4.65805,-9.2824 -7.24538,-12.2527 -8.7037,-9.992 -0.83133,1.2887 -7.14908,4.5482 -7.14908,3.6884 0,-0.3564 -0.675,-0.088 -1.5,0.5968 -0.825,0.6847 -1.5,0.9097 -1.5,0.5 0,-0.4097 -0.68587,-0.1757 -1.52417,0.5201 -0.83829,0.6957 -1.80938,0.9797 -2.15799,0.6311 -0.3486,-0.3486 -1.21613,-0.1506 -1.92784,0.4401 -2.40103,1.9927 -4.86536,-0.128 -10.89,-9.3712 -7.97398,-12.2339 -16.53584,-22.9131 -20.65308,-25.7606 l -3.34692,-2.3146 2.42431,2.6775 2.42432,2.6776 -3.17432,0 c -2.58904,0 -3.17431,-0.3995 -3.17431,-2.1667 0,-4.4372 -0.98048,-0.8778 -3.46754,12.5881 -1.95809,10.6019 -2.28649,14.17 -1.40219,15.2356 0.6351,0.7652 0.86561,1.6805 0.51223,2.0338 -0.35337,0.3534 -0.6425,0.091 -0.6425,-0.5832 0,-0.6741 -0.38986,-0.9847 -0.86635,-0.6902 -1.49015,0.921 -4.24134,-2.9732 -3.48782,-4.9368 0.45035,-1.1736 0.31576,-1.5749 -0.38333,-1.1428 -1.55079,0.9584 -6.72816,13.797 -9.76633,24.2181 -1.63429,5.6057 -2.82434,12.6766 -3.18829,18.9441 l -0.5807,10 3.64325,1.7371 c 9.48477,4.5223 10.25854,18.36 1.33102,23.8034 -1.7608,1.0736 -4.49018,1.9537 -6.0653,1.9558 -3.85825,0.01 -9.93937,-3.5467 -11.97622,-6.9948 -4.42277,-7.4872 0.60101,-18.7137 8.55489,-19.1175 1.89072,-0.096 1.96045,-0.1993 0.40397,-0.5986 -1.74642,-0.448 -1.84637,-1.3532 -1.39501,-12.634 0.42147,-10.5339 0.96419,-13.5719 4.07718,-22.8229 3.87582,-11.5179 8.201,-20.7571 12.97546,-27.7172 2.99564,-4.367 3.00737,-4.4388 2.37082,-14.5 -1.26227,-19.9513 -1.21298,-19.7851 -6.79066,-22.8992 -3.70698,-2.0697 -6.04445,-4.486 -9.48581,-9.8058 -5.61532,-8.6804 -13.49839,-25.1105 -16.38798,-34.1563 -1.18593,-3.7125 -2.51829,-6.75 -2.96081,-6.75 -1.51923,0 -11.76173,-10.9575 -12.97064,-13.8761 -0.66504,-1.6055 -2.69072,-9.6027 -4.5015,-17.7715 -2.82968,-12.7652 -3.09769,-15.0764 -1.90718,-16.4465 1.19324,-1.3732 1.04143,-2.3714 -1.0956,-7.2036 -2.86218,-6.4719 -5.87301,-17.9027 -7.57406,-28.7554 l -1.18388,-7.5531 4.07257,-6.3011 c 7.28975,-11.2787 9.92398,-22.2658 7.11174,-29.6626 -1.25758,-3.3077 -0.28725,-4.9738 7.17743,-12.3247 14.09138,-13.8764 43.7653,-28.9088 66.22272,-33.5475 7.94893,-1.6419 26.22627,-2.0984 28.41512,-0.7097 0.80769,0.5125 -1.29536,1.2795 -5.63441,2.0549 -3.8077,0.6805 -9.50905,2.4538 -12.66966,3.9408 l -5.74657,2.7035 20.38097,0.04 c 22.28743,0.044 29.64551,1.2866 41.03508,6.9308 6.01384,2.9803 14.84102,8.6732 14.84396,9.5734 0.001,0.3255 -1.74469,1.115 -3.87944,1.7546 -7.18482,2.1526 -7.16192,3.0396 0.36668,14.205 10.20787,15.1387 14.4379,27.9864 14.49488,44.0244 0.0165,4.6385 -0.39191,5.9625 -2.42971,7.8769 -3.78243,3.5534 -6.50013,10.3553 -7.70012,19.2719 -0.60158,4.4701 -1.93733,9.5108 -2.96833,11.2015 -2.17213,3.562 -2.54462,5.8624 -0.4955,3.0601 1.51061,-2.0659 1.61265,-1.7375 4.97547,16.0139 l 1.32607,7 -3.41767,6.8712 c -1.87972,3.7792 -5.59129,9.0449 -8.24795,11.7016 -3.72795,3.7279 -4.98921,5.8112 -5.52669,9.1287 -1.90877,11.7815 -11.59911,29.6304 -22.1707,40.8368 l -6.32506,6.7049 0.0439,10.3784 c 0.0241,5.7081 0.41015,13.5325 0.85776,17.3875 0.73857,6.3608 1.30464,7.6558 6.11942,14 6.02635,7.9406 14.27218,24.3436 18.50553,36.812 l 2.8644,8.4365 6.09968,0.4896 c 3.35482,0.2693 7.65434,1.2799 9.55449,2.2457 17.87824,9.0877 31.76039,36.635 32.25574,64.0071 l 0.19907,11 -2.59427,0.3014 -2.59427,0.3014 -0.63352,-10.8014 c -0.34843,-5.9408 -1.5634,-14.1764 -2.69993,-18.3014 -2.49819,-9.0671 -10.65984,-26.088 -14.9869,-31.2547 -7.22088,-8.6222 -17.11673,-12.7497 -25.50417,-10.6377 -5.3569,1.3489 -12.75052,7.5286 -15.53301,12.9827 -7.00432,13.7296 -6.33435,37.3584 1.49748,52.8138 l 2.58228,5.0959 -3.57217,0 c -3.33755,0 -3.72995,-0.3448 -5.97452,-5.25 z m -86.487,-39.1276 c 0,-0.2076 -0.7875,-0.9951 -1.75,-1.75 -1.58606,-1.2438 -1.62143,-1.2085 -0.37756,0.3776 1.30637,1.6658 2.12756,2.1955 2.12756,1.3724 z m 12.12756,-1.3724 c 1.24387,-1.5861 1.2085,-1.6214 -0.37756,-0.3776 -0.9625,0.7549 -1.75,1.5424 -1.75,1.75 0,0.8231 0.82119,0.2934 2.12756,-1.3724 z m -12.62756,-12.25 c 0.99549,-1.1 1.58498,-2 1.30998,-2 -0.275,0 -1.31449,0.9 -2.30998,2 -0.99549,1.1 -1.58497,2 -1.30997,2 0.275,0 1.31448,-0.9 2.30997,-2 z m 13.5,1.655 c 0,-0.1898 -1.0125,-1.2023 -2.25,-2.25 l -2.25,-1.905 1.90499,2.25 c 1.79022,2.1144 2.59501,2.7052 2.59501,1.905 z m 49.28212,-102.0196 c 3.81741,-1.6188 8.70276,-6.2684 22.36699,-21.2875 11.30743,-12.4286 11.24509,-12.2831 14.84463,-34.6522 1.82885,-11.3652 2.81296,-14.3022 5.92939,-17.6957 1.37226,-1.4943 2.75572,-4.8854 3.43891,-8.4294 0.62867,-3.2612 1.81689,-6.9578 2.64049,-8.2148 2.14359,-3.2715 1.88515,-8.0235 -1.52708,-28.0789 -4.51635,-26.5449 -10.44901,-49.2769 -12.86044,-49.2769 -0.4077,0 -3.75994,1.8206 -7.44942,4.0459 -3.68948,2.2252 -7.2181,3.7307 -7.84137,3.3455 -0.74642,-0.4614 -0.85383,-0.2483 -0.31468,0.624 0.59931,0.9697 0.35895,1.1481 -0.89743,0.666 -0.94379,-0.3622 -1.46735,-0.2562 -1.16346,0.2355 0.71026,1.1492 -10.49608,6.4253 -21.59615,10.1676 -11.09217,3.7397 -12.8192,3.658 -5.58928,-0.2646 3.16978,-1.7197 5.58481,-3.3052 5.36674,-3.5233 -0.21807,-0.218 -2.65215,-0.097 -5.40907,0.2685 -6.01036,0.7973 -15.7107,6.5884 -19.61911,11.7126 -1.71469,2.2481 -2.88409,5.3104 -3.26904,8.5606 -0.54799,4.627 -0.2024,5.836 4.03396,14.1123 2.54832,4.9784 4.6333,9.712 4.6333,10.5192 0,0.8071 0.5851,1.2429 1.30023,0.9685 1.03908,-0.3987 1.14107,1.0638 0.50778,7.2814 -1.0014,9.8318 -1.23935,37.3459 -0.34729,40.1566 0.89965,2.8345 4.30294,3.5373 11.26798,2.3269 9.07985,-1.578 8.49288,0.3128 -1.32983,4.2837 l -5.89887,2.3846 -2.86279,7.5177 -2.86279,7.5177 -5.63721,0.4036 c -3.10046,0.222 1.56279,0.3555 10.36279,0.2966 14.6314,-0.098 16.4063,-0.3072 20.75,-2.4463 3.19328,-1.5726 4.75,-2.9654 4.75,-4.25 0,-2.4684 1.63815,-2.4554 2.96482,0.024 1.35934,2.54 1.32437,2.7408 -0.60626,3.4816 -1.29726,0.4978 -1.40393,0.3437 -0.50868,-0.735 0.62302,-0.7507 0.85469,-1.643 0.51481,-1.9828 -0.33988,-0.3399 -1.58584,0.8182 -2.76881,2.5736 -3.22798,4.79 -9.07517,6.609 -21.45429,6.674 l -10.35841,0.054 0.68632,2.75 c 0.812,3.2536 3.29806,6.25 5.18549,6.25 1.50816,0 1.81539,1.5913 0.46801,2.424 -0.48236,0.2981 -1.40113,2.6235 -2.04173,5.1675 -1.0098,4.0103 -0.91969,5.0977 0.6775,8.1754 1.01321,1.9524 3.38747,4.3786 5.27612,5.3915 4.07517,2.1855 11.69104,2.4091 16.24723,0.477 z m -0.28212,-103.1682 c 0,-1.9146 5.71624,-8.2729 8.89844,-9.8978 7.43433,-3.7964 15.01572,-2.5873 21.4581,3.4221 4.39807,4.1025 4.54371,6.2997 0.23022,3.4734 -2.16061,-1.4157 -2.58676,-1.4544 -2.58676,-0.2349 0,2.1964 -3.33102,4.77 -6.17375,4.77 -2.9281,0 -5.86377,-2.8481 -6.09463,-5.9127 -0.10248,-1.3605 -0.65748,-1.946 -1.52807,-1.6119 -0.75192,0.2885 -1.9601,0.5246 -2.68485,0.5246 -0.72475,0 -3.61294,1.5446 -6.41821,3.4324 -3.39701,2.286 -5.10049,2.9656 -5.10049,2.0348 z m -7.97804,-20.2172 c 0.0121,-0.9625 0.86313,-3.6023 1.89123,-5.8662 1.80598,-3.9769 2.10144,-4.1614 8.72803,-5.4493 14.71707,-2.8604 27.2411,-1.1347 30.71277,4.232 3.08958,4.776 3.03716,4.7982 -12.35399,5.2498 -8.38002,0.2458 -17.03241,1.0768 -20.5,1.9689 -7.72016,1.9861 -8.5045,1.9736 -8.47804,-0.1352 z m -23.2603,93.0629 c -0.95609,-0.2503 -2.75609,-0.2593 -4,-0.02 -1.24391,0.2392 -0.46166,0.444 1.73834,0.4551 2.2,0.011 3.21775,-0.1846 2.26166,-0.4349 z m -6.76166,-5.0261 c -0.825,-0.3054 -2.175,-1.0574 -3,-1.6711 -1.30346,-0.9695 -1.32017,-0.8864 -0.12756,0.6343 0.75485,0.9625 2.10485,1.7145 3,1.671 1.36145,-0.066 1.38231,-0.1697 0.12756,-0.6342 z m -42.30701,-58.0178 c -0.25354,-0.9729 -0.47766,-0.419 -0.49804,1.231 -0.0204,1.65 0.18706,2.4461 0.46099,1.769 0.27392,-0.677 0.29059,-2.027 0.0371,-3 z m 18.52777,-3.2279 c 5.02551,-3.475 9.77924,-4.9158 9.77924,-2.964 0,1.8973 4.09393,5.9357 5.92431,5.8439 1.3497,-0.068 1.36056,-0.158 0.0757,-0.6304 -2.82946,-1.0404 -5,-3.6022 -5,-5.9012 0,-2.2629 -0.0674,-2.2769 -4.11017,-0.8505 -2.2606,0.7976 -5.94925,2.8026 -8.19701,4.4556 -5.27525,3.8795 -4.06843,3.9163 1.52794,0.047 z m 22.70075,0.3316 c 1.794,-2.2807 2.29835,-2.4529 3.82258,-1.3048 1.64084,1.2359 1.63971,1.1959 -0.0172,-0.6101 -1.74487,-1.9018 -1.80862,-1.8906 -4,0.7051 -1.22478,1.4507 -2.90187,2.872 -3.72687,3.1584 -1.21657,0.4224 -1.18304,0.5357 0.17742,0.5997 0.92258,0.043 2.60742,-1.1033 3.74409,-2.5483 z m -42.19678,-11.6048 c -0.22256,-1.7973 -0.40925,-0.5679 -0.41486,2.7321 -0.006,3.3 0.17648,4.7706 0.40466,3.2679 0.22817,-1.5026 0.23276,-4.2026 0.0102,-6 z m -0.007,-13.5041 c -0.2298,-1.5201 -0.42401,-0.5138 -0.43152,2.2362 -0.007,2.75 0.18056,3.9937 0.41792,2.7638 0.23736,-1.23 0.24351,-3.48 0.0136,-5 z m 8.66398,2.1843 c 0.34149,-0.89 0.17385,-1.2914 -0.39301,-0.941 -0.54365,0.336 -0.9885,1.0344 -0.9885,1.5519 0,1.4385 0.71677,1.1215 1.38156,-0.6109 z m 2.74605,-4.1981 c 1.24387,-1.5861 1.2085,-1.6214 -0.37756,-0.3776 -0.9625,0.7549 -1.75,1.5424 -1.75,1.75 0,0.8231 0.82119,0.2934 2.12756,-1.3724 z m 4.3989,-3.0569 c -0.30789,-0.3079 -1.11479,-6e-4 -1.79313,0.6828 -0.98026,0.9876 -0.8654,1.1025 0.5598,0.5598 0.98622,-0.3755 1.54122,-0.9347 1.23333,-1.2426 z m -14.84335,-2.3806 c -0.31922,-0.7977 -0.55618,-0.5608 -0.60416,0.6042 -0.0434,1.0541 0.19293,1.6448 0.52522,1.3125 0.33229,-0.3323 0.36782,-1.1948 0.0789,-1.9167 z m 46.31689,0.8099 c 0,-0.2076 -0.7875,-0.9951 -1.75,-1.75 -1.58606,-1.2438 -1.62143,-1.2085 -0.37756,0.3776 1.30637,1.6658 2.12756,2.1955 2.12756,1.3724 z m -13.25,-2.3117 c -0.9625,-0.2515 -2.5375,-0.2515 -3.5,0 -0.9625,0.2515 -0.175,0.4573 1.75,0.4573 1.925,0 2.7125,-0.2058 1.75,-0.4573 z m -19.25,-19.1464 c 1.1,-0.6069 1.43089,-1.1172 0.73532,-1.1339 -0.69558,-0.017 -2.74142,1.4321 -4.5463,3.2196 -1.80489,1.7875 -2.13578,2.2977 -0.73531,1.1338 1.40046,-1.1638 3.44629,-2.6126 4.54629,-3.2195 z m 14.25,-0.8536 c -0.9625,-0.2515 -2.5375,-0.2515 -3.5,0 -0.9625,0.2515 -0.175,0.4573 1.75,0.4573 1.925,0 2.7125,-0.2058 1.75,-0.4573 z m 5.97917,-0.9149 c -0.3323,-0.3323 -1.1948,-0.3678 -1.91667,-0.079 -0.79773,0.3193 -0.56078,0.5562 0.60417,0.6042 1.05416,0.043 1.64479,-0.1929 1.3125,-0.5252 z m 12,-3 c -0.3323,-0.3323 -1.1948,-0.3678 -1.91667,-0.079 -0.79773,0.3193 -0.56078,0.5562 0.60417,0.6042 1.05416,0.043 1.64479,-0.1929 1.3125,-0.5252 z m 27.27083,-4.9662 c 0,-0.275 -0.9,-0.018 -2,0.5704 -1.1,0.5887 -2,1.2954 -2,1.5704 0,0.275 0.9,0.018 2,-0.5704 1.1,-0.5887 2,-1.2954 2,-1.5704 z m 8.05383,-5.9909 c 1.89539,-1.9588 2.77117,-3.278 1.94617,-2.9316 -1.37999,0.5794 -6.63715,6.4929 -5.77223,6.4929 0.20895,0 1.93067,-1.6026 3.82606,-3.5613 z m -13.30383,217.8379 c 1.7875,-0.2218 4.7125,-0.2218 6.5,0 1.7875,0.2218 0.325,0.4033 -3.25,0.4033 -3.575,0 -5.0375,-0.1815 -3.25,-0.4033 z m -9.75,-1.2766 c 1.95837,-1.2656 3.28218,-1.2656 2.5,0 -0.33992,0.55 -1.37898,0.9931 -2.30902,0.9847 -1.45727,-0.013 -1.48367,-0.1493 -0.19098,-0.9847 z m -4.5,-1 c 0.33992,-0.55 1.06803,-1 1.61803,-1 0.55,0 0.72189,0.45 0.38197,1 -0.33992,0.55 -1.06803,1 -1.61803,1 -0.55,0 -0.72189,-0.45 -0.38197,-1 z m -3.5,-1.059 c 0,-0.5825 -0.45,-0.7809 -1,-0.441 -0.55,0.3399 -1,0.1415 -1,-0.441 0,-1.2266 0.26874,-1.2768 2.41821,-0.452 1.74472,0.6695 2.16374,2.393 0.58179,2.393 -0.55,0 -1,-0.4766 -1,-1.059 z m 156.46896,-193.2493 c 14.67645,-21.9763 20.61507,-36.9634 15.98749,-40.3472 -1.01129,-0.7395 -3.93072,-1.3445 -6.48762,-1.3445 -6.68572,0 -18.63073,-3.301 -26.76126,-7.3955 -15.13642,-7.6226 -27.06466,-21.0964 -31.71854,-35.8286 -2.16755,-6.8615 -2.48903,-9.7218 -2.48903,-22.146 0,-10.1244 0.46323,-15.844 1.59538,-19.6984 5.30095,-18.0472 21.09162,-34.0377 41.31296,-41.8359 12.77724,-4.9274 16.82695,-5.2345 64.09166,-4.8602 48.65117,0.3853 48.51837,0.369 63.5,7.8133 15.23253,7.5689 28.19912,20.9551 33.63311,34.7214 3.11962,7.9031 3.93993,33.0269 1.36729,41.8765 -6.25012,21.4997 -25.84475,38.9494 -50.91036,45.3375 -6.16907,1.5722 -11.15374,2.0159 -22.64846,2.0159 -14.52162,0 -14.82459,0.045 -20.59003,3.0756 -8.16432,4.2913 -25.43043,16.8502 -46.62576,33.9142 -9.91273,7.9806 -18.8214,15.1045 -19.79706,15.8308 -0.97565,0.7263 1.96745,-4.2817 6.54023,-11.1289 z m 15.61059,-94.3978 c 4.07863,-2.4093 6.26777,-7.5201 5.63308,-13.1511 -0.69063,-6.1272 -5.84718,-11.1446 -11.44794,-11.1391 -9.66979,0.01 -16.17312,10.4713 -11.78467,18.9577 3.44932,6.6702 11.30541,9.0506 17.59953,5.3325 z m 42.30557,-0.3822 c 3.40216,-2.6761 5.61488,-6.9762 5.61488,-10.9117 0,-6.761 -5.7198,-13.0104 -11.88486,-12.9853 -4.83347,0.02 -8.06628,1.7953 -10.92424,5.9999 -1.93218,2.8426 -2.28422,4.3962 -1.90875,8.4234 0.38209,4.0981 1.07506,5.5012 4.07443,8.25 4.46005,4.0873 10.73817,4.5985 15.02854,1.2237 z m 42.52009,-0.4854 c 4.07187,-3.4262 5.79118,-9.1586 4.2699,-14.2362 -1.66303,-5.5507 -5.15708,-8.3859 -11.03011,-8.9502 -4.50942,-0.4333 -5.23014,-0.1888 -8.63117,2.928 -3.03383,2.7803 -3.81094,4.2885 -4.25926,8.2659 -0.9624,8.5384 4.11819,14.4867 12.4187,14.5396 3.05035,0.019 4.99629,-0.6659 7.23194,-2.5471 z"
                     id="path4942" />
                  <path
                     style="fill:#9b9d9e"
                     d="m -301.57532,1556.1578 c -7.63655,-16.6886 -7.8252,-40.3659 -0.43702,-54.848 2.70185,-5.296 8.94583,-12.0463 13.32362,-14.4039 l 3.44425,-1.8548 -3.02496,-8.5717 c -3.13737,-8.8902 -10.99845,-25.4207 -13.36992,-28.1146 -1.5644,-1.7771 -4.75613,-13.4575 -4.16331,-15.236 0.69924,-2.0977 9.85214,11.4211 15.21418,22.4713 2.85361,5.8808 6.47736,14.4888 8.05278,19.1288 l 2.8644,8.4365 6.09968,0.4896 c 3.35482,0.2693 7.65434,1.2799 9.55449,2.2457 17.87824,9.0878 31.76039,36.635 32.25574,64.0071 l 0.19907,11 -2.59427,0.3014 -2.59427,0.3014 -0.63352,-10.8014 c -0.34843,-5.9408 -1.5634,-14.1764 -2.69993,-18.3014 -2.49819,-9.0671 -10.65984,-26.088 -14.9869,-31.2547 -7.22088,-8.6222 -17.11673,-12.7497 -25.50417,-10.6377 -5.3569,1.3489 -12.75052,7.5286 -15.53301,12.9827 -7.00432,13.7296 -6.33435,37.3584 1.49748,52.8138 l 2.58228,5.0959 -3.57217,0 c -3.33755,0 -3.72995,-0.3448 -5.97452,-5.25 z m -86.58679,-34.8837 c -4.47651,-2.5962 -6.90021,-6.5724 -6.90021,-11.3203 0,-6.5564 4.69968,-12.382 10.21482,-12.662 1.89072,-0.096 1.96045,-0.1993 0.40397,-0.5986 -1.74642,-0.448 -1.84637,-1.3532 -1.39501,-12.634 0.42343,-10.5827 0.95848,-13.5551 4.14467,-23.0246 5.0212,-14.9232 14.27072,-32.321 16.17244,-30.4192 1.23444,1.2344 -1.2812,11.1732 -4.88321,19.2924 -5.49939,12.3961 -8.69323,24.6935 -9.3498,36 l -0.5807,10 3.64325,1.7371 c 9.69914,4.6245 10.13896,19.3454 0.72345,24.2144 -4.05475,2.0967 -7.88639,1.9129 -12.19367,-0.5852 z m 0.0998,-4.2439 c 0,-0.2076 -0.7875,-0.9951 -1.75,-1.75 -1.58606,-1.2438 -1.62143,-1.2085 -0.37756,0.3776 1.30637,1.6658 2.12756,2.1955 2.12756,1.3724 z m 12.12756,-1.3724 c 1.24387,-1.5861 1.2085,-1.6214 -0.37756,-0.3776 -0.9625,0.7549 -1.75,1.5424 -1.75,1.75 0,0.8231 0.82119,0.2934 2.12756,-1.3724 z m -12.62756,-12.25 c 0.99549,-1.1 1.58498,-2 1.30998,-2 -0.275,0 -1.31449,0.9 -2.30998,2 -0.99549,1.1 -1.58497,2 -1.30997,2 0.275,0 1.31448,-0.9 2.30997,-2 z m 13.5,1.655 c 0,-0.1898 -1.0125,-1.2023 -2.25,-2.25 l -2.25,-1.905 1.90499,2.25 c 1.79022,2.1144 2.59501,2.7052 2.59501,1.905 z m 36.75,-49.3784 c 1.7875,-0.2218 4.7125,-0.2218 6.5,0 1.7875,0.2218 0.325,0.4033 -3.25,0.4033 -3.575,0 -5.0375,-0.1815 -3.25,-0.4033 z m -9.9375,-0.9597 c 0.72187,-0.2889 1.58437,-0.2534 1.91667,0.079 0.33229,0.3323 -0.25834,0.5686 -1.3125,0.5252 -1.16495,-0.048 -1.4019,-0.2849 -0.60417,-0.6042 z m 25,0 c 0.72187,-0.2889 1.58437,-0.2534 1.91667,0.079 0.33229,0.3323 -0.25834,0.5686 -1.3125,0.5252 -1.16495,-0.048 -1.4019,-0.2849 -0.60417,-0.6042 z m -40.12007,-83.3599 c -5.16133,-0.8671 -7.69243,-2.3739 -7.69243,-4.5794 0,-1.884 2.01791,-1.7354 3.47386,0.2558 1.51697,2.0745 8.54358,3.2311 20.09248,3.307 10.86274,0.071 19.67041,-1.3872 24.43366,-4.0463 l 3.5,-1.9539 -3.14873,2.9253 c -1.96504,1.8256 -5.08493,3.3406 -8.29922,4.0299 -5.81546,1.2472 -25.08466,1.2839 -32.35962,0.062 z m 11.55757,-23.0567 c -2.53903,-2.6412 -0.12988,-42.6636 2.88336,-47.9003 0.50967,-0.8858 0.57973,0.3427 0.17107,3 -0.38062,2.475 -0.71733,12.6404 -0.74823,22.5897 -0.0693,22.3235 -0.28322,21.8899 10.42173,21.1319 5.20025,-0.3683 6.77892,-0.2451 5.11447,0.3989 -4.36815,1.6903 -16.45915,2.2187 -17.8424,0.7798 z m -61.99107,-42.6503 c -8.86621,-13.2034 -13.30326,-25.2736 -16.28593,-44.3031 l -1.18388,-7.5531 4.07257,-6.3011 c 7.28975,-11.2787 9.92398,-22.2658 7.11174,-29.6626 -1.25758,-3.3077 -0.28725,-4.9738 7.17743,-12.3247 14.09138,-13.8764 43.7653,-28.9088 66.22272,-33.5475 7.94893,-1.6419 26.22627,-2.0984 28.41512,-0.7097 0.80769,0.5125 -1.29536,1.2795 -5.63441,2.0549 -3.8077,0.6805 -9.50905,2.4538 -12.66966,3.9408 l -5.74657,2.7035 20.38097,0.04 c 22.28743,0.044 29.64551,1.2866 41.03508,6.9308 6.01384,2.9803 14.84102,8.6732 14.84396,9.5734 10e-4,0.3255 -1.74469,1.115 -3.87944,1.7546 -7.18482,2.1526 -7.16192,3.0396 0.36668,14.205 10.20787,15.1387 14.4379,27.9864 14.49488,44.0244 0.0165,4.6385 -0.39191,5.9625 -2.42971,7.8769 -3.7112,3.4865 -6.45678,10.229 -7.64552,18.7757 -0.63432,4.5606 -2.02067,9.3438 -3.40128,11.7351 -1.28179,2.2201 -2.89071,5.9491 -3.57539,8.2866 -0.68468,2.3375 -1.51114,4.2498 -1.83658,4.2495 -0.32544,-3e-4 -1.3736,-5.5906 -2.32925,-12.4228 -3.72627,-26.6404 -11.22342,-58.0489 -14.12162,-59.161 -0.68067,-0.2612 -5.04082,1.3055 -9.68921,3.4816 -15.29894,7.1619 -33.40551,12.1958 -43.2896,12.035 -3.80825,-0.062 -3.94953,-0.1533 -1.66203,-1.075 9.72308,-3.9179 24,-13.2959 24,-15.7647 0,-0.4387 -6.4125,1.6364 -14.25,4.6112 -22.62699,8.5884 -36.67158,12.3706 -48.25,12.9938 l -10,0.5382 -4.17293,4.0147 c -8.13951,7.8308 -11.47194,20.3539 -10.71051,40.2495 0.2105,5.5 0.62827,11.4625 0.92839,13.25 0.30012,1.7875 0.17949,3.25 -0.26807,3.25 -0.44756,0 -3.15564,-3.4875 -6.01795,-7.75 z m 20.74107,2.0663 c 0,-1.9236 5.22198,-7.8999 8.79042,-10.0602 7.39194,-4.4752 19.29968,-2.1514 24.19346,4.7213 2.36028,3.3147 1.68422,3.8793 -1.75804,1.4682 -2.09294,-1.4659 -2.286,-1.4077 -3.39395,1.024 -2.33825,5.1319 -10.3516,4.1819 -11.45969,-1.3586 -0.52342,-2.6171 -0.85529,-2.8328 -3.28563,-2.1358 -2.95485,0.8474 -7.31957,3.1237 -10.83657,5.6516 -1.2375,0.8894 -2.25,1.1997 -2.25,0.6895 z m 85.22251,-7.873 c -1.2655,-0.8864 -2.22251,-2.6088 -2.22251,-4 0,-1.3438 -0.5625,-2.4334 -1.25,-2.4213 -1.89181,0.033 -9.97621,3.8727 -11.98815,5.6935 -3.14498,2.8462 -3.19944,0.3932 -0.077,-3.47 4.39059,-5.4323 8.78407,-7.6888 14.80125,-7.6018 5.80353,0.084 9.76115,1.86 13.94103,6.2566 3.39571,3.5717 2.91867,5.0276 -0.84034,2.5646 -1.55569,-1.0193 -2.58679,-1.2505 -2.58679,-0.5799 0,1.7439 -3.8077,5.115 -5.77749,5.115 -0.97763,0 -2.77763,-0.7005 -4,-1.5567 z m -91.22251,-12.7499 c 0,-3.9093 4.4391,-8.335 10.7915,-10.7592 4.42117,-1.6871 8.06353,-2.2072 16.15162,-2.3063 l 10.44312,-0.1279 2.30688,3.3979 c 4.35132,6.4092 3.62835,7.1003 -7.44312,7.1152 -8.47199,0.011 -21.22618,1.9467 -30,4.552 -1.91813,0.5696 -2.25,0.2935 -2.25,-1.8717 z m 65.63864,-6.4691 c -0.90028,-1.4567 1.20308,-7.7711 3.1865,-9.566 2.44719,-2.2147 10.67216,-3.6583 20.84347,-3.6583 9.2794,0 14.1652,1.4969 16.7007,5.1169 3.1524,4.5006 2.42885,4.8831 -9.23832,4.8831 -9.56188,0 -25.01253,1.8661 -29.40438,3.5514 -0.83837,0.3217 -1.77796,0.1745 -2.08797,-0.3271 z m 133.83032,-21.5326 c 14.67645,-21.9763 20.61507,-36.9634 15.98749,-40.3472 -1.01129,-0.7395 -3.93072,-1.3445 -6.48762,-1.3445 -6.68572,0 -18.63073,-3.301 -26.76126,-7.3955 -15.13642,-7.6225 -27.06466,-21.0964 -31.71854,-35.8286 -2.16755,-6.8615 -2.48903,-9.7218 -2.48903,-22.146 0,-10.1244 0.46323,-15.844 1.59538,-19.6984 5.30095,-18.0472 21.09162,-34.0377 41.31296,-41.8359 12.77724,-4.9274 16.82695,-5.2345 64.09166,-4.8602 48.65117,0.3853 48.51837,0.369 63.5,7.8133 15.23253,7.5689 28.19912,20.9551 33.63311,34.7214 3.11962,7.9031 3.93993,33.0269 1.36729,41.8765 -6.25012,21.4997 -25.84475,38.9494 -50.91036,45.3375 -6.16907,1.5722 -11.15374,2.0159 -22.64846,2.0159 -14.52162,0 -14.82459,0.045 -20.59003,3.0756 -8.16432,4.2913 -25.43043,16.8502 -46.62576,33.9142 -9.91273,7.9806 -18.8214,15.1045 -19.79706,15.8308 -0.97565,0.7263 1.96745,-4.2817 6.54023,-11.1289 z m 15.61059,-94.3978 c 4.07863,-2.4093 6.26777,-7.5201 5.63308,-13.1511 -0.69063,-6.1272 -5.84718,-11.1446 -11.44794,-11.1391 -9.66979,0.01 -16.17312,10.4713 -11.78467,18.9577 3.44932,6.6702 11.30541,9.0506 17.59953,5.3325 z m 42.30557,-0.3822 c 3.40216,-2.6761 5.61488,-6.9762 5.61488,-10.9117 0,-6.761 -5.7198,-13.0104 -11.88486,-12.9853 -4.83347,0.02 -8.06628,1.7953 -10.92424,5.9999 -1.93218,2.8426 -2.28422,4.3962 -1.90875,8.4234 0.38209,4.0981 1.07506,5.5012 4.07443,8.25 4.46005,4.0873 10.73817,4.5985 15.02854,1.2237 z m 42.52009,-0.4854 c 4.07187,-3.4262 5.79118,-9.1586 4.2699,-14.2362 -1.66303,-5.5507 -5.15708,-8.3859 -11.03011,-8.9502 -4.50942,-0.4333 -5.23014,-0.1888 -8.63117,2.928 -3.03383,2.7803 -3.81094,4.2885 -4.25926,8.2659 -0.9624,8.5384 4.11819,14.4867 12.4187,14.5396 3.05035,0.019 4.99629,-0.6659 7.23194,-2.5471 z"
                     id="path4940" />
                  <path
                     style="fill:#4785af"
                     d="m -301.46322,1556.1578 c -6.78773,-15.5557 -7.80998,-37.2436 -2.36533,-50.1824 4.02524,-9.5656 8.46905,-14.7546 17.18602,-20.0676 1.49466,-0.911 1.4127,-1.6741 -0.92089,-8.5744 -2.26936,-6.7104 -4.57374,-11.6171 -14.75864,-31.4256 -1.41396,-2.75 -2.87374,-6.8 -3.24396,-9 l -0.67311,-4 2.67152,2.5 c 6.00366,5.6182 13.65077,19.9972 20.39005,38.3397 l 3.61524,9.8398 5.09091,0.2641 c 14.31941,0.7429 26.8258,12.7031 35.8741,34.3072 4.23617,10.1145 6.04978,18.1047 6.98383,30.7688 0.76828,10.4164 0.26292,12.4804 -3.05583,12.4804 -2.32238,0 -2.39301,-0.2335 -2.39301,-7.912 0,-31.4373 -19.61149,-64.0326 -38.55366,-64.0782 -5.49755,-0.013 -13.67755,4.2317 -17.53174,9.098 -5.37301,6.784 -7.17258,12.9726 -7.68407,26.4249 -0.51593,13.5695 0.83417,20.9581 5.6129,30.7173 l 2.81557,5.75 -3.38453,0 c -3.12536,0 -3.55995,-0.402 -5.67537,-5.25 z m -87.68665,-36.03 c -6.90781,-4.6552 -8.00284,-12.4684 -2.57721,-18.3887 2.8931,-3.157 4.06491,-3.6999 8.83935,-4.0959 5.0711,-0.4205 5.78963,-0.2057 9.13377,2.7305 6.1234,5.3764 6.2147,12.711 0.2327,18.693 -2.78749,2.7875 -4.07872,3.3411 -7.79318,3.3411 -2.97844,0 -5.57201,-0.7547 -7.83543,-2.28 z m 10.49231,-1.8586 c 3.16698,-1.4429 5.97787,-7.2008 5.14171,-10.5323 -2.45674,-9.7884 -16.65562,-9.711 -19.11908,0.1042 -1.89041,7.532 6.53596,13.8187 13.97737,10.4281 z m -7.13779,-33.1114 c 0.571,-11.7666 3.15321,-22.6222 8.34048,-35.0633 2.97665,-7.1392 10.44424,-19.6867 11.71645,-19.6867 1.21718,0 -0.30133,10.0323 -1.88838,12.4758 -2.47668,3.8133 -7.63413,17.853 -10.03495,27.3173 -1.58934,6.2654 -2.40057,12.2925 -2.40057,17.8351 l 0,8.3718 -3.13948,0 -3.13949,0 0.54594,-11.25 z m 22.42546,-113.793 c -5.16133,-0.8671 -7.69243,-2.3739 -7.69243,-4.5794 0,-1.884 2.01791,-1.7354 3.47386,0.2558 1.51697,2.0745 8.54358,3.2311 20.09248,3.307 10.86274,0.071 19.67041,-1.3872 24.43366,-4.0463 l 3.5,-1.9539 -3.14873,2.9253 c -1.96504,1.8256 -5.08493,3.3406 -8.29922,4.0299 -5.81546,1.2472 -25.08466,1.2839 -32.35962,0.062 z m 11.55757,-23.0567 c -2.53903,-2.6412 -0.12988,-42.6636 2.88336,-47.9003 0.50967,-0.8858 0.57973,0.3427 0.17107,3 -0.38062,2.475 -0.71733,12.6404 -0.74823,22.5897 -0.0693,22.3235 -0.28322,21.8899 10.42173,21.1319 5.20025,-0.3683 6.77892,-0.2451 5.11447,0.3989 -4.36815,1.6903 -16.45915,2.2187 -17.8424,0.7798 z m -61.93858,-42.6503 c -8.56522,-12.8851 -12.68812,-24.1257 -15.68022,-42.75 l -1.4459,-9 4.37455,-7.0313 c 7.10009,-11.4121 8.81937,-18.3756 7.09966,-28.7554 l -0.79306,-4.7866 6.81678,-6.7731 c 19.70644,-19.5801 59.1334,-36.377 84.69776,-36.0833 9.37073,0.1076 11.02986,1.3143 3.68514,2.6802 -6.38464,1.1874 -17.06725,5.5345 -17.06463,6.9442 8.2e-4,0.4429 9.78832,0.8137 21.75,0.824 l 21.7485,0.019 9.23792,3.2082 c 12.70961,4.4139 26.52454,13.2544 20.71242,13.2544 -2.64743,0 -7.45034,2.9724 -7.45034,4.6109 0,0.8577 3.09703,6.191 6.88229,11.8517 10.0484,15.0271 12.79667,23.3308 13.19434,39.8656 0.19737,8.2066 0.0464,8.934 -2.37933,11.4671 -3.83597,4.0057 -6.50914,10.8803 -7.28518,18.7351 -0.42996,4.3519 -1.54311,8.472 -2.96377,10.9696 -1.25136,2.2 -2.83538,5.9125 -3.52006,8.25 -0.68468,2.3375 -1.51114,4.2498 -1.83658,4.2495 -0.32544,-3e-4 -1.3736,-5.5906 -2.32925,-12.4228 -3.72627,-26.6404 -11.22342,-58.0489 -14.12162,-59.161 -0.68067,-0.2612 -5.04082,1.3055 -9.68921,3.4816 -15.29894,7.1619 -33.40551,12.1958 -43.2896,12.035 -3.80825,-0.062 -3.94953,-0.1533 -1.66203,-1.075 9.72308,-3.9179 24,-13.2958 24,-15.7647 0,-0.4387 -6.4125,1.6364 -14.25,4.6112 -22.62699,8.5884 -36.67158,12.3706 -48.25,12.9938 l -10,0.5382 -4.17293,4.0147 c -8.13951,7.8308 -11.47194,20.3539 -10.71051,40.2495 0.2105,5.5 0.62827,11.4625 0.92839,13.25 0.30012,1.7875 0.17949,3.25 -0.26807,3.25 -0.44756,0 -3.13202,-3.4875 -5.96546,-7.75 z m 20.68858,2.0663 c 0,-1.9236 5.22198,-7.8999 8.79042,-10.0602 7.39194,-4.4752 19.29968,-2.1514 24.19346,4.7213 2.36028,3.3147 1.68422,3.8793 -1.75804,1.4682 -2.09294,-1.4659 -2.286,-1.4077 -3.39395,1.024 -2.33825,5.1319 -10.3516,4.1819 -11.45969,-1.3586 -0.52342,-2.6171 -0.85529,-2.8328 -3.28563,-2.1358 -2.95485,0.8474 -7.31957,3.1237 -10.83657,5.6516 -1.2375,0.8894 -2.25,1.1997 -2.25,0.6895 z m 85.22251,-7.873 c -1.2655,-0.8864 -2.22251,-2.6088 -2.22251,-4 0,-1.3438 -0.5625,-2.4334 -1.25,-2.4213 -1.89181,0.033 -9.97621,3.8727 -11.98815,5.6935 -3.14498,2.8462 -3.19944,0.3932 -0.077,-3.47 4.39059,-5.4323 8.78407,-7.6888 14.80125,-7.6018 5.80353,0.084 9.76115,1.86 13.94103,6.2566 3.39571,3.5717 2.91867,5.0276 -0.84034,2.5646 -1.55569,-1.0193 -2.58679,-1.2505 -2.58679,-0.5799 0,1.7439 -3.8077,5.115 -5.77749,5.115 -0.97763,0 -2.77763,-0.7005 -4,-1.5567 z m -91.22251,-12.7499 c 0,-3.9093 4.4391,-8.335 10.7915,-10.7592 4.42117,-1.6871 8.06353,-2.2072 16.15162,-2.3063 l 10.44312,-0.1279 2.30688,3.3979 c 4.35132,6.4092 3.62835,7.1003 -7.44312,7.1152 -8.47199,0.011 -21.22618,1.9467 -30,4.552 -1.91813,0.5696 -2.25,0.2935 -2.25,-1.8717 z m 65.63864,-6.4691 c -0.90028,-1.4567 1.20308,-7.7711 3.1865,-9.566 2.44719,-2.2147 10.67216,-3.6583 20.84347,-3.6583 9.2794,0 14.1652,1.4969 16.7007,5.1169 3.1524,4.5006 2.42885,4.8831 -9.23832,4.8831 -9.56188,0 -25.01253,1.8661 -29.40438,3.5514 -0.83837,0.3217 -1.77796,0.1745 -2.08797,-0.3271 z m 133.83032,-21.5326 c 14.67645,-21.9763 20.61507,-36.9634 15.98749,-40.3472 -1.01129,-0.7395 -3.93072,-1.3445 -6.48762,-1.3445 -6.68572,0 -18.63073,-3.301 -26.76126,-7.3955 -15.13642,-7.6225 -27.06466,-21.0964 -31.71854,-35.8286 -2.16755,-6.8615 -2.48903,-9.7218 -2.48903,-22.146 0,-10.1244 0.46323,-15.844 1.59538,-19.6984 5.30095,-18.0472 21.09162,-34.0377 41.31296,-41.8359 12.77724,-4.9274 16.82695,-5.2345 64.09166,-4.8602 48.65117,0.3853 48.51837,0.369 63.5,7.8133 15.23253,7.5689 28.19912,20.9551 33.63311,34.7214 3.11962,7.9031 3.93993,33.0269 1.36729,41.8765 -6.25012,21.4997 -25.84475,38.9494 -50.91036,45.3375 -6.16907,1.5722 -11.15374,2.0159 -22.64846,2.0159 -14.52162,0 -14.82459,0.045 -20.59003,3.0756 -8.16432,4.2913 -25.43043,16.8502 -46.62576,33.9142 -9.91273,7.9806 -18.8214,15.1045 -19.79706,15.8308 -0.97565,0.7263 1.96745,-4.2817 6.54023,-11.1289 z m 15.61059,-94.3978 c 4.07863,-2.4093 6.26777,-7.5201 5.63308,-13.1511 -0.69063,-6.1272 -5.84718,-11.1446 -11.44794,-11.1391 -9.66979,0.01 -16.17312,10.4713 -11.78467,18.9577 3.44932,6.6702 11.30541,9.0506 17.59953,5.3325 z m 42.30557,-0.3822 c 3.40216,-2.6761 5.61488,-6.9762 5.61488,-10.9117 0,-6.761 -5.7198,-13.0104 -11.88486,-12.9853 -4.83347,0.02 -8.06628,1.7953 -10.92424,5.9999 -1.93218,2.8426 -2.28422,4.3962 -1.90875,8.4234 0.38209,4.0981 1.07506,5.5012 4.07443,8.25 4.46005,4.0873 10.73817,4.5985 15.02854,1.2237 z m 42.52009,-0.4854 c 4.07187,-3.4262 5.79118,-9.1586 4.2699,-14.2362 -1.66303,-5.5507 -5.15708,-8.3859 -11.03011,-8.9502 -4.50942,-0.4333 -5.23014,-0.1888 -8.63117,2.928 -3.03383,2.7803 -3.81094,4.2885 -4.25926,8.2659 -0.9624,8.5384 4.11819,14.4867 12.4187,14.5396 3.05035,0.019 4.99629,-0.6659 7.23194,-2.5471 z"
                     id="path4938" />
                  <path
                     style="fill:#b56939"
                     d="m -301.49383,1556.1578 c -4.15118,-9.388 -5.86592,-19.711 -5.33169,-32.0976 0.82694,-19.1734 6.43384,-29.7722 20.18299,-38.1524 1.49339,-0.9102 1.40429,-1.6991 -0.99254,-8.7875 -1.44827,-4.2832 -5.112,-12.6082 -8.14162,-18.5 -3.02963,-5.8919 -6.3155,-12.2875 -7.30194,-14.2125 -0.98644,-1.925 -2.1011,-5.3 -2.47702,-7.5 l -0.68348,-4 2.67152,2.5 c 6.00366,5.6182 13.65077,19.9972 20.39005,38.3397 l 3.61524,9.8398 5.09091,0.2641 c 14.31941,0.7429 26.8258,12.7031 35.8741,34.3072 4.23617,10.1145 6.04978,18.1047 6.98383,30.7688 0.76828,10.4164 0.26292,12.4804 -3.05583,12.4804 -2.32238,0 -2.39301,-0.2335 -2.39301,-7.912 0,-31.4373 -19.61149,-64.0326 -38.55366,-64.0782 -5.49755,-0.013 -13.67755,4.2317 -17.53174,9.098 -5.37301,6.784 -7.17258,12.9726 -7.68407,26.4249 -0.51593,13.5695 0.83417,20.9581 5.6129,30.7173 l 2.81557,5.75 -3.38453,0 c -3.12147,0 -3.56496,-0.408 -5.70598,-5.25 z m -87.65604,-36.03 c -6.90781,-4.6552 -8.00284,-12.4684 -2.57721,-18.3887 2.8931,-3.157 4.06491,-3.6999 8.83935,-4.0959 5.0711,-0.4205 5.78963,-0.2057 9.13377,2.7305 6.1234,5.3764 6.2147,12.711 0.2327,18.693 -2.78749,2.7875 -4.07872,3.3411 -7.79318,3.3411 -2.97844,0 -5.57201,-0.7547 -7.83543,-2.28 z m 10.49231,-1.8586 c 3.16698,-1.4429 5.97787,-7.2008 5.14171,-10.5323 -2.45674,-9.7884 -16.65562,-9.711 -19.11908,0.1042 -1.89041,7.532 6.53596,13.8187 13.97737,10.4281 z m -7.13779,-33.1114 c 0.571,-11.7666 3.15321,-22.6222 8.34048,-35.0633 2.97665,-7.1392 10.44424,-19.6867 11.71645,-19.6867 1.21718,0 -0.30133,10.0323 -1.88838,12.4758 -2.47668,3.8133 -7.63413,17.853 -10.03495,27.3173 -1.58934,6.2654 -2.40057,12.2925 -2.40057,17.8351 l 0,8.3718 -3.13948,0 -3.13949,0 0.54594,-11.25 z m 22.42546,-113.793 c -5.16133,-0.8671 -7.69243,-2.3739 -7.69243,-4.5794 0,-1.884 2.01791,-1.7354 3.47386,0.2558 1.51697,2.0745 8.54358,3.2311 20.09248,3.307 10.86274,0.071 19.67041,-1.3872 24.43366,-4.0463 l 3.5,-1.9539 -3.14873,2.9253 c -1.96504,1.8256 -5.08493,3.3406 -8.29922,4.0299 -5.81546,1.2472 -25.08466,1.2839 -32.35962,0.062 z m 11.55757,-23.0567 c -2.53903,-2.6412 -0.12988,-42.6636 2.88336,-47.9003 0.50967,-0.8858 0.57973,0.3427 0.17107,3 -0.38062,2.475 -0.71733,12.6404 -0.74823,22.5897 -0.0693,22.3235 -0.28322,21.8899 10.42173,21.1319 5.20025,-0.3683 6.77892,-0.2451 5.11447,0.3989 -4.36815,1.6903 -16.45915,2.2187 -17.8424,0.7798 z m -61.93858,-42.6503 c -8.56522,-12.8851 -12.68812,-24.1257 -15.68022,-42.75 l -1.4459,-9 4.37455,-7.0313 c 7.10009,-11.4121 8.81937,-18.3756 7.09966,-28.7554 l -0.79306,-4.7866 6.81678,-6.7731 c 19.70644,-19.5801 59.1334,-36.377 84.69776,-36.0833 9.37073,0.1076 11.02986,1.3143 3.68514,2.6802 -6.38464,1.1874 -17.06725,5.5345 -17.06463,6.9442 8.2e-4,0.4429 9.78832,0.8137 21.75,0.824 l 21.7485,0.019 9.23792,3.2082 c 12.70961,4.4139 26.52454,13.2544 20.71242,13.2544 -2.64743,0 -7.45034,2.9724 -7.45034,4.6109 0,0.8577 3.09703,6.191 6.88229,11.8517 10.0484,15.0271 12.79667,23.3308 13.19434,39.8656 0.19737,8.2066 0.0464,8.934 -2.37933,11.4671 -3.83597,4.0057 -6.50914,10.8803 -7.28518,18.7351 -0.42996,4.3519 -1.54311,8.472 -2.96377,10.9696 -1.25136,2.2 -2.83538,5.9125 -3.52006,8.25 -0.68468,2.3375 -1.51114,4.2498 -1.83658,4.2495 -0.32544,-3e-4 -1.3736,-5.5906 -2.32925,-12.4228 -3.72627,-26.6404 -11.22342,-58.0489 -14.12162,-59.161 -0.68067,-0.2612 -5.04082,1.3055 -9.68921,3.4816 -15.29894,7.1619 -33.40551,12.1958 -43.2896,12.035 -3.80825,-0.062 -3.94953,-0.1533 -1.66203,-1.075 9.72308,-3.9179 24,-13.2958 24,-15.7647 0,-0.4387 -6.4125,1.6364 -14.25,4.6112 -22.62699,8.5884 -36.67158,12.3706 -48.25,12.9938 l -10,0.5382 -4.17293,4.0147 c -8.13951,7.8308 -11.47194,20.3539 -10.71051,40.2495 0.2105,5.5 0.62827,11.4625 0.92839,13.25 0.30012,1.7875 0.17949,3.25 -0.26807,3.25 -0.44756,0 -3.13202,-3.4875 -5.96546,-7.75 z m 20.68858,2.0663 c 0,-1.9236 5.22198,-7.8999 8.79042,-10.0602 7.39194,-4.4752 19.29968,-2.1514 24.19346,4.7213 2.36028,3.3147 1.68422,3.8793 -1.75804,1.4682 -2.09294,-1.4659 -2.286,-1.4077 -3.39395,1.024 -2.33825,5.1319 -10.3516,4.1819 -11.45969,-1.3586 -0.52342,-2.6171 -0.85529,-2.8328 -3.28563,-2.1358 -2.95485,0.8474 -7.31957,3.1237 -10.83657,5.6516 -1.2375,0.8894 -2.25,1.1997 -2.25,0.6895 z m 85.22251,-7.873 c -1.2655,-0.8864 -2.22251,-2.6088 -2.22251,-4 0,-1.3438 -0.5625,-2.4334 -1.25,-2.4213 -1.89181,0.033 -9.97621,3.8727 -11.98815,5.6935 -3.14498,2.8462 -3.19944,0.3932 -0.077,-3.47 4.39059,-5.4323 8.78407,-7.6888 14.80125,-7.6018 5.80353,0.084 9.76115,1.86 13.94103,6.2566 3.39571,3.5717 2.91867,5.0276 -0.84034,2.5646 -1.55569,-1.0193 -2.58679,-1.2505 -2.58679,-0.5799 0,1.7439 -3.8077,5.115 -5.77749,5.115 -0.97763,0 -2.77763,-0.7005 -4,-1.5567 z m -91.22251,-12.7499 c 0,-3.9093 4.4391,-8.335 10.7915,-10.7592 4.42117,-1.6871 8.06353,-2.2072 16.15162,-2.3063 l 10.44312,-0.1279 2.30688,3.3979 c 4.35132,6.4092 3.62835,7.1003 -7.44312,7.1152 -8.47199,0.011 -21.22618,1.9467 -30,4.552 -1.91813,0.5696 -2.25,0.2935 -2.25,-1.8717 z m 65.63864,-6.4691 c -0.90028,-1.4567 1.20308,-7.7711 3.1865,-9.566 2.44719,-2.2147 10.67216,-3.6583 20.84347,-3.6583 9.2794,0 14.1652,1.4969 16.7007,5.1169 3.1524,4.5006 2.42885,4.8831 -9.23832,4.8831 -9.56188,0 -25.01253,1.8661 -29.40438,3.5514 -0.83837,0.3217 -1.77796,0.1745 -2.08797,-0.3271 z m 218.97624,-115.3126 c -8.02373,-6.3115 -7.30253,-19.9191 1.29124,-24.3632 1.64701,-0.8517 3.57941,-1.5386 4.29422,-1.5265 0.71481,0.012 -0.583,0.8767 -2.88402,1.9214 -4.9634,2.2534 -7.31785,6.1998 -7.31258,12.2569 0.005,5.4017 2.98675,10.4568 7.26595,12.3171 1.77667,0.7724 2.5035,1.4219 1.61517,1.4435 -0.88833,0.022 -2.80982,-0.9006 -4.26998,-2.0492 z m -85.71367,-2.0175 c -1.59567,-1.7081 -2.89824,-3.6206 -2.89462,-4.25 0.004,-0.6293 0.82723,0.1003 1.83024,1.6214 1.003,1.5211 2.68754,3.4193 3.74341,4.2182 1.05587,0.7989 1.5378,1.4669 1.07097,1.4844 -0.46683,0.017 -2.15433,-1.3658 -3.75,-3.074 z m 16.882,1.5451 c 3.18479,-2.2307 5.21679,-6.6927 5.21679,-11.4554 0,-4.8783 -1.23998,-7.6487 -4.8442,-10.8227 -2.37016,-2.0873 -2.40805,-2.2149 -0.35229,-1.1862 5.20646,2.6052 7.99044,12.6733 5.07153,18.3407 -1.54519,3.0002 -5.00198,6.6843 -6.27186,6.6843 -0.57651,0 -0.0455,-0.7023 1.18003,-1.5607 z m 26.43358,0 c -3.29405,-2.3073 -5.2376,-6.7809 -5.05675,-11.6396 0.14658,-3.9382 0.19029,-4.0054 0.51994,-0.7997 0.65938,6.4123 1.41133,8.2829 4.48305,11.1523 3.39518,3.1716 3.4148,3.6411 0.0538,1.287 z m 16.47593,-1.132 c 3.21121,-3.0201 3.96438,-4.8605 4.6273,-11.3073 0.31197,-3.0338 0.38072,-2.9006 0.5162,1 0.17654,5.0827 -2.34726,10.1411 -6.03271,12.0912 -1.71449,0.9072 -1.48711,0.4511 0.88921,-1.7839 z m 42.06609,-0.22 c 1.78266,-1.7826 3.24119,-3.7315 3.24119,-4.3309 0,-0.5993 0.26096,-0.8288 0.5799,-0.5098 0.86736,0.8673 -2.55942,5.6721 -4.9627,6.9583 -1.35722,0.7263 -0.95357,-0.022 1.14161,-2.1176 z m -105.48645,-10.0873 c 0,-2.475 0.19502,-3.4875 0.43337,-2.25 0.23836,1.2375 0.23836,3.2625 0,4.5 -0.23835,1.2375 -0.43337,0.225 -0.43337,-2.25 z m 110,0 c 0,-2.475 0.19502,-3.4875 0.43337,-2.25 0.23836,1.2375 0.23836,3.2625 0,4.5 -0.23835,1.2375 -0.43337,0.225 -0.43337,-2.25 z m -109.24056,-5.7152 c 0.1123,-2.771 7.21184,-8.3241 10.4682,-8.188 1.2971,0.054 0.8935,0.4041 -1.1484,0.9957 -1.73161,0.5016 -4.54411,2.5017 -6.25,4.4446 -1.70588,1.9429 -3.08729,3.1793 -3.0698,2.7477 z m 41.98505,0.1877 c -0.0523,-3.192 6.70813,-8.5256 10.68349,-8.4286 1.26709,0.031 -4.65466,2.7727 -6.35214,2.941 -0.0835,0.01 -1.08841,1.4776 -2.23315,3.2651 -1.14475,1.7875 -2.08894,2.7876 -2.0982,2.2225 z m 23.14454,-2.0176 c -0.65952,-1.4475 -3.00396,-3.389 -5.41244,-4.4823 -2.33692,-1.0608 -3.57395,-1.9369 -2.74895,-1.9469 3.48283,-0.042 11.39522,6.9124 9.74346,8.5642 -0.23022,0.2302 -0.94215,-0.7306 -1.58207,-2.135 z m 41.85302,0.072 c -0.72707,-1.3585 -3.16525,-3.3825 -5.41818,-4.4977 -2.25293,-1.1152 -3.51138,-2.028 -2.79657,-2.0284 2.40287,0 6.88905,2.8752 8.63174,5.5348 0.95062,1.4509 1.54313,2.8232 1.31668,3.0497 -0.22646,0.2264 -1.00661,-0.6998 -1.73367,-2.0584 z m -92.20191,-6.21 c 0.72187,-0.2889 1.58438,-0.2534 1.91667,0.079 0.33229,0.3323 -0.25834,0.5687 -1.3125,0.5253 -1.16495,-0.048 -1.4019,-0.285 -0.60417,-0.6042 z"
                     id="path4936" />
                  <path
                     style="fill:#3878a4"
                     d="m -301.49383,1556.1578 c -4.15118,-9.388 -5.86592,-19.711 -5.33169,-32.0976 0.82694,-19.1734 6.43384,-29.7722 20.18299,-38.1524 1.49225,-0.9095 1.39622,-1.7237 -1.06155,-9 -1.48623,-4.4 -5.72561,-13.9026 -9.42084,-21.1168 -3.69524,-7.2142 -7.17054,-15.2358 -7.7229,-17.8256 l -1.00428,-4.7087 2.47801,2.3255 c 5.82165,5.4636 13.54107,20.0509 20.19653,38.1653 l 3.61524,9.8398 5.09091,0.2641 c 14.31941,0.7429 26.8258,12.7031 35.8741,34.3072 4.23617,10.1145 6.04978,18.1047 6.98383,30.7688 0.76828,10.4164 0.26292,12.4804 -3.05583,12.4804 -2.32238,0 -2.39301,-0.2335 -2.39301,-7.912 0,-31.4373 -19.61149,-64.0326 -38.55366,-64.0782 -5.49755,-0.013 -13.67755,4.2317 -17.53174,9.098 -5.37301,6.784 -7.17258,12.9726 -7.68407,26.4249 -0.51593,13.5695 0.83417,20.9581 5.6129,30.7173 l 2.81557,5.75 -3.38453,0 c -3.12147,0 -3.56496,-0.408 -5.70598,-5.25 z m -87.65604,-36.03 c -6.90781,-4.6552 -8.00284,-12.4684 -2.57721,-18.3887 2.8931,-3.157 4.06491,-3.6999 8.83935,-4.0959 5.0711,-0.4205 5.78963,-0.2057 9.13377,2.7305 6.1234,5.3764 6.2147,12.711 0.2327,18.693 -2.78749,2.7875 -4.07872,3.3411 -7.79318,3.3411 -2.97844,0 -5.57201,-0.7547 -7.83543,-2.28 z m 10.49231,-1.8586 c 3.16698,-1.4429 5.97787,-7.2008 5.14171,-10.5323 -2.45674,-9.7884 -16.65562,-9.711 -19.11908,0.1042 -1.89041,7.532 6.53596,13.8187 13.97737,10.4281 z m -7.13779,-33.1114 c 0.8061,-16.6114 6.64206,-34.8753 15.62639,-48.9034 l 4.06465,-6.3466 0.021,5.2852 c 0.0117,2.9418 -0.61728,6.2672 -1.41858,7.5 -5.82582,8.9631 -12.56043,33.275 -12.56043,45.343 l 0,8.3718 -3.13948,0 -3.13949,0 0.54594,-11.25 z m -27.09399,-178.5 c -9.02842,-13.3059 -13.03075,-23.6473 -16.14703,-41.7217 l -1.89168,-10.9717 4.40006,-7.0596 c 7.12421,-11.4303 8.84713,-18.3904 7.12518,-28.7837 l -0.79306,-4.7866 6.81678,-6.7731 c 19.70644,-19.5801 59.1334,-36.377 84.69776,-36.0833 9.37073,0.1076 11.02986,1.3143 3.68514,2.6802 -6.38464,1.1874 -17.06725,5.5345 -17.06463,6.9442 8.2e-4,0.4429 9.78832,0.8137 21.75,0.824 l 21.7485,0.019 9.23792,3.2082 c 12.70961,4.4139 26.52454,13.2544 20.71242,13.2544 -2.64743,0 -7.45034,2.9724 -7.45034,4.6109 0,0.8577 3.09703,6.191 6.88229,11.8517 10.0484,15.0271 12.79667,23.3308 13.19434,39.8656 0.19737,8.2066 0.0464,8.934 -2.37933,11.4671 -3.834,4.0037 -6.50839,10.8777 -7.28907,18.7351 -0.43086,4.3365 -1.4249,8.0153 -2.63116,9.7375 -1.06628,1.5223 -2.76327,5.1093 -3.77109,7.9711 l -1.83239,5.2032 -0.56931,-3.4711 c -5.40015,-32.9253 -6.64705,-39.4067 -10.1639,-52.8324 -2.52152,-9.626 -5.23387,-16.4511 -6.3229,-15.9105 -15.09167,7.4925 -31.30367,13.2709 -42.91295,15.2954 -12.03419,2.0986 -12.57838,1.8699 -4.70453,-1.9765 6.32424,-3.0894 19.2106,-13.1698 18.16824,-14.2122 -0.23289,-0.2329 -6.44101,1.788 -13.79584,4.4909 -27.58359,10.137 -38.42085,13.0805 -51.21011,13.909 -8.0525,0.5217 -9.28602,0.8739 -12.2862,3.5081 -1.83425,1.6105 -4.67923,5.7022 -6.32219,9.0927 -4.24294,8.7558 -5.46249,17.5214 -4.71719,33.9052 0.34424,7.5676 0.42608,13.7592 0.18185,13.7592 -0.24422,0 -2.19973,-2.5875 -4.34558,-5.75 z m 37.86247,-0.9321 c -1.16034,-1.4751 -1.85991,-3.333 -1.55462,-4.1285 0.86514,-2.2545 -5.08756,-0.709 -10.73083,2.7861 -5.33162,3.3021 -6.01301,2.679 -2.12421,-1.9426 5.03432,-5.983 14.03148,-8.6345 20.69802,-6.0999 2.90434,1.1042 9.67619,6.8621 9.67619,8.2273 0,0.5242 -1.00013,0.2526 -2.22251,-0.6036 -2.76651,-1.9377 -3.77749,-1.9681 -3.77749,-0.1134 0,1.7474 -3.79157,4.5567 -6.14993,4.5567 -0.9377,0 -2.65428,-1.2069 -3.81462,-2.6821 z m 68.19451,-5.3565 c -1.3943,-0.56 -2.50342,-2.0787 -2.875,-3.9366 -0.37841,-1.8921 -1.21349,-3.0166 -2.22996,-3.0028 -1.91955,0.026 -8.60003,3.1767 -12.08237,5.6985 -2.65101,1.9197 -2.46669,1.3092 1.20555,-3.9931 6.58251,-9.5045 24.53641,-8.4725 29.99342,1.724 1.02428,1.9139 0.97776,1.9224 -1.53222,0.2778 -2.52543,-1.6548 -2.66137,-1.6234 -5.57206,1.2873 -3.22907,3.2291 -3.51196,3.3088 -6.90736,1.9449 z m -91.83026,-14.2099 c 0.83612,-4.1806 2.80559,-6.1633 8.59665,-8.6546 6.56227,-2.823 24.22344,-4.8524 27.40599,-3.1492 1.88739,1.0101 5.59766,6.7013 5.59766,8.5862 0,0.2564 -3.2957,0.4661 -7.32378,0.4661 -7.65461,0 -22.98901,2.2869 -30.50844,4.55 l -4.39214,1.3218 0.62406,-3.1203 z m 65.6003,-7.3917 c 0,-1.3525 0.67801,-3.7702 1.50668,-5.3727 2.0637,-3.9908 7.43037,-5.3814 20.99332,-5.4397 9.12543,-0.039 11.53933,0.279 14.16479,1.8679 2.54888,1.5425 5.33521,5.2047 5.33521,7.0123 0,0.1834 -7.0875,0.5667 -15.75,0.8518 -9.52383,0.3135 -17.82539,1.1156 -21,2.029 l -5.25,1.5106 0,-2.4592 z m 218.61488,-113.4481 c -8.02373,-6.3115 -7.30253,-19.9191 1.29124,-24.3632 1.64701,-0.8517 3.57941,-1.5386 4.29422,-1.5265 0.71481,0.012 -0.583,0.8767 -2.88402,1.9214 -4.9634,2.2534 -7.31785,6.1998 -7.31258,12.2569 0.005,5.4017 2.98675,10.4568 7.26595,12.3171 1.77667,0.7724 2.5035,1.4219 1.61517,1.4435 -0.88833,0.022 -2.80982,-0.9006 -4.26998,-2.0492 z m -85.71367,-2.0175 c -1.59567,-1.7081 -2.89824,-3.6206 -2.89462,-4.25 0.004,-0.6293 0.82723,0.1003 1.83024,1.6214 1.003,1.5211 2.68754,3.4193 3.74341,4.2182 1.05587,0.7989 1.5378,1.4669 1.07097,1.4844 -0.46683,0.017 -2.15433,-1.3658 -3.75,-3.074 z m 16.882,1.5451 c 3.18479,-2.2307 5.21679,-6.6927 5.21679,-11.4554 0,-4.8783 -1.23998,-7.6487 -4.8442,-10.8227 -2.37016,-2.0873 -2.40805,-2.2149 -0.35229,-1.1862 5.20646,2.6052 7.99044,12.6733 5.07153,18.3407 -1.54519,3.0002 -5.00198,6.6843 -6.27186,6.6843 -0.57651,0 -0.0455,-0.7023 1.18003,-1.5607 z m 26.43358,0 c -3.29405,-2.3073 -5.2376,-6.7809 -5.05675,-11.6396 0.14658,-3.9382 0.19029,-4.0054 0.51994,-0.7997 0.65938,6.4123 1.41133,8.2829 4.48305,11.1523 3.39518,3.1716 3.4148,3.6411 0.0538,1.287 z m 16.47593,-1.132 c 3.21121,-3.0201 3.96438,-4.8605 4.6273,-11.3073 0.31197,-3.0338 0.38072,-2.9006 0.5162,1 0.17654,5.0827 -2.34726,10.1411 -6.03271,12.0912 -1.71449,0.9072 -1.48711,0.4511 0.88921,-1.7839 z m 42.06609,-0.22 c 1.78266,-1.7826 3.24119,-3.7315 3.24119,-4.3309 0,-0.5993 0.26096,-0.8288 0.5799,-0.5098 0.86736,0.8673 -2.55942,5.6721 -4.9627,6.9583 -1.35722,0.7263 -0.95357,-0.022 1.14161,-2.1176 z m -105.48645,-10.0873 c 0,-2.475 0.19502,-3.4875 0.43337,-2.25 0.23836,1.2375 0.23836,3.2625 0,4.5 -0.23835,1.2375 -0.43337,0.225 -0.43337,-2.25 z m 110,0 c 0,-2.475 0.19502,-3.4875 0.43337,-2.25 0.23836,1.2375 0.23836,3.2625 0,4.5 -0.23835,1.2375 -0.43337,0.225 -0.43337,-2.25 z m -109.24056,-5.7152 c 0.1123,-2.771 7.21184,-8.3241 10.4682,-8.188 1.2971,0.054 0.8935,0.4041 -1.1484,0.9957 -1.73161,0.5016 -4.54411,2.5017 -6.25,4.4446 -1.70588,1.9429 -3.08729,3.1793 -3.0698,2.7477 z m 41.98505,0.1877 c -0.0523,-3.192 6.70813,-8.5256 10.68349,-8.4286 1.26709,0.031 -4.65466,2.7727 -6.35214,2.941 -0.0835,0.01 -1.08841,1.4776 -2.23315,3.2651 -1.14475,1.7875 -2.08894,2.7876 -2.0982,2.2225 z m 23.14454,-2.0176 c -0.65952,-1.4475 -3.00396,-3.389 -5.41244,-4.4823 -2.33692,-1.0608 -3.57395,-1.9369 -2.74895,-1.9469 3.48283,-0.042 11.39522,6.9124 9.74346,8.5642 -0.23022,0.2302 -0.94215,-0.7306 -1.58207,-2.135 z m 41.85302,0.072 c -0.72707,-1.3585 -3.16525,-3.3825 -5.41818,-4.4977 -2.25293,-1.1152 -3.51138,-2.028 -2.79657,-2.0284 2.40287,0 6.88905,2.8752 8.63174,5.5348 0.95062,1.4509 1.54313,2.8232 1.31668,3.0497 -0.22646,0.2264 -1.00661,-0.6998 -1.73367,-2.0584 z m -92.20191,-6.21 c 0.72187,-0.2889 1.58438,-0.2534 1.91667,0.079 0.33229,0.3323 -0.25834,0.5687 -1.3125,0.5253 -1.16495,-0.048 -1.4019,-0.285 -0.60417,-0.6042 z"
                     id="path4934" />
                  <path
                     style="fill:#4b4b4d"
                     d="m -301.49383,1556.1578 c -8.26801,-18.6983 -7.10782,-45.3851 2.58559,-59.474 2.64169,-3.8395 6.62093,-7.3355 12.26571,-10.776 1.49225,-0.9095 1.39621,-1.7237 -1.06163,-9 -1.48627,-4.4 -5.73746,-13.9579 -9.44708,-21.2398 -3.70962,-7.2819 -7.18488,-15.3034 -7.72281,-17.8256 l -0.97805,-4.5857 2.47801,2.3255 c 5.82165,5.4636 13.54107,20.0509 20.19653,38.1653 l 3.61524,9.8398 5.09091,0.2641 c 14.31941,0.7429 26.8258,12.7031 35.8741,34.3072 4.23617,10.1145 6.04978,18.1047 6.98383,30.7688 0.76828,10.4164 0.26292,12.4804 -3.05583,12.4804 -2.32238,0 -2.39301,-0.2335 -2.39301,-7.912 0,-31.4373 -19.61149,-64.0326 -38.55366,-64.0782 -5.49755,-0.013 -13.67755,4.2317 -17.53174,9.098 -5.37301,6.784 -7.17258,12.9726 -7.68407,26.4249 -0.51593,13.5695 0.83417,20.9581 5.6129,30.7173 l 2.81557,5.75 -3.38453,0 c -3.12147,0 -3.56496,-0.408 -5.70598,-5.25 z m -87.65604,-36.03 c -6.90781,-4.6552 -8.00284,-12.4684 -2.57721,-18.3887 2.8931,-3.157 4.06491,-3.6999 8.83935,-4.0959 5.0711,-0.4205 5.78963,-0.2057 9.13377,2.7305 6.1234,5.3764 6.2147,12.711 0.2327,18.693 -2.78749,2.7875 -4.07872,3.3411 -7.79318,3.3411 -2.97844,0 -5.57201,-0.7547 -7.83543,-2.28 z m 10.49231,-1.8586 c 3.16698,-1.4429 5.97787,-7.2008 5.14171,-10.5323 -2.45674,-9.7884 -16.65562,-9.711 -19.11908,0.1042 -1.89041,7.532 6.53596,13.8187 13.97737,10.4281 z m -7.13779,-33.1114 c 0.8061,-16.6114 6.64206,-34.8753 15.62639,-48.9034 l 4.06465,-6.3466 0.021,5.2852 c 0.0117,2.9418 -0.61728,6.2672 -1.41858,7.5 -5.82582,8.9631 -12.56043,33.275 -12.56043,45.343 l 0,8.3718 -3.13948,0 -3.13949,0 0.54594,-11.25 z m -27.09399,-178.5 c -9.02842,-13.3059 -13.03075,-23.6473 -16.14703,-41.7217 l -1.89168,-10.9717 4.40006,-7.0596 c 7.12421,-11.4303 8.84713,-18.3904 7.12518,-28.7837 l -0.79306,-4.7866 6.81678,-6.7731 c 19.70644,-19.5801 59.1334,-36.377 84.69776,-36.0833 9.37073,0.1076 11.02986,1.3143 3.68514,2.6802 -6.38464,1.1874 -17.06725,5.5345 -17.06463,6.9442 8.2e-4,0.4429 9.78832,0.8137 21.75,0.824 l 21.7485,0.019 9.23792,3.2082 c 12.70961,4.4139 26.52454,13.2544 20.71242,13.2544 -2.64743,0 -7.45034,2.9724 -7.45034,4.6109 0,0.8577 3.09703,6.191 6.88229,11.8517 10.0484,15.0271 12.79667,23.3308 13.19434,39.8656 0.19737,8.2066 0.0464,8.934 -2.37933,11.4671 -3.834,4.0037 -6.50839,10.8777 -7.28907,18.7351 -0.43086,4.3365 -1.4249,8.0153 -2.63116,9.7375 -1.06628,1.5223 -2.76327,5.1093 -3.77109,7.9711 l -1.83239,5.2032 -0.56931,-3.4711 c -5.40015,-32.9253 -6.64705,-39.4067 -10.1639,-52.8324 -2.52152,-9.626 -5.23387,-16.4511 -6.3229,-15.9105 -15.09167,7.4925 -31.30367,13.2709 -42.91295,15.2954 -12.03419,2.0986 -12.57838,1.8699 -4.70453,-1.9765 6.32424,-3.0894 19.2106,-13.1698 18.16824,-14.2122 -0.23289,-0.2329 -6.44101,1.788 -13.79584,4.4909 -27.58359,10.137 -38.42085,13.0805 -51.21011,13.909 -8.0525,0.5217 -9.28602,0.8739 -12.2862,3.5081 -1.83425,1.6105 -4.67923,5.7022 -6.32219,9.0927 -4.24294,8.7558 -5.46249,17.5214 -4.71719,33.9052 0.34424,7.5676 0.42608,13.7592 0.18185,13.7592 -0.24422,0 -2.19973,-2.5875 -4.34558,-5.75 z m 37.86247,-0.9321 c -1.16034,-1.4751 -1.85991,-3.333 -1.55462,-4.1285 0.86514,-2.2545 -5.08756,-0.709 -10.73083,2.7861 -5.33162,3.3021 -6.01301,2.679 -2.12421,-1.9426 5.03432,-5.983 14.03148,-8.6345 20.69802,-6.0999 2.90434,1.1042 9.67619,6.8621 9.67619,8.2273 0,0.5242 -1.00013,0.2526 -2.22251,-0.6036 -2.76651,-1.9377 -3.77749,-1.9681 -3.77749,-0.1134 0,1.7474 -3.79157,4.5567 -6.14993,4.5567 -0.9377,0 -2.65428,-1.2069 -3.81462,-2.6821 z m 68.19451,-5.3565 c -1.3943,-0.56 -2.50342,-2.0787 -2.875,-3.9366 -0.37841,-1.8921 -1.21349,-3.0166 -2.22996,-3.0028 -1.91955,0.026 -8.60003,3.1767 -12.08237,5.6985 -2.65101,1.9197 -2.46669,1.3092 1.20555,-3.9931 6.58251,-9.5045 24.53641,-8.4725 29.99342,1.724 1.02428,1.9139 0.97776,1.9224 -1.53222,0.2778 -2.52543,-1.6548 -2.66137,-1.6234 -5.57206,1.2873 -3.22907,3.2291 -3.51196,3.3088 -6.90736,1.9449 z m -91.83026,-14.2099 c 0.83612,-4.1806 2.80559,-6.1633 8.59665,-8.6546 6.56227,-2.823 24.22344,-4.8524 27.40599,-3.1492 1.88739,1.0101 5.59766,6.7013 5.59766,8.5862 0,0.2564 -3.2957,0.4661 -7.32378,0.4661 -7.65461,0 -22.98901,2.2869 -30.50844,4.55 l -4.39214,1.3218 0.62406,-3.1203 z m 65.6003,-7.3917 c 0,-1.3525 0.67801,-3.7702 1.50668,-5.3727 2.0637,-3.9908 7.43037,-5.3814 20.99332,-5.4397 9.12543,-0.039 11.53933,0.279 14.16479,1.8679 2.54888,1.5425 5.33521,5.2047 5.33521,7.0123 0,0.1834 -7.0875,0.5667 -15.75,0.8518 -9.52383,0.3135 -17.82539,1.1156 -21,2.029 l -5.25,1.5106 0,-2.4592 z"
                     id="path4932" />
                  <path
                     style="fill:#363638"
                     d="m -301.46807,1555.4385 c -5.03431,-11.218 -6.87001,-27.7622 -4.50183,-40.5728 2.28363,-12.3533 9.9945,-24.1802 17.89985,-27.4547 1.65425,-0.6852 3.00773,-1.8533 3.00773,-2.5957 0,-3.0428 -6.31297,-18.3158 -12.3568,-29.8948 -3.54571,-6.7931 -6.90212,-14.5249 -7.45869,-17.1819 l -1.01194,-4.8308 3.92262,4.5 c 4.91712,5.6409 14.49273,24.4254 18.98767,37.2481 l 3.41714,9.7481 5.31193,0 c 14.23783,0.01 26.48211,12.2305 36.55822,36.5019 3.71214,8.9419 5.75935,20.6507 5.42225,31.0123 -0.26927,8.2766 -0.45957,9.0116 -2.4054,9.2893 -2.02866,0.2896 -2.13414,-0.1894 -2.64249,-12 -0.42154,-9.7939 -1.08401,-13.9324 -3.24977,-20.3016 -5.96999,-17.5569 -13.21764,-28.9994 -22.35359,-35.2916 -5.0043,-3.4466 -5.89928,-3.7084 -12.67666,-3.7084 -6.49918,0 -7.76376,0.3297 -11.62835,3.0317 -4.89441,3.4219 -10.259,10.8009 -11.84376,16.291 -0.58382,2.0225 -1.5645,7.2901 -2.1793,11.7057 -1.43808,10.3285 0.57843,23.4372 5.08763,33.0731 1.70461,3.6427 3.09929,6.7975 3.09929,7.0108 0,0.2132 -1.28855,0.3877 -2.86344,0.3877 -2.53227,0 -3.17325,-0.6904 -5.54231,-5.9693 z m -84.05257,-33.7853 c -8.14283,-1.9637 -11.86923,-10.9155 -7.51605,-18.0556 6.77699,-11.1156 26.12885,-4.365 23.4033,8.1638 -0.71756,3.2985 -2.95228,7.1214 -4.19819,7.1818 -0.40191,0.02 -1.63074,0.5198 -2.73074,1.1117 -2.7415,1.4753 -6.60796,2.1651 -8.95832,1.5983 z m 8.96439,-4.497 c 1.74188,-1.4983 2.80187,-3.6254 3.16841,-6.3581 0.47781,-3.5624 0.15187,-4.5531 -2.4595,-7.4757 -2.51432,-2.814 -3.70309,-3.3691 -7.21498,-3.3691 -3.47955,0 -4.70439,0.5592 -7.10234,3.243 -3.96655,4.4394 -3.95725,9.3058 0.0254,13.2884 3.75586,3.7559 9.65801,4.0477 13.583,0.6715 z m -7.40173,-21.4732 c -2.38206,-0.4499 -2.39225,-0.5073 -1.79436,-10.1138 0.33071,-5.3138 1.73029,-14.0881 3.11018,-19.4986 2.54649,-9.9846 10.53215,-28.1047 14.39475,-32.6628 l 2.11855,-2.5 0.0333,3.985 c 0.0219,2.6212 -1.51563,7.4553 -4.4928,14.1257 -6.01653,13.4801 -9.54859,27.4976 -9.73617,38.6393 -0.081,4.8125 -0.39266,8.6887 -0.69254,8.6138 -0.29987,-0.075 -1.62327,-0.3398 -2.94088,-0.5886 z m -30.20733,-191.5252 c -2.91256,-4.5375 -6.62045,-11.4 -8.23976,-15.25 -2.89667,-6.887 -7.62618,-27.2307 -7.64675,-32.8919 -0.006,-1.6612 1.67467,-5.5603 3.94903,-9.1614 4.44931,-7.045 8.04327,-16.7357 8.03489,-21.6652 -0.003,-1.8048 -0.47423,-4.9691 -1.04703,-7.0316 -0.96053,-3.4587 -0.79864,-4.0523 2.0833,-7.6385 1.71862,-2.1385 5.94378,-6.1755 9.38925,-8.971 7.04345,-5.7146 24.48897,-16.3374 26.00219,-15.833 0.88801,0.296 2.72681,6.8752 5.50384,19.6926 2.86546,13.2256 4.396,20.1265 5.73062,25.8382 0.81455,3.486 1.54819,7.2302 1.63031,8.3204 0.1282,1.7019 0.6487,1.8955 3.68121,1.3692 3.22827,-0.5603 22.22945,-5.8989 25.60334,-7.1936 0.95951,-0.3682 1.42855,0.1436 1.42855,1.5588 0,2.5115 0.47025,2.558 6.03026,0.5963 7.34307,-2.5908 5.43423,-0.8953 -2.24319,1.9924 -25.44985,9.5726 -40.08966,13.5031 -51.99335,13.959 -7.65092,0.293 -8.0906,0.4433 -11.75051,4.0171 -8.6748,8.4707 -11.54189,19.4724 -10.83268,41.5674 0.26437,8.2362 0.36848,14.9748 0.23136,14.9748 -0.13712,0 -2.63231,-3.7125 -5.54488,-8.25 z m 40.3255,2.6933 c -1.2655,-0.8864 -2.22251,-2.6088 -2.22251,-4 0,-1.7925 -0.5433,-2.4433 -2.03984,-2.4433 -2.29247,0 -9.54413,3.4277 -12.21016,5.7715 -2.59066,2.2775 -2.12285,0.4061 0.88391,-3.536 3.01422,-3.9518 9.34858,-7.1814 14.14821,-7.2135 4.2707,-0.029 10.01395,2.4098 13.46788,5.7181 3.30018,3.1611 3.64456,4.9999 0.52749,2.8166 -2.76651,-1.9377 -3.77749,-1.9681 -3.77749,-0.1134 0,1.5088 -3.6789,4.5567 -5.5,4.5567 -0.58024,0 -2.05512,-0.7005 -3.27749,-1.5567 z m 99.85644,-4.0266 c 0.048,-1.165 0.28494,-1.4019 0.60416,-0.6042 0.28887,0.7219 0.25335,1.5844 -0.0789,1.9167 -0.3323,0.3323 -0.56864,-0.2584 -0.52522,-1.3125 z m -50.34981,-5.6031 c 4.54644,-7.8706 15.98133,-11.0022 24.16539,-6.618 2.41699,1.2947 5.10594,3.4255 5.97545,4.7351 1.5594,2.3486 1.54832,2.3635 -0.81481,1.0988 -2.16183,-1.1569 -2.58249,-1.0257 -4.30885,1.3442 -3.22864,4.4322 -10.74632,2.5417 -10.74632,-2.7024 0,-2.6978 -4.07009,-2.001 -10.32969,1.7683 l -5.71203,3.4396 1.77086,-3.0656 z m 49.34981,0.6031 c 0.048,-1.165 0.28494,-1.4019 0.60416,-0.6042 0.28887,0.7219 0.25335,1.5844 -0.0789,1.9167 -0.3323,0.3323 -0.56864,-0.2584 -0.52522,-1.3125 z m -124.07895,-9.9072 c 0,-0.389 0.71684,-2.2179 1.59297,-4.0642 2.78151,-5.8616 13.36294,-9.4453 27.88853,-9.4453 7.7958,0 9.37598,0.8648 11.42415,6.2518 l 1.04485,2.7482 -9.22525,0.013 c -7.90385,0.011 -19.30878,1.7194 -29.97525,4.4895 -1.5125,0.3928 -2.75,0.3959 -2.75,0.01 z m 66.5477,-10.7267 c 1.43905,-6.5519 2.90493,-7.319 17.74116,-9.283 10.33261,-1.3679 20.88482,1.8814 22.73334,7.0002 0.69848,1.9342 0.27409,2.0036 -12.89998,2.1106 -8.82678,0.072 -16.02027,0.6877 -20.43427,1.75 -3.74663,0.9017 -7.04489,1.6394 -7.32946,1.6394 -0.28457,0 -0.19943,-1.4477 0.18921,-3.2172 z m 54.53125,1.6339 c 0.048,-1.165 0.28494,-1.4019 0.60416,-0.6042 0.28887,0.7219 0.25335,1.5844 -0.0789,1.9167 -0.3323,0.3323 -0.56864,-0.2584 -0.52522,-1.3125 z m -1,-5 c 0.048,-1.165 0.28494,-1.4019 0.60416,-0.6042 0.28887,0.7219 0.25335,1.5844 -0.0789,1.9167 -0.3323,0.3323 -0.56864,-0.2584 -0.52522,-1.3125 z m -61.07895,-24.5601 c 1.375,-0.6558 4.3,-1.2609 6.5,-1.3447 2.2,-0.084 5.575,-0.4434 7.5,-0.7991 2.78556,-0.5148 2.58143,-0.3443 -1,0.8352 -2.475,0.815 -6.975,1.7112 -10,1.9914 -4.77779,0.4426 -5.17172,0.353 -3,-0.6828 z m 5,-2.2237 c 0,-0.2019 1.82157,-1.5726 4.04794,-3.0459 2.22637,-1.4734 5.93887,-4.3293 8.25,-6.3465 4.06099,-3.5446 4.10135,-3.557 1.20206,-0.3696 -4.3416,4.773 -13.5,11.3955 -13.5,9.762 z m 13.8125,-1.316 c 0.72187,-0.2889 1.58437,-0.2534 1.91667,0.079 0.33229,0.3323 -0.25834,0.5686 -1.3125,0.5252 -1.16495,-0.048 -1.4019,-0.2849 -0.60417,-0.6042 z m 4.1875,-1.1482 c 0.825,-0.5097 2.625,-1.2277 4,-1.5955 1.73748,-0.4647 2.04249,-0.386 1,0.2581 -0.825,0.5097 -2.625,1.2277 -4,1.5955 -1.73748,0.4647 -2.04249,0.386 -1,-0.2581 z m 23,-9.5617 c 0,-0.2162 0.69837,-0.661 1.55194,-0.9886 0.88992,-0.3415 1.29132,-0.1738 0.94098,0.3931 -0.58726,0.9502 -2.49292,1.4054 -2.49292,0.5955 z"
                     id="path4930" />
                  <path
                     style="fill:#010101"
                     d="m -300.92873,1556.4967 c -6.9994,-16.2705 -7.79566,-36.2261 -2.05744,-51.5629 2.34835,-6.2765 10.28584,-15.6049 14.90689,-17.519 1.65933,-0.6873 3.01696,-1.7912 3.01696,-2.4532 0,-4.1911 -9.44881,-26.6864 -14.99598,-35.7017 -2.77133,-4.504 -5.65023,-13.5392 -4.63688,-14.5526 0.23929,-0.2393 2.51148,2.4748 5.04931,6.0312 5.44865,7.6356 12.15868,21.525 16.62805,34.4193 l 3.20622,9.25 5.21492,0 c 6.85638,0 15.79239,4.4302 21.72035,10.7681 4.88454,5.2225 11.14496,15.3078 12.68272,20.4316 0.54478,1.8152 2.10726,6.0003 3.47216,9.3003 3.12863,7.5642 4.89814,18.8169 4.48169,28.5 -0.28202,6.5573 -0.55869,7.5 -2.20115,7.5 -1.67748,0 -1.92255,-1.017 -2.28916,-9.5 -0.48248,-11.164 -2.14892,-18.996 -6.37162,-29.9459 -3.60183,-9.3398 -11.17607,-21.371 -16.03708,-25.4738 -16.70847,-14.1023 -36.34061,-4.9739 -41.4833,19.2886 -3.17507,14.9796 -1.06468,27.9867 7.36304,45.3811 0.19986,0.4125 -0.96871,0.75 -2.59681,0.75 -2.59163,0 -3.22324,-0.6115 -5.07289,-4.9111 z m -88.7805,-37.0152 c -6.4396,-3.9267 -6.67664,-14.5709 -0.42363,-19.0235 4.32904,-3.0825 11.02644,-2.7821 15.24381,0.6837 4.50142,3.6993 4.79379,4.2118 4.81142,8.4343 0.0183,4.3915 -0.86027,7.0267 -2.08947,6.267 -0.49237,-0.3043 -0.89522,-0.07 -0.89522,0.5205 0,1.8455 -6.33598,5.0368 -10,5.0368 -1.925,0 -4.91611,-0.8635 -6.64691,-1.9188 z m 13.89691,-3.087 c 4.0026,-4.393 3.77444,-9.1623 -0.65,-13.5867 -2.45,-2.45 -4.29412,-3.4 -6.6,-3.4 -4.59503,0 -10,5.5483 -10,10.2651 0,9.4692 10.88292,13.7098 17.25,6.7216 z m -9.8706,-23.6112 c -1.17438,-4.6791 1.60253,-22.424 5.20577,-33.2658 3.42585,-10.308 8.65467,-21.3054 12.41408,-26.1097 l 1.95628,-2.5 0.0222,3.9035 c 0.0122,2.1469 -1.05795,6.1969 -2.37819,9 -7.80079,16.5623 -11.80841,31.0568 -11.98264,43.3381 -0.11097,7.8217 -0.23059,8.2421 -2.34788,8.25 -1.57735,0.01 -2.42392,-0.7605 -2.88965,-2.6161 z m 12.45502,-185.7644 c -1.4562,-0.722 -2.45775,-2.2278 -2.66225,-4.0025 -0.30858,-2.678 -0.54279,-2.8101 -3.98891,-2.2509 -2.01359,0.3268 -5.58921,1.9532 -7.94581,3.6143 l -4.28473,3.0201 1.50855,-2.9172 c 2.94769,-5.7002 11.66332,-9.7365 18.52204,-8.5777 4.20354,0.7102 12.01669,5.7226 12.01669,7.7091 0,0.9215 -0.27367,0.92 -1.2,-0.01 -1.83359,-1.8336 -3.36859,-1.4423 -4.55482,1.1612 -1.31683,2.8901 -4.2956,3.7945 -7.41076,2.2499 z m 64.76164,-8.7774 c -0.87783,-1.2533 -1.59606,-3.0786 -1.59606,-4.0562 0,-0.9776 -0.16842,-1.7775 -0.37427,-1.7775 -1.57941,0 -9.33624,3.3697 -11.80753,5.1294 -2.96652,2.1124 -3.01986,2.1159 -1.95647,0.129 1.7451,-3.2608 6.8921,-7.1044 11.26995,-8.416 6.42005,-1.9235 15.48894,1.1889 18.81133,6.456 1.07158,1.6988 0.99843,1.7093 -1.32082,0.1897 -2.37047,-1.5532 -2.50152,-1.5117 -3.79567,1.2016 -1.81805,3.8117 -6.91911,4.4439 -9.23046,1.144 z"
                     id="path4928" />
                </g>
              </g>
            </g>
          </g>
        </g>
      </g>
    </g>
  </g>
</svg>
