<?xml version="1.0" encoding="utf-8"?>

<!DOCTYPE svg PUBLIC "-//W3C//DTD SVG 1.1//EN" "http://www.w3.org/Graphics/SVG/1.1/DTD/svg11.dtd">
<svg version="1.1" id="Layer_1" xmlns="http://www.w3.org/2000/svg" xmlns:xlink="http://www.w3.org/1999/xlink" x="0px" y="0px"
	 viewBox="-12.2749 -9.3724 1944.5499 1484.7449" enable-background="new -12.2749 -9.3724 1944.5499 1484.7449"
	 xml:space="preserve">
<g>
	<path stroke="#000000" stroke-width="0.0938" d="M1016.54,0h32.94c39.47,1.53,78.97,5.77,117.4301,15.04
		c12.85,2.96,25.4,7.11,38.3099,9.84c38.79,8.95,79.13,11.43,116.79,25.06c17.8199,6.42,34.7,15.62,49.37,27.63
		c0.76,1.05,3.02,2.08,1.89,3.62c-7.63,0.19-14.78-3.22-21.92-5.48c-25.46-10.07-51.76-19.31-79.26-21.37
		c-8.9199-0.27-18.12-0.83-26.7799,1.69c4.9099,4.46,11.47,6.43,17.2999,9.39c18.72,8.65,38.1901,16.04,55.34,27.68
		c2.3301,1.62,4.3501,3.62,6.5901,5.35c2.27,1.68,5.6899,1.18,7.5599,3.48c-5.73,2.45-11.72-1.09-17.0699-3.03
		c-18.76-9.12-39.29-14.16-59.9501-16.56c-52.8199-5.88-105.35,5.7-158.0599,7.39c-17.2001,0.72-34.47,0.39-51.5801-1.55
		c-15.0399-1.99-30.28-2.64-45.1899-5.62c-8.49-1.65-16.63-5.08-25.3-5.73c0.38,3.32,1.55,6.47,2.58,9.63
		c6.11,18.47,12.3,36.91,18.7599,55.26c12.91,35.02,13.17,73.71,5.39,109.92c-3.12,13.35-6.78,26.73-12.67,39.15
		c-4.97-11.05-9.87-22.19-16.35-32.47c-8.79-14.15-18.62-27.7-29.5-40.3c2.47,9.54,2.82,19.87-0.78,29.18
		c-1.9,4.95-7.27,6.9-11.95,8.22c-7.08,2.33-15.16,3.6-22.12,0.22c-6.49-3.18-9.91-10.61-9.8-17.62
		c-0.07-5.39,1.29-11.31,5.48-15.01c3.92-3.63,11.19-1.44,12.79,3.53c-1.9301-0.21-3.83-0.45-5.73-0.7
		c0.82-0.13,2.47-0.38,3.29-0.51c-0.29-1.65-2.26-1.91-3.53-2.44c-3.52-0.92-6.57,2.16-7.72,5.2c-2.6201,6.93-1.89,15.8,3.69,21.12
		c3.71,3.54,9.34,3.99,14.14,2.93c4.41-1.05,8.77-2.45,12.87-4.43c2.97-1.4,3.31-5.05,3.8-7.91c2.09-12.04-2.39-24.28-9.39-33.98
		c-6.49-8.77-15.97-16.34-27.19-17.29c-8.97-0.44-17.94,3.09-24.98,8.52c-3.47,2.69-6.27,6.35-7.3101,10.67
		c-1.83,6.49-0.33,13.3,1.94,19.47c4.56,12.34,12.59,23.11,21.28,32.86c7.1,7.59,14.66,14.92,23.47,20.53
		c2.79,1.84,6.08,3.1,8.26,5.75c3.35,4.04,4.78,9.22,5.94,14.24c2.41,10.15,2.95,20.69,6.2,30.65
		c7.67,24.71,22.45,46.44,38.65,66.33c20.78,25.73,44.92,48.51,65.92,74.06c11.8199,14.89,21.16,31.8,34.8099,45.2
		c7.9601,7.75,18.3401,14.04,29.8101,13.73c7.51-0.5099,15.22-1.16,22.15-4.34c15.71-6.75,28.4-18.86,39.16-31.89
		c13.72-16.73,25.11-35.18,36.34-53.63c8.7-15.14,19.4-29.08,27.2-44.74c16.64-33.32,23.88-70.4,27.5601-107.21
		c4.35-45.44,4.22-91.14,6.0299-136.72c2.6201,29.35,3.1901,58.86,3.76,88.31c-0.5699,12.53-0.01,25.09-0.72,37.61
		c-0.08,9.14-1.51,18.21-1.49,27.34c3.95-7.7,6.8-15.92,10.5701-23.71c17.62-38.5,36.8999-76.25,58.1599-112.86
		c5.29-8.96,10.66-17.88,16.55-26.45c1.4-2.33,3.95-3.78,6.71-3.64c21.4401-0.25,43.49,0.15,63.88,7.59
		c13.09,4.85,25.25,13.68,31.5,26.45c3.33,6.28,5.41,13.48,4.15,20.62c-0.95,7.26-4.5601,13.8-6.02,20.94
		c-2.9299,19.81-10.66,38.48-18.62,56.72c-16.28,36.22-35.91,70.8-55.76,105.15c-3.35,5.97-6.97,11.8-10.0599,17.9
		c-2.88,5.79,0.25,12.12,2.45,17.56c3.79,9.12,8.74,18.99,6.09,29.12c-2,7.81-9.73,11.97-13.4099,18.77
		c25.48,5.23,48.97,17.49,70.1899,32.23c6.6,4.9,13.86,9.46,18.4,16.53c6.09,9.42,8.15,20.76,9.1899,31.75
		c1.4401,20.38-0.1699,40.85-2.95,61.05c-3.25,23.91-7.85,47.6-12.52,71.25c-3.27,19.19-7.78,38.24-8.85,57.73
		c-0.9501-3-0.91-6.18-1.4501-9.25c-0.22-22.06,2.7301-43.98,5.3601-65.84c4.21-35.4,9.6599-70.93,8.08-106.69
		c-0.64-9.98-2.15-20.18-6.5-29.28c-3.17-6.95-10.05-10.78-15.9301-15.11c-17.2899-11.86-36.0699-21.87-56.2799-27.71
		c-15.1901-4.4-31.61-6.57-47.1001-2.46c-9.62,2.89-19.2999,7.51-25.5499,15.66c-11.16,14.19-13.21,33.33-24.55,47.43
		c-2.2899,3.4-5.9099,6.25-7.0599,10.21c5.37,2.57,11.64,1.97,17.4399,1.82c7.17-0.68,14.9601-1.16,20.92-5.67
		c11.26-8.34,18.89-21.06,31.5599-27.59c6.2301-3.36,13.75-3.43,20.42-1.38c10.72,3.29,19.8199,10.07,29.64,15.27
		c3.03,1.66,6.37,2.74,9.3099,4.61c-1,3.88-2.86,7.48-4.63,11.06c0.6901-3.28,1.7401-6.48,2.3-9.78c-7.39-2.21-14.54-5.1-21.47-8.46
		c-8.09-3.84-16.84-7.46-25.97-6.42c-6.0801,1.14-10.77,5.6-14.9401,9.86c-8.1899,8.42-14.76,18.88-25.3099,24.64
		c-10.89,5.41-23.4301,5.79-35.3401,5.58c-0.5299,2.19-0.8099,4.45-1.6,6.57c-11.8,11.52-23.3,23.41-36.2,33.75
		c-8.9601,7.11-18.3,14.29-29.3201,17.86c-4.87,1.73-10.12,1.02-15.08,0.14c-17.8101-3.17-34.73-10.11-50.79-18.27
		c-13.35-6.63-26.77-14.04-36.89-25.23c-6.37-6.99-11-15.61-12.88-24.9c-0.6699-3.31-0.58-6.71-1.22-10.01
		c-12.23-6.19-22.02-16.05-30.6-26.57c-6.14-8.19-11.87-16.67-17.77-25.03c-7.5-10.67-16.52-20.13-25.21-29.81
		c-16.59-18.1-33.5601-35.9-48.8101-55.18c-16.85-21.24-31.72-44.73-39.0699-71.06c-3.33-11.42-3.19-23.59-6.88-34.92
		c-0.6-2.7-2.97-4.17-5.23-5.37c-15.29-9.84-27.77-23.5-38.22-38.25c-8.4-12.44-15.63-26.85-14.93-42.25
		c0.2-6.51,3.08-12.44,6.63-17.74c-9.17-7.88-15.23-18.5-20.53-29.19c-4.39-9.08-10.97-16.95-14.58-26.43
		c-6.6299-16.2-6.18-34.63-0.98-51.16c2.14-7.05,5.47-13.63,8.84-20.15c10.4-17.09,24.86-31.91,42.54-41.46
		c9.37-5.14,19.74-8,29.98-10.89C943.88,5.28,980.27,1.45,1016.54,0 M1357.16,146.91c-13.41,19.21-24.49,39.94-35.73,60.47
		c-19.3,36.51-37.9701,73.49-52.78,112.09c-2.86,8.6-6.75,17.23-6.51,26.47c-1.73,2.62-4.9501,4.36-5.36,7.71
		c-5.67,23.97-14.62,47.29-27.8101,68.16c5.29-1.67,10.8-1.21,16.14-0.02c6.38,1.6,12.17-2.16,18.3101-3.1
		c3.8999-0.69,8.61-0.79,11.5499,2.34c3.64,4,3.4301,9.71,4.28,14.71c1.63,5.74,5.85,10.42,7.2,16.27
		c0.6801,2.6-0.3999,5.38-2.6599,6.83c-4.54,3.49-10.66,2.64-15.79,1.17c-4.35-0.96-9.01-3.3-13.39-1.26
		c-5.2999,2-11.5599,4.71-17.02,1.71c-6.0699-3.88-8.4099-11.56-8.2899-18.44c0.51-4.68-4.3101-6.8-7.01-9.7
		c-15.42,25.81-29.88,52.49-49.52,75.43c-13.04,15.09-28.99,28.72-48.46,34.41c-8.25,2.65-16.9501,2.84-25.53,2.63
		c5.1599,6.35,12.0399,11.01,18.51,15.92c20.5499,14.48,44.35,25.8,69.75,27.43c17.83,1.56,34.97-7.49,47.11-19.99
		c5.0699-5.67,10.4399-11.06,15.98-16.28c0.9301-2.32-0.63-5.07,0.47-7.48c3.03-8.26,10.03-14.17,13.87-21.99
		c5.8201-11.26,8.61-23.88,15.13-34.81c3.89-6.81,9.17-12.84,15.54-17.44c13.16-9.61,29.6799-13.52,45.8099-13.16
		c-0.01-1.77-2.8199-0.7-3.9399-1.3c-4.26-0.29-7.4401-3.7-9.54-7.11c-7.24-12.32,1.89-31.01,16.4-31.86
		c1.71,0.01,2.21-1.96,1.6-3.28c-1.6599-4.95-2.4199-11.35,1.61-15.38c2.54-2.64,6.36-1.39,9.5601-1.33c0.76-4.2,2.99-7.85,4.7-11.7
		c-4.1599-8.31-1.86-17.85,1.8-25.89c4.67-10.8,11.2999-20.57,17.48-30.53c11.2-18.46,23.22-36.44,33.54-55.42
		c8.4299-15.53,15.89-31.81,19.8099-49.12c2.25-9.51,2.26-19.35,3.86-28.97c1.04-9.16,2.8401-18.63,0.8501-27.75
		c-5.4901-6.52-13.3-10.68-21.15-13.7C1398.24,146.64,1377.39,146.81,1357.16,146.91z"/>
	<path fill="#95CE99" stroke="#95CE99" stroke-width="0.0938" d="M823.17,68.11c4.32-0.74,8.71-0.97,13.1-0.84
		c-3.37,6.52-6.7,13.1-8.84,20.15c-5.2,16.53-5.65,34.96,0.98,51.16c3.61,9.48,10.19,17.35,14.58,26.43
		c5.3,10.69,11.36,21.31,20.53,29.19c-3.55,5.3-6.43,11.23-6.63,17.74c-0.7,15.4,6.53,29.81,14.93,42.25
		c10.45,14.75,22.93,28.41,38.22,38.25c-2.89,5.61-3.34,12.06-6.04,17.75c-0.04-2.42-0.13-4.84-0.6-7.21
		c-0.28,8.42-1.17,16.82-1.7,25.23c-0.32-0.54-0.96-1.62-1.29-2.16c-3.27,16.03-7.1299,31.93-10.37,47.96
		c-7.56,35.81-14.84,71.8-26.55,106.54c-1.07,3.58-3.25,7.05-2.7,10.92c-24.9,53.13-62.36,99.37-103.55,140.75
		c-20.12,20.72-43.7,37.7-68.25,52.76c-12.53,7.6-24.86,15.6-37.77,22.55c-2.0699,0.1299-4.0099,0.91-5.7599,1.97
		c-26.7401,14.81-53.32,30.45-76.4901,50.54c-13.89,12.19-26.65,25.92-36.05,41.91c-1.4,2.65-3.73,5.25-3.26,8.46
		c-13.99,24.33-23.74,50.78-32.8,77.26c-7.72,23.26-14.81,46.73-21.39,70.33c-0.3-0.1-0.9-0.31-1.2-0.41
		c-5.11,13.7599-11.14,27.2-15.32,41.29c-6.28,20.31-9.51,41.37-12.52,62.36c-0.51,3.97-1.56,8.02-0.61,12.02
		c-11.18,47.17-22,94.4399-32.31,141.8199c-0.31-0.1599-0.95-0.46-1.26-0.61c-6.16,20.91-12.72,41.72-17.85,62.9301
		c-0.62,3.03-1.43,6.0399-2.83,8.83c-80.74-42.29-156.6-95.03-220.48-160.3099c-36.41-36.62-68.59-77.5-95.28-121.73
		c-37.09-61.68-62.77-130.64-71.85-202.2c-1.59-12.97-3.25-25.97-3.32-39.05c-0.05-2.2-0.33-4.37-0.64-6.52v-34.85
		c0.96-5.15,0.53-10.4,0.96-15.6c2.83-37.64,9.67-75.04,20.89-111.1c11.42-37.43,27.39-73.39,46.63-107.43
		c27.23-47.92,61.18-91.9,99.63-131.34c49.43-50.9,106.14-94.43,166.71-131.25c87.59-53.1,183.29-92.22,282.06-118.97
		C684.45,87.66,753.54,75.02,823.17,68.11z"/>
	<path fill="#DDFEE1" stroke="#DDFEE1" stroke-width="0.0938" d="M974.95,76.83c8.67,0.65,16.81,4.08,25.3,5.73
		c14.91,2.98,30.15,3.63,45.1899,5.62c17.1101,1.94,34.38,2.27,51.5801,1.55c52.71-1.69,105.24-13.27,158.0599-7.39
		c-0.35,0.21-1.0599,0.63-1.4199,0.85c-0.16,3.76,1.2999,7.35,2.21,10.95c4.1801,21.46,8.15,43,9.99,64.82
		c1.51,14.28,2.04,28.64,2.77,42.97c0.09,11.05-0.04,22.11,0.0699,33.16c0.17,1.9-0.5499,3.64-1.5,5.23
		c-0.5699-29.45-1.1399-58.96-3.76-88.31c-1.8099,45.58-1.6799,91.28-6.0299,136.72c-3.6801,36.81-10.92,73.89-27.5601,107.21
		c-7.7999,15.66-18.5,29.6-27.2,44.74c-11.23,18.45-22.62,36.9-36.34,53.63c-10.76,13.03-23.4501,25.14-39.16,31.89
		c-6.9301,3.18-14.64,3.83-22.15,4.34c-11.47,0.31-21.85-5.98-29.8101-13.73c-13.6499-13.4-22.99-30.31-34.8099-45.2
		c-21-25.55-45.14-48.33-65.92-74.06c-16.2-19.89-30.98-41.62-38.65-66.33c-3.25-9.96-3.79-20.5-6.2-30.65
		c-1.16-5.02-2.59-10.2-5.94-14.24c-2.18-2.65-5.47-3.91-8.26-5.75c-8.81-5.61-16.37-12.94-23.47-20.53
		c-8.69-9.75-16.72-20.52-21.28-32.86c-0.22-6.82,0.2401-13.76,2.32-20.29c1.05-3.27,2.13-6.54,3.05-9.85
		c7.04-5.43,16.0099-8.96,24.98-8.52c11.22,0.95,20.7,8.52,27.19,17.29c7,9.7,11.48,21.94,9.39,33.98
		c-0.4901,2.86-0.83,6.51-3.8,7.91c-4.1,1.98-8.46,3.38-12.87,4.43c-4.8,1.06-10.43,0.61-14.14-2.93
		c-5.58-5.32-6.3101-14.19-3.69-21.12c1.15-3.04,4.2-6.12,7.72-5.2c1.27,0.53,3.24,0.79,3.53,2.44c-0.82,0.13-2.47,0.38-3.29,0.51
		c1.9,0.25,3.8,0.49,5.73,0.7c-1.6-4.97-8.8701-7.16-12.79-3.53c-4.19,3.7-5.55,9.62-5.48,15.01c-0.11,7.01,3.31,14.44,9.8,17.62
		c6.96,3.38,15.04,2.11,22.12-0.22c4.68-1.32,10.05-3.27,11.95-8.22c3.6-9.31,3.25-19.64,0.78-29.18
		c10.88,12.6,20.71,26.15,29.5,40.3c6.48,10.28,11.38,21.42,16.35,32.47c5.89-12.42,9.55-25.8,12.67-39.15
		c7.78-36.21,7.52-74.9-5.39-109.92c-6.46-18.35-12.65-36.79-18.7599-55.26C976.5,83.3,975.33,80.15,974.95,76.83 M1192.3,202
		c0,10.87,1.62,21.67,3.49,32.36c4.5399,24.59,10.89,48.82,14.5299,73.58c0.92,7.19,3.1901,14.39,2.2101,21.7
		c-0.36,3.39-3.49,5.59-6.7101,5.86c-8.1899,0.71-16.3099-1.19-24.23-3.03c-11.9399-2.76-23.62-6.49-35.5699-9.15
		c2.74,2.01,5.9399,3.22,9.03,4.6c9.9399,4.45,20.1699,8.28,30.6499,11.25c7.51,1.98,15.37,3.72,23.16,2.46
		c4.98-0.8,9.28-4.71,10.29-9.7c1.7899-7.96-0.29-16.08-1.4-23.97c-3.7-26.47-11.41-52.11-17.96-77.95
		C1197.1801,220.7,1195.13,211.24,1192.3,202 M1092.78,212.94c-0.11,2.14,1.64,3.82,2.9,5.39c7,7.3,17.4399,10.12,27.2999,10.4
		c6.22,0.01,12.5801,0.43,18.67-1.15c0.5499-1.8-1.76-1.8-2.84-2.43c-10.6201-3.69-22.15-3.47-32.8201-7.02
		C1101.4399,216.77,1097.35,214.21,1092.78,212.94 M1214.38,223.18l-0.11,0.61c10.7999,4.45,23.49,4.58,34.27,0l0.21-0.6
		C1237.91,218.74,1225.2,218.64,1214.38,223.18 M1058.59,376.63c-3.97,1.16-8.51,1.49-11.7999,4.21c1.84,0.95,3.86,1.6,5.58,2.81
		c8.77,7.17,17.1901,14.79,25.63,22.36c9.34,8.27,20.62,14.91,33.17,16.54c9.5199,1,19.5599,0.23,28.21-4.16
		c0.78-0.68,2.5-0.96,2.41-2.25c-11.48-3.75-24-3.7-35.1001-8.84c-11.74-5.14-21.3899-13.78-32.1799-20.5l0.12-1.15
		c9.1-0.35,18.23-0.27,27.34,0.02c10.91,0.43,21.49,4.53,30.04,11.29c8.37,5.93,15.13,14.1,24.2,19.02
		c0.03-3.07-1.3099-5.91-2.5599-8.64c-5.16-10.5-12.61-20.03-22.2101-26.81c-9.0299-6.58-20.37-9.53-31.45-9.31
		C1086,370.95,1072.24,373.93,1058.59,376.63z"/>
	<path fill="#95CE99" stroke="#95CE99" stroke-width="0.0938" d="M1255.87,94.14c54.28,12.32,107.74,28.35,159.6901,48.31
		c70.37,26.68,138.0299,60.68,200.85,102.17c61.38,40.7,118.11,88.87,166.0399,144.91c47.6101,55.59,86.3401,119.3,110.3,188.62
		c14.12,40.92,23.1,83.64,26.23,126.8199c0.4301,5.2,0.09,10.45,1.02,15.61v36.84c-0.75,4.14-0.65,8.36-0.79,12.56
		c-5.11,83.46-32.7,164.86-76.14,236.08c-36.1599,59.77-82.7999,112.78-135.22,158.77c-29.89,26.25-61.8199,50.13-95.0399,71.99
		c-9.4401,6.42-19.42,12.04-28.8301,18.4501c-0.2999,1.25-0.47,2.54-0.5,3.85c-1.99-24.8099-5.96-49.4-8.48-74.15
		c-2.8101-21.97-4.8199-44.02-7.3101-66.02C1555.92,1018.36,1537.29,918.39,1533.75,816.98c-0.26-14.34-0.8-28.67-0.85-43
		c-0.03-7.88-1.29-15.93-4.87-23.01c-3.4401-6.86-9.0801-12.54-15.8201-16.18c-7.4099-4.15-15.89-5.82-24.25-6.62
		c-19.1699-1.44-38.3199,1.91-56.8099,6.77c1.83-4.55,0.25-9.64,2.0399-14.22c0.54,3.07,0.5,6.25,1.4501,9.25
		c1.0699-19.49,5.58-38.54,8.85-57.73c4.67-23.65,9.27-47.34,12.52-71.25c2.78-20.2,4.39-40.67,2.95-61.05
		c-1.0399-10.99-3.1-22.33-9.1899-31.75c-4.54-7.07-11.8-11.63-18.4-16.53c-21.22-14.74-44.71-27-70.1899-32.23
		c3.6799-6.8,11.4099-10.96,13.4099-18.77c2.65-10.13-2.2999-20-6.09-29.12c-2.2-5.44-5.33-11.77-2.45-17.56
		c3.09-6.1,6.71-11.93,10.0599-17.9c19.85-34.35,39.48-68.93,55.76-105.15c7.96-18.24,15.6901-36.91,18.62-56.72
		c1.46-7.14,5.0701-13.68,6.02-20.94c1.26-7.14-0.8201-14.34-4.15-20.62c-6.25-12.77-18.41-21.6-31.5-26.45
		c-20.39-7.44-42.4399-7.84-63.88-7.59c-2.76-0.14-5.3099,1.31-6.71,3.64c-5.89,8.57-11.26,17.49-16.55,26.45
		c-21.26,36.61-40.5399,74.36-58.1599,112.86c-3.77,7.79-6.6201,16.01-10.5701,23.71c-0.02-9.13,1.41-18.2,1.49-27.34
		c0.71-12.52,0.15-25.08,0.72-37.61c0.9501-1.59,1.67-3.33,1.5-5.23c-0.11-11.05,0.02-22.11-0.0699-33.16
		c-0.73-14.33-1.26-28.69-2.77-42.97C1264.02,137.14,1260.05,115.6,1255.87,94.14z"/>
	<path fill="#FFFFFF" stroke="#FFFFFF" stroke-width="0.0938" d="M1357.16,146.91c20.23-0.1,41.08-0.27,60.37,6.74
		c7.85,3.02,15.6599,7.18,21.15,13.7c1.99,9.12,0.1899,18.59-0.8501,27.75c-1.6,9.62-1.61,19.46-3.86,28.97
		c-3.9199,17.31-11.38,33.59-19.8099,49.12c-10.3201,18.98-22.3401,36.96-33.54,55.42c-6.1801,9.96-12.8099,19.73-17.48,30.53
		c-3.66,8.04-5.96,17.58-1.8,25.89c-1.71,3.85-3.9399,7.5-4.7,11.7c-3.2001-0.06-7.02-1.31-9.5601,1.33
		c-4.0299,4.03-3.2699,10.43-1.61,15.38c0.61,1.32,0.11,3.29-1.6,3.28c-14.51,0.85-23.64,19.54-16.4,31.86
		c2.1,3.41,5.28,6.82,9.54,7.11c1.12,0.6,3.9299-0.47,3.9399,1.3c-16.13-0.36-32.6499,3.55-45.8099,13.16
		c-6.37,4.6-11.65,10.63-15.54,17.44c-6.52,10.93-9.3099,23.55-15.13,34.81c-3.84,7.8199-10.84,13.73-13.87,21.99
		c-1.1,2.41,0.4601,5.16-0.47,7.48c-5.54,5.22-10.91,10.61-15.98,16.28c-12.14,12.5-29.28,21.55-47.11,19.99
		c-25.4-1.63-49.2001-12.95-69.75-27.43c-6.4701-4.91-13.3501-9.57-18.51-15.92c8.58,0.21,17.28,0.02,25.53-2.63
		c19.47-5.69,35.4199-19.3199,48.46-34.41c19.64-22.94,34.1-49.62,49.52-75.43c2.7,2.9,7.52,5.02,7.01,9.7
		c-0.12,6.88,2.22,14.56,8.2899,18.44c5.4601,3,11.7201,0.29,17.02-1.71c4.38-2.04,9.04,0.3,13.39,1.26
		c5.13,1.47,11.25,2.32,15.79-1.17c2.26-1.45,3.34-4.23,2.6599-6.83c-1.35-5.85-5.5699-10.53-7.2-16.27
		c-0.85-5-0.64-10.71-4.28-14.71c-2.9399-3.13-7.65-3.03-11.5499-2.34c-6.14,0.94-11.9301,4.7-18.3101,3.1
		c-5.34-1.19-10.85-1.65-16.14,0.02c13.1901-20.87,22.14-44.19,27.8101-68.16c0.4099-3.35,3.63-5.09,5.36-7.71
		c-0.24-9.24,3.65-17.87,6.51-26.47c14.8099-38.6,33.48-75.58,52.78-112.09C1332.67,186.85,1343.75,166.12,1357.16,146.91
		 M1372.41,168.69c-3.53,0.73-7.49,2.63-8.5,6.39c-0.8201,3.78,1.6,7.31,4.2,9.81c6.5,5.99,15.1901,9.13,23.86,10.23
		c5,0.45,10.4301,0.36,14.91-2.22c2.74-1.48,4.37-4.83,3.45-7.88c-1.35-4.57-5.2899-7.72-9.12-10.21
		C1392.65,169.7,1382.33,167.06,1372.41,168.69 M1331.26,211.25c-5.6,5.37-9.16,12.35-12.98,18.99
		c-11.74,20.28-21.3201,41.78-28.8301,63.95c-0.46,3.15-0.73,7.1,1.92,9.41c14.41,11.86,31.85,19.03,49.03,25.87
		c7.2999,2.01,14.46,6.06,22.25,5.14c2.58-2.2,3.89-5.44,5.6-8.29c5.13-8.81,9.75-17.93,13.67-27.35
		c5.64-11.49,9.87-23.6,14.22-35.62c1.6-6.02,4.09-11.98,3.65-18.34c-0.29-2.74,0.7799-6.18-1.5601-8.24
		c-4.16-4.49-9.88-6.99-15.29-9.57c-11.75-4.72-24.1299-7.53-35.96-11.99c-4.48-1.09-7.97-4.35-12.3099-5.7
		C1333.17,208.92,1332.23,210.44,1331.26,211.25 M1134.41,558.53c2.36,2.72,7.85,1.3799,7.9099-2.53
		C1141.4,550.8,1132.49,553.75,1134.41,558.53z"/>
	<path stroke="#000000" stroke-width="0.0938" d="M1372.41,168.69c9.9199-1.63,20.24,1.01,28.7999,6.12
		c3.8301,2.49,7.77,5.64,9.12,10.21c0.92,3.05-0.71,6.4-3.45,7.88c-4.48,2.58-9.91,2.67-14.91,2.22
		c-8.6699-1.1-17.36-4.24-23.86-10.23c-2.6-2.5-5.02-6.03-4.2-9.81C1364.92,171.32,1368.88,169.42,1372.41,168.69z"/>
	<path fill="#99CB9C" stroke="#99CB9C" stroke-width="0.0938" d="M868.72,207.72c1.04-4.32,3.84-7.98,7.3101-10.67
		c-0.92,3.31-2,6.58-3.05,9.85c-2.08,6.53-2.54,13.47-2.32,20.29C868.39,221.02,866.89,214.21,868.72,207.72z"/>
	<path fill="#010201" stroke="#010201" stroke-width="0.0938" d="M1192.3,202c2.83,9.24,4.88,18.7,7.49,28.01
		c6.5499,25.84,14.26,51.48,17.96,77.95c1.11,7.89,3.1899,16.01,1.4,23.97c-1.01,4.99-5.3101,8.9-10.29,9.7
		c-7.79,1.26-15.65-0.48-23.16-2.46c-10.48-2.97-20.71-6.8-30.6499-11.25c-3.0901-1.38-6.29-2.59-9.03-4.6
		c11.95,2.66,23.63,6.39,35.5699,9.15c7.92,1.84,16.04,3.74,24.23,3.03c3.2201-0.27,6.3501-2.47,6.7101-5.86
		c0.98-7.31-1.29-14.51-2.2101-21.7c-3.6399-24.76-9.99-48.99-14.5299-73.58C1193.92,223.67,1192.3,212.87,1192.3,202z"/>
	<path fill="#DDFEE1" stroke="#DDFEE1" stroke-width="0.0938" d="M1331.26,211.25c0.97-0.81,1.91-2.33,3.41-1.74
		c4.34,1.35,7.83,4.61,12.3099,5.7c11.8301,4.46,24.21,7.27,35.96,11.99c5.41,2.58,11.13,5.08,15.29,9.57
		c2.34,2.06,1.27,5.5,1.5601,8.24c0.4399,6.36-2.05,12.32-3.65,18.34c-4.35,12.02-8.58,24.13-14.22,35.62
		c-3.92,9.42-8.54,18.54-13.67,27.35c-1.71,2.85-3.02,6.09-5.6,8.29c-7.79,0.92-14.9501-3.13-22.25-5.14
		c-17.1801-6.84-34.62-14.01-49.03-25.87c-2.65-2.31-2.38-6.26-1.92-9.41c7.51-22.17,17.0901-43.67,28.8301-63.95
		C1322.1,223.6,1325.66,216.62,1331.26,211.25z"/>
	<path fill="#010201" stroke="#010201" stroke-width="0.0938" d="M1092.78,212.94c4.5699,1.27,8.6599,3.83,13.21,5.19
		c10.67,3.55,22.2,3.33,32.8201,7.02c1.08,0.63,3.3899,0.63,2.84,2.43c-6.09,1.58-12.4501,1.16-18.67,1.15
		c-9.86-0.28-20.2999-3.1-27.2999-10.4C1094.42,216.76,1092.67,215.08,1092.78,212.94z"/>
	<path fill="#010101" stroke="#010101" stroke-width="0.0938" d="M1214.38,223.18c10.8199-4.54,23.53-4.44,34.37,0.01l-0.21,0.6
		c-10.78,4.58-23.4701,4.45-34.27,0L1214.38,223.18z"/>
	<path fill="#DDFEE1" stroke="#DDFEE1" stroke-width="0.0938" d="M904,310.19c2.7-5.69,3.15-12.14,6.04-17.75
		c2.26,1.2,4.63,2.67,5.23,5.37c3.69,11.33,3.55,23.5,6.88,34.92c7.35,26.33,22.22,49.82,39.0699,71.06
		c15.25,19.28,32.22,37.08,48.8101,55.18c8.6899,9.68,17.71,19.14,25.21,29.81c5.9,8.36,11.63,16.84,17.77,25.03
		c-1.29,8.04-0.92,16.31-0.25,24.39c0.53,27.61,2.84,55.23,7.84,82.4c3.28,18.04,7.27,36.01,13.16,53.39
		c-23.88,4.72-47.8,9.46-71.91,12.88c-51.36,7.2-103.66,7.3-155.09,0.68c-19.15-2.39-38.19-5.61-57.12-9.32
		c-14.25-2.62-28.33-6.26-42.7-8.11c10.74,6.26,22.61,10.29,34.25,14.53c51.33,16.99,105.87,24.35,159.87,21.73
		c41.54-2.37,83.08-10.02,121.79-25.56c3.99-1.4,7.5701-3.99,11.77-4.71c12.54,29.35,34.85,52.89,57.47,74.78
		c14.7101,14.29,29.8301,28.18,43.8,43.21c11.52,12.83,22.47,26.48,29.85,42.19c35.2,71.75,69.23,144.06,103.92,216.06
		c9.6,20.3,20.2,40.11,29.46,60.5801c8.27,17.59,16.3,35.2999,25.45,52.46c4.5901,8.5499,8.9801,17.3199,15.16,24.88
		c4.89,6.0599,9.98,12.03,16,17c3.2001,2.5599,6.9301,5.1899,11.26,4.91c3.92-0.17,7.28-3.3501,8-7.16
		c1.1-5.25,0.92-10.67,1.29-15.99c0.6699-20.3301,0.1-40.67-0.13-61c-1.23-51.76-3.6-103.53-9.15-155.03
		c-1.53-13.74-3.3199-27.45-5.8199-41.05c-1.8601-11.36-4.4-22.65-8.7001-33.35c-7.49-18.3199-16.24-36.09-23.6-54.45
		c-6.51-16.89-13.59-33.9301-15.62-52.05c-0.03-5.3199-1.17-12.4,3.96-15.84c18.5901-8.4,37.8401-15.33,57.23-21.69
		c17.0601-5.25,34.4801-9.7,52.25-11.69c12.26-0.98,25.2201-1.38,36.7201,3.71c7.24,3.11,12.5,9.97,14.11,17.64
		c1.72,8.13,0.76,16.51,1.13,24.76c0.84,99.07,17.59,196.96,30.75,294.89c3.74,26.9301,6.71,53.96,9.6799,80.98
		c5.02,46.66,13.8,93.0701,13.8,140.14c0.67,26.33,1.3099,52.7-0.14,79.02c-0.52,11.27-1.7,22.5699-3.97,33.63
		c-1.41,4.9-2.3201,10.38-5.88,14.25c-14.79,8.27-32.0701,11.65-48.9401,10.87c-18.14-0.72-35.88-5.86-52.3199-13.39
		c-29.75-13.55-56-33.97-78.48-57.54c-24.27-25.71-42.0601-56.58-58.02-87.9c-16.96-33.0599-32.21-67.1699-52.92-98.1499
		c-10.53-15.8201-21.98-31.1001-35.1-44.86c-24.9399-27.4901-53.22-51.64-81.77-75.25c-9.76-7.63-20.78-13.65-29.9199-22.0801
		c-1.12-1.2999-3.05-2.47-2.7001-4.4299c0.84-0.79,1.9301-1.26,2.84-1.9601c-3.12-0.51-4.2899,3.42-2,5.2001
		c9.55,10.58,22.3601,17.4399,32.87,26.95c-1.3899,0.27-2.6899-0.17-3.71-1.08c-8.74-6.5901-17.88-12.9-28.1799-16.79
		c-3.53-1.36-7.3501-1.42-11.0601-1.54c5.04-45.2499,11.25-90.41,14.03-135.8799c0.24-5.72,0.6-11.46,0.21-17.18
		c-4.73,19.81-8.03,39.96-11.79,59.99c-9.2,52.52-17.98,105.15-23.99,158.15c-2.4299,20.9-4.2799,41.9-4.11,62.97
		c0.0701,55.36,2.66,110.6801,5.74,165.9399c1.41,25.26,3.26,50.5,5.25,75.7201c-2.6899,4.14-4.09,9.0399-7.3199,12.85
		c-2.8,3.52-7.37,4.7-11.08,6.96c-4.29,2.6801-9.3501,3.3101-14.1001,4.74c-32.38,9.6001-65.85,15.1801-99.45,18.3201
		c-10.61,1.0499-21.22,2.53-31.9,2.12c-2.31-0.12-4.52,0.5699-6.65,1.35h-48.69c-4.31-1.99-9.1-1.1899-13.68-1.34
		c-12.97-0.6-25.88-2.41-38.9-2.05c-10.36,0.17-20.74-0.21-31.09,0.26c-11.15,1.63-22.72,0.02-33.62,3.13h-51.81
		c-6.33-1.98-13-1.96-19.5-2.99c-9.22-1.11-18.34-2.9301-27.6-3.71c-11.9-1.0601-23.52-4.3101-35.49-4.66
		c-12.31-1.01-24.63-1.77-36.93-2.88c-11.74,0.1-23.34-2.28-35.08-2.09c-6.69-0.1901-13.35-1.1001-20.02-1.5901
		c-5.56-0.7999-11.26,0.2301-16.74-1.1599c-4.66-1.15-9.48-0.76-14.22-1.0701c-5.04-0.26-10.03-1.12-15.06-1.46
		c-20.38-1.11-40.69-3.24-61.02-5.0601c-17.55-2.14-35.21-3.62-52.64-6.6c-4.95-1.13-4.92-7.1-8.09-10.12
		c13.06-39.92,24-80.5,34.41-121.1799c23.31-91.02,44.24-182.63,68.29-273.4501c14.15-53.6,28.75-107.2,48.07-159.21
		c6.29-16.17,12.62-32.43,21.41-47.44c14.17-24.84,34.88-45.37,57.66-62.38c23.63-18.03,49.6-32.61,74.98-47.99
		c30.3-18.18,60.47-37.29,85.84-62.14c41.34-41.41,78.89-87.57,104.57-140.45c23.18-47.19,36.02-99.14,39.46-151.52
		C904.15,341.33,903.62,325.74,904,310.19 M604.19,817.91c0.37,8.3701,2.35,16.57,3.4,24.8701
		c9.2,53.8799,18.48,107.84,23.35,162.3199c4.63,52.39,5.12,105.4-2.2,157.5701c-2.72,20.38-7.55,40.38-11.56,60.5199
		c-8.58,43.67-17.26,87.3201-27.06,130.7301c-5.74,24.64-11.52,49.34-19.75,73.2899c-2.16,7.01-5.57,13.52-9.07,19.9301
		c7.55-7.35,11.91-17.24,16.19-26.7001c12.38-28.99,20.8-59.47,28.88-89.8799c12.14-46.54,21.8-93.67,32.27-140.6001
		c9.22-45.6499,11.44-92.48,8.95-138.9199c-2.6201-52.89-11.07-105.3701-22.81-156.96C618.8,868.47,612.71,842.8,604.19,817.91z"/>
	<path fill="#010101" stroke="#010101" stroke-width="0.0938" d="M903.4,302.98c0.47,2.37,0.56,4.79,0.6,7.21
		c-0.38,15.55,0.15,31.14-1.16,46.66c-3.44,52.38-16.28,104.33-39.46,151.52c-25.68,52.88-63.23,99.04-104.57,140.45
		c-25.37,24.85-55.54,43.96-85.84,62.14c-25.3799,15.38-51.35,29.96-74.98,47.99c-22.78,17.01-43.49,37.54-57.66,62.38
		c-8.79,15.01-15.12,31.27-21.41,47.44c-19.32,52.01-33.92,105.61-48.07,159.21c-24.05,90.8201-44.98,182.4301-68.29,273.4501
		c-10.41,40.6799-21.35,81.2599-34.41,121.1799c-2.3,6.46-4.52,12.9501-7.07,19.3201c3.35-13.8201,7.4-27.4801,10.36-41.39
		c2.82-9.3501,4.56-18.99,6.88-28.4701c12.33-52.1899,23.37-104.6799,35.19-156.99c10.31-47.38,21.13-94.6499,32.31-141.8199
		c9.46-38.52,18.82-77.09,29.65-115.26c6.58-23.6,13.67-47.07,21.39-70.33c9.06-26.48,18.81-52.93,32.8-77.26
		c16.86-27.3,40.55-49.72,66.65-68.09c17.63-12.62,36.32-23.65,54.91-34.79c12.91-6.95,25.2401-14.95,37.77-22.55
		c24.55-15.06,48.13-32.04,68.25-52.76c41.19-41.3799,78.65-87.62,103.55-140.75c24.77-50.88,36.4-107.13,40.91-163.26
		C902.23,319.8,903.12,311.4,903.4,302.98z"/>
	<path fill="#DDFDE1" stroke="#DDFDE1" stroke-width="0.0938" d="M900.41,326.05c0.33,0.54,0.97,1.62,1.29,2.16
		c-4.51,56.13-16.14,112.38-40.91,163.26c-0.55-3.87,1.63-7.34,2.7-10.92c11.71-34.74,18.99-70.73,26.55-106.54
		C893.28,357.98,897.14,342.08,900.41,326.05z"/>
	<path fill="#CE2B5D" stroke="#CE2B5D" stroke-width="0.0938" d="M1058.59,376.63c13.65-2.7,27.41-5.68,41.4-5.41
		c11.08-0.22,22.42,2.73,31.45,9.31c9.6001,6.78,17.05,16.31,22.2101,26.81c1.25,2.73,2.59,5.57,2.5599,8.64
		c-9.0699-4.92-15.83-13.09-24.2-19.02c-8.55-6.76-19.13-10.86-30.04-11.29c-9.11-0.29-18.24-0.37-27.34-0.02l-0.12,1.15
		c10.79,6.72,20.4399,15.36,32.1799,20.5c11.1001,5.14,23.6201,5.09,35.1001,8.84c0.09,1.29-1.63,1.57-2.41,2.25
		c-8.65,4.39-18.6901,5.16-28.21,4.16c-12.55-1.63-23.8301-8.27-33.17-16.54c-8.4399-7.57-16.86-15.19-25.63-22.36
		c-1.72-1.21-3.74-1.86-5.58-2.81C1050.08,378.12,1054.62,377.79,1058.59,376.63z"/>
	<path fill="#DDFEE1" stroke="#DDFEE1" stroke-width="0.0938" d="M1320.8199,473.63c15.4901-4.11,31.91-1.94,47.1001,2.46
		c20.21,5.84,38.99,15.85,56.2799,27.71c5.88,4.33,12.76,8.16,15.9301,15.11c4.35,9.1,5.86,19.3,6.5,29.28
		c1.58,35.76-3.87,71.29-8.08,106.69c-2.63,21.86-5.5801,43.78-5.3601,65.84c-1.7899,4.58-0.21,9.67-2.0399,14.22
		c-23.6901,5.83-46.6801,14.2-69.2101,23.5c-1.71-3.23-2.9199-6.67-4.36-10c0.77-9.3,2.3101-18.83-0.0699-28.03
		c-4.4-17.55-14.91-32.8199-26.66-46.27c-23.28-26.26-52.1699-46.62-77.0499-71.23c-0.8601-13.24,8.46-23.8,12.1899-35.87
		c0.79-2.12,1.0701-4.38,1.6-6.57c11.91,0.21,24.4501-0.17,35.3401-5.58c10.5499-5.76,17.12-16.22,25.3099-24.64
		c4.17-4.26,8.86-8.72,14.9401-9.86c9.13-1.04,17.88,2.58,25.97,6.42c6.9299,3.36,14.08,6.25,21.47,8.46
		c-0.5599,3.3-1.61,6.5-2.3,9.78c1.77-3.58,3.63-7.18,4.63-11.06c-2.9399-1.87-6.2799-2.95-9.3099-4.61
		c-9.8201-5.2-18.92-11.98-29.64-15.27c-6.67-2.05-14.1899-1.98-20.42,1.38c-12.6699,6.53-20.2999,19.25-31.5599,27.59
		c-5.96,4.51-13.75,4.99-20.92,5.67c-5.7999,0.15-12.0699,0.75-17.4399-1.82c1.15-3.96,4.77-6.81,7.0599-10.21
		c11.3401-14.1,13.39-33.24,24.55-47.43C1301.52,481.14,1311.2,476.52,1320.8199,473.63z"/>
	<path fill="#95CE99" stroke="#95CE99" stroke-width="0.0938" d="M1053.01,513.81c8.58,10.52,18.37,20.38,30.6,26.57
		c0.64,3.3,0.55,6.7,1.22,10.01c1.88,9.29,6.51,17.91,12.88,24.9c10.12,11.19,23.54,18.6,36.89,25.23
		c16.0601,8.16,32.98,15.1,50.79,18.27c4.96,0.88,10.21,1.59,15.08-0.14c11.02-3.57,20.36-10.75,29.3201-17.86
		c12.8999-10.34,24.3999-22.23,36.2-33.75c-3.73,12.07-13.05,22.63-12.1899,35.87c-3.91-3.59-6.9601-8.18-11.5701-10.93
		c4.25,13.77,13.3,25.4,22.62,36.15c11.98,13.34,25.12,25.57,38.0601,37.97c17.7899,17.53,36.39,35.89,45.11,59.88
		c3.5,10.19,2.0699,21.35,5.6899,31.53c0.2201,1.28,1.16,2.61,0.74,3.93c-4.08,2.02-8.3899,4.13-10.9199,8.11
		c-5.67,8.48-5.38,19.35-3.91,29.05c2.92,17.32,9.15,33.84,15.72,50.06c7.53,18.54,16.2101,36.58,23.91,55.04
		c4.8199,11.43,6.85,23.75,9.0601,35.89c7.4099,46.1299,10.45,92.83,12.84,139.45c1.27,28.63,2.25,57.2899,2.2999,85.96
		c-0.12,10.39,0.29,20.8-0.51,31.17c-6.9299-5.01-12.0199-12.13-17.1299-18.88c-10.2101-17.53-19.8-35.4301-28.3301-53.8401
		c-15.4-33.2-32.2-65.7-48.4-98.51c-27.5499-55.77-54.74-111.7299-82.64-167.33c-8.3899-16.35-15.6599-33.46-26.9199-48.14
		c-28.5-37.58-68.4301-64.36-98.22-100.79c-11.5-14.07-21.17-29.93-26.4801-47.4C1063.16,622.2,1056.28,581.72,1054.02,541.01
		c-0.55-6.2,0.1799-12.49-0.59-18.64c-0.17,5.28-0.2001,10.57-0.67,15.83C1052.09,530.12,1051.72,521.85,1053.01,513.81z"/>
	<path fill="#000101" stroke="#000101" stroke-width="0.0938" d="M1053.4301,522.37c0.7699,6.15,0.0399,12.44,0.59,18.64
		c2.26,40.71,9.14,81.19,20.7999,120.27c5.3101,17.47,14.9801,33.33,26.4801,47.4c29.7899,36.43,69.72,63.21,98.22,100.79
		c11.26,14.6801,18.53,31.79,26.9199,48.14c27.9,55.6,55.0901,111.56,82.64,167.33c16.2001,32.8101,33,65.3101,48.4,98.51
		c8.53,18.41,18.12,36.3101,28.3301,53.8401c5.11,6.75,10.2,13.87,17.1299,18.88c0.8-10.37,0.39-20.78,0.51-31.17
		c-0.0499-28.67-1.0299-57.33-2.2999-85.96c-2.39-46.62-5.4301-93.3201-12.84-139.45c-2.2101-12.14-4.2401-24.46-9.0601-35.89
		c-7.7-18.46-16.38-36.5-23.91-55.04c-6.5699-16.22-12.7999-32.74-15.72-50.06c-1.47-9.7-1.76-20.5699,3.91-29.05
		c2.53-3.98,6.84-6.09,10.9199-8.11c0.42-1.32-0.5199-2.65-0.74-3.93c-3.62-10.18-2.1899-21.34-5.6899-31.53
		c-8.72-23.99-27.3201-42.35-45.11-59.88c-12.9401-12.4-26.0801-24.63-38.0601-37.97c-9.3199-10.75-18.37-22.38-22.62-36.15
		c4.61,2.75,7.66,7.34,11.5701,10.93c24.88,24.61,53.7699,44.97,77.0499,71.23c11.75,13.45,22.26,28.72,26.66,46.27
		c2.38,9.2,0.84,18.73,0.0699,28.03c-0.71,3.88-1.36,7.84-0.87,11.8c1.77-0.47,3.52-1.09,5.23-1.8
		c22.53-9.3,45.52-17.67,69.2101-23.5c18.49-4.86,37.64-8.21,56.8099-6.77c8.36,0.8,16.8401,2.47,24.25,6.62
		c6.74,3.64,12.38,9.32,15.8201,16.18c3.58,7.08,4.84,15.13,4.87,23.01c0.0499,14.33,0.59,28.66,0.85,43
		c3.54,101.41,22.17,201.38,33.9399,301.97c2.4901,22,4.5,44.05,7.3101,66.02c2.52,24.75,6.49,49.3401,8.48,74.15
		c2.9301,27.53,1.87,55.25,2.6901,82.88c-0.49,25.6899-0.3401,51.63-5.4601,76.9301c-2.2,8.71-4.58,18.8999-12.7999,23.9299
		c-18.0601,9.27-38.8401,12.79-59,10.92c-31.0901-2.92-60.1801-16.5701-85.67-34.0601c-24.92-17.28-47-38.63-65.08-62.97
		c-22.4-30.5699-38.65-64.98-54.8201-99.08c-14.5599-30.7201-29.89-61.36-50.2799-88.6901c-21.3101-28.97-46.9601-54.38-73.3-78.73
		c-7.78-6.96-15.27-14.25-23.3201-20.89c-10.5099-9.51-23.3199-16.37-32.87-26.95c-2.2899-1.78-1.12-5.7101,2-5.2001
		c-0.9099,0.7001-2,1.17-2.84,1.9601c-0.35,1.96,1.5801,3.13,2.7001,4.4299c9.1399,8.4301,20.1599,14.4501,29.9199,22.0801
		c28.55,23.61,56.8301,47.7599,81.77,75.25c13.12,13.7599,24.5699,29.0399,35.1,44.86c20.7101,30.98,35.9601,65.09,52.92,98.1499
		c15.96,31.3201,33.75,62.1901,58.02,87.9c22.48,23.5701,48.73,43.99,78.48,57.54c16.4399,7.53,34.1799,12.67,52.3199,13.39
		c16.87,0.78,34.15-2.6,48.9401-10.87c3.5599-3.87,4.47-9.35,5.88-14.25c2.27-11.0601,3.45-22.36,3.97-33.63
		c1.45-26.3201,0.8101-52.6901,0.14-79.02c0-47.0699-8.78-93.48-13.8-140.14c-2.97-27.02-5.9399-54.0499-9.6799-80.98
		c-13.16-97.93-29.91-195.82-30.75-294.89c-0.37-8.25,0.59-16.63-1.13-24.76c-1.61-7.67-6.87-14.53-14.11-17.64
		c-11.5-5.09-24.4601-4.69-36.7201-3.71c-17.7699,1.99-35.1899,6.44-52.25,11.69c-19.3899,6.36-38.6399,13.29-57.23,21.69
		c-5.13,3.44-3.99,10.52-3.96,15.84c2.03,18.12,9.11,35.16,15.62,52.05c7.36,18.36,16.11,36.13,23.6,54.45
		c4.3,10.7,6.84,21.9901,8.7001,33.35c2.5,13.6,4.2899,27.31,5.8199,41.05c5.55,51.5,7.92,103.27,9.15,155.03
		c0.23,20.33,0.7999,40.6699,0.13,61c-0.37,5.3199-0.1901,10.74-1.29,15.99c-0.72,3.8099-4.08,6.99-8,7.16
		c-4.33,0.2799-8.0599-2.3501-11.26-4.91c-6.02-4.97-11.11-10.9401-16-17c-6.1799-7.5601-10.5699-16.3301-15.16-24.88
		c-9.1499-17.16-17.1799-34.87-25.45-52.46c-9.26-20.4701-19.86-40.28-29.46-60.5801c-34.6901-72-68.7201-144.31-103.92-216.06
		c-7.38-15.71-18.33-29.36-29.85-42.19c-13.97-15.03-29.09-28.92-43.8-43.21c-22.62-21.89-44.9299-45.43-57.47-74.78
		c-4.2,0.72-7.78,3.31-11.77,4.71c-38.71,15.54-80.25,23.19-121.79,25.56c-54,2.62-108.54-4.74-159.87-21.73
		c-11.64-4.2401-23.51-8.27-34.25-14.53c14.37,1.85,28.45,5.49,42.7,8.11c18.93,3.71,37.97,6.93,57.12,9.32
		c51.43,6.62,103.73,6.52,155.09-0.68c24.11-3.42,48.03-8.16,71.91-12.88c-5.89-17.38-9.88-35.35-13.16-53.39
		c-5-27.17-7.3099-54.79-7.84-82.4C1053.23,532.94,1053.26,527.65,1053.4301,522.37z"/>
	<path fill="#333333" stroke="#333333" stroke-width="0.0938" d="M1134.41,558.53c-1.92-4.78,6.99-7.73,7.9099-2.53
		C1142.26,559.91,1136.77,561.25,1134.41,558.53z"/>
	<path fill="#DCFBE0" stroke="#DCFBE0" stroke-width="0.0938" d="M645.46,709.5c1.75-1.06,3.69-1.84,5.7599-1.97
		c-18.59,11.14-37.28,22.17-54.91,34.79c-26.1,18.37-49.79,40.79-66.65,68.09c-0.47-3.21,1.86-5.81,3.26-8.46
		c9.4-15.99,22.16-29.72,36.05-41.91C592.14,739.95,618.72,724.31,645.46,709.5z"/>
	<path fill="#9DC99C" stroke="#9DC99C" stroke-width="0.0938" d="M1356.71,760.24c-0.49-3.96,0.16-7.92,0.87-11.8
		c1.4401,3.33,2.65,6.77,4.36,10C1360.23,759.15,1358.48,759.77,1356.71,760.24z"/>
	<path fill="#000100" stroke="#000100" stroke-width="0.0938" d="M604.19,817.91c8.52,24.89,14.61,50.56,20.59,76.17
		c11.74,51.59,20.1899,104.07,22.81,156.96c2.49,46.4399,0.27,93.27-8.95,138.9199c-10.47,46.9301-20.13,94.0601-32.27,140.6001
		c-8.08,30.4099-16.5,60.8899-28.88,89.8799c-4.28,9.4601-8.64,19.3501-16.19,26.7001c3.5-6.41,6.91-12.92,9.07-19.9301
		c8.23-23.95,14.01-48.6499,19.75-73.2899c9.8-43.41,18.48-87.0601,27.06-130.7301c4.01-20.1399,8.84-40.1399,11.56-60.5199
		c7.32-52.17,6.83-105.1801,2.2-157.5701c-4.87-54.48-14.15-108.44-23.35-162.3199C606.54,834.48,604.56,826.28,604.19,817.91z"/>
	<path fill="#000100" stroke="#000100" stroke-width="0.0938" d="M1115.9399,956.88c3.76-20.03,7.0601-40.18,11.79-59.99
		c0.39,5.72,0.03,11.46-0.21,17.18c-2.78,45.47-8.99,90.63-14.03,135.8799c-3.09,24.4801-5.8199,49.01-8.13,73.5901
		c-2.5499,23.3999-3.37,46.9399-3.03,70.47c0.3101,53,1.42,105.99,1.92,158.99c0.11,19.03-0.0699,38.0601-0.48,57.09
		c-0.52,12.3301-0.23,24.78-2.26,36.99c-0.92-9.14-1.96-18.2699-2.6801-27.4199c-1.99-25.2201-3.84-50.4601-5.25-75.7201
		c-3.08-55.2599-5.6699-110.58-5.74-165.9399c-0.1699-21.0699,1.6801-42.0699,4.11-62.97
		C1097.96,1062.03,1106.74,1009.4,1115.9399,956.88z"/>
	<path fill="#DDFDE0" stroke="#DDFDE0" stroke-width="0.0938" d="M474.27,957.59c0.3,0.1,0.9,0.31,1.2,0.41
		c-10.83,38.17-20.19,76.74-29.65,115.26c-0.95-4,0.1-8.05,0.61-12.02c3.01-20.99,6.24-42.05,12.52-62.36
		C463.13,984.79,469.16,971.35,474.27,957.59z"/>
	<path fill="#95CE99" stroke="#95CE99" stroke-width="0.0938" d="M1113.49,1049.95c3.71,0.12,7.53,0.1801,11.0601,1.54
		c10.2999,3.89,19.4399,10.2,28.1799,16.79c1.02,0.9099,2.3201,1.35,3.71,1.08c8.05,6.64,15.54,13.9301,23.3201,20.89
		c26.34,24.35,51.99,49.76,73.3,78.73c20.3899,27.3301,35.72,57.97,50.2799,88.6901c16.17,34.1,32.42,68.51,54.8201,99.08
		c-27.4701,9.23-55.49,16.77-83.5801,23.84c-47.89,11.6801-96.4399,20.5901-145.35,26.74c-8.49,0.87-16.91,2.55-25.46,2.76
		c0.41-19.0299,0.59-38.0599,0.48-57.09c-0.5-53-1.61-105.99-1.92-158.99c-0.34-23.53,0.4801-47.0701,3.03-70.47
		C1107.67,1098.96,1110.4,1074.4301,1113.49,1049.95z"/>
	<path fill="#DFFCE2" stroke="#DFFCE2" stroke-width="0.0938" d="M412.25,1214.47c0.31,0.15,0.95,0.4501,1.26,0.61
		c-11.82,52.3101-22.86,104.8-35.19,156.99c-2.32,9.4801-4.06,19.12-6.88,28.4701c-1.61-4.66,0.54-9.4701,0.95-14.15
		c3.73-25.3101,11.27-49.89,14.66-75.27c1.12-8.37,4.12-16.4301,4.52-24.89c1.4-2.79,2.21-5.7999,2.83-8.83
		C399.53,1256.1899,406.09,1235.38,412.25,1214.47z"/>
	<path fill="#FDFEFD" stroke="#FDFEFD" stroke-width="0.0938" d="M795.97,1462.87c10.35-0.47,20.73-0.09,31.09-0.26
		c13.02-0.36,25.93,1.4501,38.9,2.05c4.58,0.15,9.37-0.65,13.68,1.34H762.35C773.25,1462.89,784.82,1464.5,795.97,1462.87z"/>
</g>
</svg>
