<?xml version="1.0" encoding="utf-8"?>
<svg version="1.1" id="Layer_1" xmlns="http://www.w3.org/2000/svg" xmlns:xlink="http://www.w3.org/1999/xlink" x="0px" y="0px"
	 viewBox="0 0 1140.983 1667.085" enable-background="new 0 0 1140.983 1667.085" xml:space="preserve">
<g>
	<path fill="#660303" stroke="#660303" d="M306.228,52.522c10.194-12.903,26.93-20.222,43.333-18.805
		c6.278,0.611,15.055,2.167,16.166,9.75c26.152,113.998,83.943,217.302,116.04,329.411c2.514-2.472,6.889-4,7.319-7.917
		c8.125-72.235,15.805-144.636,28.597-216.232c4.542-23.513,9.014-47.291,17.93-69.61c3.139-6.861,6.542-15.055,14.278-17.722
		c9.042-3.458,18.722-6.917,28.569-5.403c10.028,1.597,18.597,7.542,26.43,13.666c2.514,2.083,5.264,4.028,7.139,6.75
		c-8.75,21.597-12.708,44.708-17.541,67.388c-11.833,60.055-21.097,120.581-30.111,181.108c-0.555,3.583-0.972,7.194-1.097,10.819
		c5.125-8.43,6.639-18.347,9.778-27.569c13.666-42.958,32.555-85.207,62.318-119.54c18.014-20.694,40.555-37.86,66.346-47.624
		c43.388-16.791,92.873-10.778,134.359,8.639c11.458,5.542,22.861,11.764,32.263,20.458c4.305,3.778,2.875,10.166,2.292,15.166
		c-2.611,14.222-10.639,29.305-25.041,34.305c-2.486,1.181-4.903-0.472-7.069-1.5c-21.777-11.653-46.041-19.597-70.916-19.639
		c-19.666-0.167-39.319,4.944-56.43,14.625c-22.555,12.708-40.888,32.361-53.277,54.985c-7.097,13.305-12.93,27.805-13.611,43.041
		c-0.07,6.069,0.431,13.541,5.875,17.361c4.542,2.167,9.792,1.542,14.666,2.403c20.319,2.847,39.61,10.541,57.957,19.444
		c20.652,10.305,40.235,22.986,57.388,38.472c13,11.944,24.958,25.805,31.083,42.61c1.042,3.278,3.875,5.375,6.028,7.903
		c4.042,4.597,6.014,10.528,8.028,16.194c26.944-8.986,55.041-13.958,83.138-17.722c44.041-5.667,88.484-7.917,132.887-8.042
		c-11.222,27.638-7,57.93-6.778,86.915c0.403,10.139-3.194,20.333-10.014,27.847c-3.611,4-9.375,3.917-14.25,4.819
		c-15.319,2.542-30.68,4.819-45.916,7.792c13.458,8.292,29.208,11.625,44.694,13.708c29.277,3.611,58.971,2.389,88.207-1.014
		c6,19.305,5.958,40.277,0.07,59.624c-17.611-0.333-35.222-0.986-52.819-0.181c9.042,11.667,18.014,23.43,26.291,35.666
		c4.417,6.861,9.181,13.666,11.903,21.43c2.472,5.278-2.611,9.667-5.597,13.444c-8.472,9.805-21.527,14.708-34.374,13.666
		c0.042-2.639,0.445-5.278,0.139-7.903c-1.569-5.194-6.708-8.25-11.486-10.055c-6.514,4.319-13.75,9.583-22.069,7.292
		c-6.333-0.486-7.167-7.805-10.194-12.069c-5.25-9.153-12.639-20.347-24.597-19.819c-7.194,0.903-15.291,1.903-21.027,6.653
		c-3.43,7.444-0.972,16.097-0.764,24c3.555,30.444,0.458,61.041,0.542,91.568c0.125,21.777-4.055,44.221-15.847,62.846
		c-1.167,2.083-2.972,4.097-2.708,6.667c1.5,29.111,1.556,58.416-1.917,87.401c-2.597,18.861-6.291,38.263-16.75,54.541
		c5.458,13.653,10.833,27.333,15.625,41.249c4.514,13.444,8.778,27.333,8.361,41.68c-0.347,13.889-1.111,27.805-0.097,41.694
		c2.125,24.291-6.111,47.86-14.569,70.221c-21.402,54.319-51.235,104.693-76.013,157.442c-5.458,10.972-8.472,22.861-12.986,34.194
		c-18.236,45.527-39.388,90.068-65.541,131.609c-8.403,12.708-16.472,25.805-27.138,36.777
		c-14.25,14.958-27.638,30.694-41.666,45.86c-7.917,8.444-16.708,16.778-27.902,20.541c-13.194,4.458-27.305,4.583-41.055,5.611
		c-20.444,0.833-40.888,2.986-61.36,1.764c-49.499-2.944-97.734-21.597-136.956-51.805c-15.222-11.986-29.819-25.555-39.152-42.777
		c-15.944-24.416-33.708-47.596-51.624-70.596c-14.153-17.639-28.166-35.611-45.124-50.694
		c-13.653-14.291-25.333-30.305-37.361-45.944c-36.777-49.068-71.374-99.762-103.707-151.859
		c-17.986-29.277-35.236-59.055-50.388-89.901c-9.472-19.541-18.389-39.486-24.125-60.471c-2.458-8.944-4.194-18.139-4.139-27.444
		c0-15.319-0.028-30.638,0.014-45.958c-12.25-10.222-19.194-25.763-20.097-41.555c-2.361-41.749-6.528-83.665-17.347-124.151
		c-3.028-12.528-2.75-25.555-2.125-38.333c2.042-34.194,8.944-67.985,19.041-100.665c13.041-41.36,31.861-81.624,60.249-114.762
		c16.264-18.944,36.097-35.027,58.721-45.735c1.736-23.972,8.555-47.346,17.889-69.402c18.222-42.708,47.555-80.124,82.707-110.234
		c24.361-20.902,51.43-38.527,79.901-53.332c-23.625-34.93-51.471-68.068-87.124-91.235c-20.458-13.014-44.013-23.139-68.679-22.416
		c-12.18,0.319-25.708,4.055-32.485,15.055c-9.625-1.861-16.778-9.278-20.972-17.777c-8.028-16.014-12.528-33.638-14.805-51.332
		c46.735-20.139,101.845-18.222,147.803,3.208c16.416,7.389,31.472,17.43,45.694,28.388c-8.055-25.972-16.375-51.916-22.18-78.513
		c-1.472-7.208-3.056-14.472-3.264-21.847C301.714,57.675,304.381,55.077,306.228,52.522 M309.853,57.466
		c-2.958,3.944-1.389,9.111-0.861,13.541c4.722,25.722,12.514,50.749,20.139,75.707c3.167,10.583,7.305,20.875,9.778,31.666
		c-3.681-2.694-7.305-5.458-10.764-8.403c-12.875-11.222-27.166-20.777-42.388-28.527c-44.444-22.791-98.554-26.305-145.192-8.042
		c1.986,13.611,5.417,27.055,10.958,39.666c2.833,5.986,5.958,12.194,11.194,16.458c1.319,0.722,2.806,2.667,4.472,1.694
		c5.75-3.597,10.805-8.555,17.527-10.333c22.389-6.764,46.471-1.069,67.249,8.278c21.944,9.958,41.36,24.763,58.693,41.374
		c17.986,17.402,33.93,36.861,47.958,57.555c1.542,2.125,3.125,4.264,5.028,6.111c15.194-6.153,29.68-14.125,45.194-19.569
		c9.93-3.347,22.458,2.069,25.625,12.361c2.667,9.153,0.569,18.861-2.083,27.763c-6.014,18.736-16.111,35.861-27,52.138
		c-5.778,8.43-6.667,18.93-7.278,28.833c-0.542,12.347-0.778,24.722-0.111,37.055c22.222-18.791,45.985-35.736,70.665-51.18
		c2.528-1.653,5.111-3.306,7.236-5.5c-0.556-6.361-3.042-12.347-4.819-18.416c-32.583-105.026-85.61-203.038-110.484-310.578
		c-0.722-2.611-1.583-5.722-4.68-6.222C339.13,36.036,320.061,43.564,309.853,57.466 M549.668,68.216
		c-5.778,4.472-7.917,11.972-10.694,18.444c-8.805,25.125-13.403,51.471-18.069,77.61c-11.139,67.041-18.527,134.637-26.027,202.163
		c-0.292,2-0.833,4.097-2.444,5.458c-5.917,5.403-12.791,9.639-19.527,13.93c-24.666,16.111-49.694,32.152-71.207,52.416
		c-7.486,6.18-3.889,17.555-10.097,24.527c-4.528,4.986-10.708,7.944-16.194,11.694c-11.944,7.667-22.375,17.708-30.124,29.624
		c-12.611,19.139-18.583,41.805-21.736,64.277c-1.208,8.514-2.042,17.583,1.264,25.736c2.861,6.25,9.555,9.069,14.528,13.319
		c7.708,6.208,10.653,16.389,11.486,25.888c0.958,13.389,0.861,26.847,0.861,40.263c-0.458,37.749-3.042,77.013-20.472,111.248
		c22.027-10.069,47.402-12.93,70.749-5.833c8.68-14.139,20.833-25.805,34.319-35.319c19.514-13.875,41.222-24.208,63.068-33.819
		c-3.917-18.777-6.236-37.902-6.305-57.096c0.125-24.152,3.056-48.902,13.333-71.013c9.333-21.916,20.861-42.985,35.111-62.096
		c12.472-16.555,27.513-31.986,46.485-40.944c13.666-6.597,29.625-8.43,44.347-4.611c16.333,4.181,30.735,13.819,42.805,25.375
		c2.958,2.986,6.694,5.292,11.014,5.514c29.763,3.375,59.888-5.333,85.401-20.444c10.556-6,19.736-14.194,30.708-19.514
		c5.764-2.805,11.625-5.417,17.569-7.875c-1.153-2.903-2.194-5.833-3.542-8.639c-2.583-5.43-8.278-8.722-10.361-14.472
		c-2.875-7.736-6.722-15.083-11.847-21.569c-16.041-20.805-37.638-36.569-60.207-49.624c-20.333-11.291-41.93-20.944-64.86-25.402
		c-7.055-1.556-14.666-0.639-21.333-3.653c-7.389-4.139-9.389-13.444-9.278-21.291c0.333-18.333,7.68-35.722,16.652-51.43
		c13.416-22.888,32.833-42.541,56.457-54.874c19.694-10.319,42.291-14.944,64.471-13.347c24.083,1.556,47.208,10.041,68.263,21.514
		c11.958-5.75,18.611-18.5,20.833-31.097c0.306-3.208,1.139-7.222-1.639-9.611c-5.514-5.389-12.333-9.208-18.93-13.069
		c-19.569-10.778-41.027-18.139-63.082-21.611c-28.93-4.472-59.332-1.264-86.012,11.069c-22.805,10.278-42.458,26.638-58.388,45.749
		c-28.263,34.013-46.096,75.318-59.207,117.192c-2.972,8.875-4.625,18.389-9.542,26.486c-1.653,2.903-5.18,5.625-8.514,3.556
		c-3.694-2.639-2.875-7.583-2.375-11.43c9.264-61.805,18.583-123.623,30.541-184.969c4.792-23.222,9-46.735,17.25-69.054
		c-8.944-7.278-18.639-15.458-30.708-16C565.835,61.563,557.279,64.299,549.668,68.216 M408.49,281.032
		c-62.249,24.916-121.442,61.235-164.775,113.123c-32.902,39.666-56.693,88.387-60.707,140.248
		c-27.805,12.472-51.096,33.333-69.235,57.582c-25.097,33.763-41.694,73.124-53.235,113.373
		c-7.555,27.25-12.93,55.166-14.944,83.387c-0.528,14.014-1.333,28.361,2.375,42.055c8.764,33.041,12.958,67.11,15.583,101.151
		c1.028,10.903,0.653,22.013,3.139,32.749c2.111,9.528,7.375,18,14.458,24.638c17.125-27.888,35.249-55.36,57.082-79.832
		c12.291-13.291,25.263-26.791,42.055-34.291c7.208-3.375,15.319-3.306,23.111-3.292c8.625-13.041,21.361-22.458,33.944-31.375
		c20.194-14.069,41.555-26.375,63.152-38.152c7.542-4.222,16.472-7.167,21.486-14.694c8.764-12.75,13.625-27.75,17.083-42.708
		c7.514-33.93,7.042-68.888,6.347-103.429c-0.319-7.861-0.972-16.014-4.542-23.152c-4.458-8.403-14.889-11.042-19.833-19.055
		c-4.889-7.819-5.097-17.486-4.056-26.375c1.944-15.403,4.833-30.791,10.194-45.416c7.305-20.541,19.694-39.791,37.499-52.749
		c6.278-4.986,13.458-8.653,19.847-13.486c4.986-3.528,5.875-10.014,6.444-15.639c1.597-21.361-0.583-42.93,2.68-64.166
		c0.931-6.778,3.569-13.222,7.43-18.861c10.611-15.68,20.055-32.388,25.916-50.471c2.264-7.764,4.375-16.389,1.375-24.25
		C425.448,280.31,415.518,277.879,408.49,281.032 M906.093,444.015c-33.222,4.792-66.943,10.514-97.679,24.611
		c-12.75,5.514-23.083,15.069-35.166,21.764c-23.916,13.764-51.416,22.333-79.207,21.069c-5.736-0.403-11.805-0.25-17.055-2.861
		c-5.028-3.167-8.792-7.889-13.416-11.541c-11.5-9.208-24.958-16.666-39.749-18.611c-14.083-1.958-28.472,2.069-40.471,9.403
		c-18.527,11.097-32.555,28.097-44.513,45.777c-10.847,16.514-20.389,33.986-27.555,52.416c15.403-0.653,31.611-1.667,46.041,4.875
		c11.875,4.958,21.541,15.153,25.194,27.569c3.889,13.555,1.819,28.347-4.042,41.041c-9.347,20.569-27.625,36.388-48.541,44.471
		c-26.638,10.291-53.138,21.361-77.624,36.18c-16.68,10.139-32.291,22.583-43.652,38.61c-2.347,2.042-4.736,4.014-7.194,5.903
		c-13.264-3.056-27.027-5.208-40.583-2.694c-12.611,1.792-24.708,6.5-35.472,13.278c-10.389,6.555-21.541,11.764-32.194,17.847
		c-8.778,4.681-17.014,10.361-26.083,14.458l0.403-1.056c-2.806,2.125-5.861,4.055-8.111,6.819
		c-10.417,6.042-20.291,12.972-29.902,20.222c-9.014,7.333-18.805,15.014-22.611,26.486c-4.653-1.25-9.389-2.611-14.25-2.222
		c-9.528,1.056-17.833,6.542-25.361,12.111c-12.875,10.194-24.166,22.263-34.499,34.985c-16.5,20.486-31.263,42.319-44.874,64.805
		c-3.472,5.555-2.93,12.319-2.889,18.583c0.264,11.555-0.056,23.111,0.097,34.68c0.139,15.75,5.347,30.833,10.666,45.471
		c15.014,38.569,35.361,74.776,56.332,110.359c32.041,53.18,66.763,104.72,103.526,154.734
		c15.028,20.027,29.638,40.499,46.791,58.805c14.375,13.014,26.847,27.93,38.999,42.985c18.486,22.916,36.222,46.444,52.971,70.666
		c6.139,8.68,10.792,18.43,17.958,26.402c12.653,14.361,27.722,26.472,43.819,36.777c42.374,26.958,93.082,41.388,143.372,38.124
		c20.652-1.444,41.444-1.472,61.971-4.403c11.139-1.5,21.555-6.875,29.402-14.902c16.528-16.375,31.11-34.583,47.235-51.36
		c10.375-10.305,18.138-22.819,26.236-34.902c25.958-40.791,46.874-84.596,65.11-129.317c5.181-12.25,8.25-25.305,14.139-37.263
		c19.819-42.569,43.18-83.387,62.652-126.137c10.403-23.055,20.486-46.527,25.93-71.332c2.847-12.111,2.153-24.625,1.542-36.944
		c-0.597-11.583,0.486-23.152,0.43-34.735c0-10.75-2.625-21.277-5.847-31.444c-4.875-15.319-10.764-30.277-16.708-45.18
		c-8.5,4.528-17.305,8.75-26.805,10.667c-24.902,5.431-50.916,3.694-75.596-2.055c-24.708-5.833-48.471-16.847-67.457-33.874
		c-9.611-8.055-17.111-18.166-25.277-27.583c-0.486-3.097-2.653-5.486-4.514-7.847c-8.903-15.291-16.569-31.708-18.555-49.513
		c-2.972-1.194-5.917-2.43-8.833-3.681l-0.181-0.986c-1.083-0.403-2.139-0.792-3.194-1.181
		c-4.694-6.764-11.236-12.055-15.694-19.027c-6.778-9.722-14.458-21.208-11.389-33.652c3.319-10.375,12.75-16.93,19-25.43
		c7.167-9.722,12.778-20.486,19.513-30.527c28.847-45.263,47.763-96.026,62.277-147.484c1.569-5.278,2.278-10.93,5.014-15.778
		c3.472-4.764,8.333-8.333,11.667-13.236c3.917-5.68,8.403-11.208,14.611-14.514c15-8.389,31.861-12.541,48.319-17
		c57.569-14.125,116.165-23.361,174.539-33.333c-5.708-11.153-8.889-23.486-10.194-35.902c-1.361-15.486,4.069-30.652,11.389-44.041
		c5.25-9.875,12.403-18.5,19-27.486C988.119,435.821,946.926,438.724,906.093,444.015 M1020.438,456.973
		c-7.25,11.778-13.736,24.402-15.986,38.18c-1.833,11.611,1.708,23.083,4.597,34.194c1.458,4.18,2.5,9.236,6.403,11.861
		c4.111,1.931,7-2.444,8.819-5.458c4.389-6.903,4.889-15.333,4.555-23.277c-0.222-22.333-0.889-44.708,1.139-66.971
		C1026.591,449.14,1023.035,452.696,1020.438,456.973 M949.398,559.402c-41.958,7.75-84.11,15-125.331,26.208
		c-12.625,3.778-25.652,7.278-36.833,14.486c-6.889,4.292-10.278,11.972-15.778,17.639c-3.153,3.403-7.069,6.555-8.111,11.333
		c-11.319,42.166-25.569,83.735-45.166,122.817c-10.791,21.486-24.125,41.527-36.735,61.943c-4.43,6.944-10.361,12.722-15.75,18.889
		c-3.458,4.014-6.93,8.819-6.43,14.416c0.681,8.597,5.778,15.944,10.5,22.861c6.722,9.208,13.847,18.972,24.708,23.541
		c5.111-20.764,11.764-41.263,21.638-60.291c5.639-10.528,12.25-20.847,21.458-28.625c6.583-5.653,14.944-8.333,22.583-12.18
		c17.125-8.694,32.763-20.555,45.513-34.944c5.5-5.764,5.722-14.805,11.889-20.027c8.792-7.778,22.041-9.208,32.75-4.805
		c11.527,4.597,20.514,13.778,27.916,23.486c4.347,5.125,0.278,12.583,4.069,17.986c10.611,16.527,29.25,25.541,40.985,41.083
		c6.889,10.486,7.403,23.5,10.444,35.361c10.569-17.652,13.93-38.61,13.75-58.916c-0.181-25.513,2.25-51.041,0.5-76.54
		c-0.556-11.528-2.861-23.055-1.611-34.597c0.333-5.125,3.931-9.43,8.736-11.028c9.972-3.792,22-7.014,31.958-1.472
		c10.972,6.514,16.666,18.555,22.5,29.374c3.847-0.472,8.153-0.014,11.5-2.375c3.111-1.931,5.625-4.889,9.125-6.18
		c9.597,1.778,17.402,9.389,19.958,18.75c10.458-1.333,20.083-7.194,25.916-15.986c2.611-3.417-0.75-7.264-2.083-10.5
		c-11.861-20.347-26.805-38.652-41.11-57.277c19.986-1.111,40.041-1.181,60.041-0.222c3.903-15.527,4.028-31.916,0.056-47.444
		c-26.652,2.93-53.638,3.667-80.346,1c-18.43-2.167-37.444-5.819-53.096-16.389C956.578,558.458,952.828,558.638,949.398,559.402
		 M514.544,591.249c-2.708,0.583-6.069,0.986-7.514,3.708c-2.694,4.917-3.653,10.555-4.861,15.972
		c-6.583,31.777-4.611,64.777,1.917,96.387c11.069-2.194,21.444-6.68,31.611-11.472c19.402-9.361,35.138-26.638,41.402-47.388
		c3.917-12.042,2.944-25.666-3.042-36.861c-5.292-9.167-14.861-15.125-24.791-18.18
		C538.044,590.165,526.085,589.485,514.544,591.249 M831.969,736.649c-5.486,1.417-11.333,4.306-13.555,9.847
		c-2.569,5.583-4.861,11.444-9.194,15.944c-15.944,17.625-35.958,31.513-57.902,40.583c-11.875,5.083-19.889,15.805-26.375,26.541
		c-11.194,19.291-18.375,40.638-24,62.152c-3.042,10.972,1.264,22.097,5.18,32.263c9.569,22.75,24.416,43.499,43.61,59.11
		c18.18,15.083,40.458,24.597,63.388,29.722c24.097,5.25,49.541,6.764,73.638,0.708c10.319-3.042,22.055-6.944,27.361-17.166
		c6.542-12.222,9.514-25.972,11.75-39.527c4.445-29.791,4.806-60.068,3.111-90.096c-0.403-9.972-1.889-19.861-4.097-29.569
		c-1.625-6.972-2.875-14.472-7.653-20.097c-11.93-14.014-28.777-23.236-39.249-38.555c-5.222-6.736-1.528-16.708-7.667-22.916
		C860.927,744.621,847.497,733.26,831.969,736.649z"/>
	<path fill="#AA3C3C" stroke="#AA3C3C" d="M309.853,57.466c10.208-13.903,29.277-21.43,46.055-16.569
		c3.097,0.5,3.958,3.611,4.68,6.222c24.875,107.54,77.901,205.552,110.484,310.578c1.778,6.069,4.264,12.055,4.819,18.416
		c-2.125,2.194-4.708,3.847-7.236,5.5c-24.68,15.444-48.444,32.388-70.665,51.18c-0.667-12.333-0.431-24.708,0.111-37.055
		c0.611-9.903,1.5-20.402,7.278-28.833c10.889-16.277,20.986-33.402,27-52.138c2.653-8.903,4.75-18.611,2.083-27.763
		c-3.167-10.292-15.694-15.708-25.625-12.361c-15.514,5.444-29.999,13.416-45.194,19.569c-1.903-1.847-3.486-3.986-5.028-6.111
		c-14.028-20.694-29.972-40.152-47.958-57.555c-17.333-16.611-36.749-31.416-58.693-41.374c-20.777-9.347-44.86-15.041-67.249-8.278
		c-6.722,1.778-11.778,6.736-17.527,10.333c-1.667,0.972-3.153-0.972-4.472-1.694c-5.236-4.264-8.361-10.472-11.194-16.458
		c-5.542-12.611-8.972-26.055-10.958-39.666c46.638-18.264,100.748-14.75,145.192,8.042c15.222,7.75,29.513,17.305,42.388,28.527
		c3.458,2.944,7.083,5.708,10.764,8.403c-2.472-10.791-6.611-21.083-9.778-31.666c-7.625-24.958-15.416-49.985-20.139-75.707
		C308.464,66.577,306.895,61.411,309.853,57.466z"/>
	<path fill="#DD4343" stroke="#DD4343" d="M549.668,68.216c7.611-3.917,16.166-6.653,24.791-6.653
		c12.069,0.542,21.763,8.722,30.708,16c-8.25,22.319-12.458,45.833-17.25,69.054c-11.958,61.346-21.277,123.165-30.541,184.969
		c-0.5,3.847-1.319,8.792,2.375,11.43c3.333,2.069,6.861-0.653,8.514-3.556c4.917-8.097,6.569-17.611,9.542-26.486
		c13.111-41.874,30.944-83.179,59.207-117.192c15.93-19.111,35.583-35.472,58.388-45.749c26.68-12.333,57.082-15.541,86.012-11.069
		c22.055,3.472,43.513,10.833,63.082,21.611c6.597,3.861,13.417,7.68,18.93,13.069c2.778,2.389,1.944,6.403,1.639,9.611
		c-2.222,12.597-8.875,25.347-20.833,31.097c-21.055-11.472-44.18-19.958-68.263-21.514c-22.18-1.597-44.777,3.028-64.471,13.347
		c-23.625,12.333-43.041,31.986-56.457,54.874c-8.972,15.708-16.319,33.097-16.652,51.43c-0.111,7.847,1.889,17.152,9.278,21.291
		c6.667,3.014,14.277,2.097,21.333,3.653c22.93,4.458,44.527,14.111,64.86,25.402c22.569,13.055,44.166,28.819,60.207,49.624
		c5.125,6.486,8.972,13.833,11.847,21.569c2.083,5.75,7.778,9.042,10.361,14.472c1.347,2.805,2.389,5.736,3.542,8.639
		c-5.944,2.458-11.805,5.069-17.569,7.875c-10.972,5.319-20.152,13.514-30.708,19.514c-25.513,15.111-55.638,23.819-85.401,20.444
		c-4.319-0.222-8.056-2.528-11.014-5.514c-12.069-11.555-26.472-21.194-42.805-25.375c-14.722-3.819-30.68-1.986-44.347,4.611
		c-18.972,8.958-34.013,24.388-46.485,40.944c-14.25,19.111-25.777,40.18-35.111,62.096c-10.278,22.111-13.208,46.86-13.333,71.013
		c0.069,19.194,2.389,38.319,6.305,57.096c-21.847,9.611-43.555,19.944-63.068,33.819c-13.486,9.514-25.638,21.18-34.319,35.319
		c-23.347-7.097-48.721-4.236-70.749,5.833c17.43-34.236,20.014-73.499,20.472-111.248c0-13.416,0.097-26.875-0.861-40.263
		c-0.833-9.5-3.778-19.68-11.486-25.888c-4.972-4.25-11.667-7.069-14.528-13.319c-3.306-8.153-2.472-17.222-1.264-25.736
		c3.153-22.472,9.125-45.138,21.736-64.277c7.75-11.916,18.18-21.958,30.124-29.624c5.486-3.75,11.667-6.708,16.194-11.694
		c6.208-6.972,2.611-18.347,10.097-24.527c21.514-20.264,46.541-36.305,71.207-52.416c6.736-4.292,13.611-8.528,19.527-13.93
		c1.611-1.361,2.153-3.458,2.444-5.458c7.5-67.527,14.889-135.123,26.027-202.163c4.667-26.138,9.264-52.485,18.069-77.61
		C541.752,80.188,543.891,72.688,549.668,68.216z"/>
	<path fill="#9E2A2A" stroke="#9E2A2A" d="M408.49,281.032c7.028-3.153,16.958-0.722,19.875,6.917c3,7.861,0.889,16.486-1.375,24.25
		c-5.861,18.083-15.305,34.791-25.916,50.471c-3.861,5.639-6.5,12.083-7.43,18.861c-3.264,21.236-1.083,42.805-2.68,64.166
		c-0.569,5.625-1.458,12.111-6.444,15.639c-6.389,4.833-13.569,8.5-19.847,13.486c-17.805,12.958-30.194,32.208-37.499,52.749
		c-5.361,14.625-8.25,30.013-10.194,45.416c-1.042,8.889-0.833,18.555,4.056,26.375c4.944,8.014,15.375,10.653,19.833,19.055
		c3.569,7.139,4.222,15.291,4.542,23.152c0.694,34.541,1.167,69.499-6.347,103.429c-3.458,14.958-8.319,29.958-17.083,42.708
		c-5.014,7.528-13.944,10.472-21.486,14.694c-21.597,11.778-42.958,24.083-63.152,38.152c-12.583,8.917-25.319,18.333-33.944,31.375
		c-7.792-0.014-15.903-0.083-23.111,3.292c-16.791,7.5-29.763,21-42.055,34.291c-21.833,24.472-39.958,51.944-57.082,79.832
		c-7.083-6.639-12.347-15.111-14.458-24.638c-2.486-10.736-2.111-21.847-3.139-32.749c-2.625-34.041-6.819-68.11-15.583-101.151
		c-3.708-13.694-2.903-28.041-2.375-42.055c2.014-28.222,7.389-56.138,14.944-83.387c11.541-40.249,28.138-79.61,53.235-113.373
		c18.139-24.25,41.43-45.11,69.235-57.582c4.014-51.86,27.805-100.582,60.707-140.248
		C287.048,342.267,346.241,305.948,408.49,281.032z"/>
	<path fill="#CE1515" stroke="#CE1515" d="M906.093,444.015c40.833-5.292,82.026-8.194,123.206-8.083
		c-6.597,8.986-13.75,17.611-19,27.486c-7.319,13.389-12.75,28.555-11.389,44.041c1.305,12.416,4.486,24.75,10.194,35.902
		c-58.374,9.972-116.97,19.208-174.539,33.333c-16.458,4.458-33.319,8.611-48.319,17c-6.208,3.305-10.694,8.833-14.611,14.514
		c-3.333,4.903-8.194,8.472-11.667,13.236c-2.736,4.847-3.444,10.5-5.014,15.778c-14.514,51.457-33.43,102.22-62.277,147.484
		c-6.736,10.041-12.347,20.805-19.513,30.527c-6.25,8.5-15.68,15.055-19,25.43c-3.069,12.444,4.611,23.93,11.389,33.652
		c4.458,6.972,11,12.264,15.694,19.027c2.319,28.527,0.889,57.249-1.278,85.762c-2.764,28.138-6.333,56.666-16.791,83.138
		c-4.583,10.986-10.361,22.791-21.472,28.444c-10.083,5.069-20.986,8.236-31.805,11.319c-10.5,3.042-21.541,4.333-31.569,8.861
		c-5.444,2.25-11.166,5.208-17.236,4.028c-11.097-2-21.333-6.986-31.458-11.736c-5.847-2.681-12.889-4.958-19.027-1.847
		c-8.611,4.43-13.958,13.111-22.264,17.986c-6.722,4.097-14.833,4.292-22.402,5.375c7.542,2.806,15.764,5.694,23.805,3.069
		c10.305-2.222,16.778-11.333,25.93-15.694c5.319-1.014,10.416,1.986,15.416,3.458c8.514,3.43,17.791,4,26.888,4.139
		c11.347-0.097,21.875-5.486,33.222-5.667c23.013-0.792,46.555-4.097,67.207-14.889c-11.542,12.472-22.152,26.111-29.013,41.763
		c-6.222,15.222-1.583,31.888-3.917,47.68c-1.653,10.389-10.514,17.083-17.125,24.444c-13.208,14.541-24.055,31.069-33.736,48.11
		c-7.014,12.778-13.653,25.944-16.916,40.249c10.653-18.125,22.625-35.43,36.013-51.638c9.847-11.819,19.819-23.652,31.666-33.541
		c8.222-6.819,14.514-16.18,16.222-26.847c3.097-14.805-2-30.944,5.18-44.888c5.875-10.819,12.805-21.139,21.152-30.222
		c12.403-13.778,24.18-28.361,32.874-44.819c2.736-5.111,5.389-10.278,8.014-15.458c12.778,17.611,20.694,38.041,28.68,58.124
		c7.375,18.611,14.097,37.472,21.847,55.93c2.861,7.167,6.305,14.416,6.43,22.277c-0.25,9.222-5.361,17.5-5.764,26.694
		c-0.417,9.458,3.25,18.708,8.847,26.208c4.792,6.5,10.361,12.792,12.541,20.764c3.375,11.847,2.444,24.333,3.333,36.5
		c3.417-13.305,5.403-27.402,2.486-40.985c-2.958-13.236-14.93-22.555-16.611-36.208c-1.458-10.694,5.805-19.889,6.5-30.305
		c0.764-9.375-2.5-18.416-6.014-26.93c-9.792-22.916-18.847-46.18-30.236-68.388c-8.43-16.403-17.694-32.861-31.541-45.374
		c4.736-14.18,8.917-28.68,10.069-43.652c2.069-17.402-0.792-34.791-2.875-52.027c8.167,9.417,15.666,19.527,25.277,27.583
		c18.986,17.027,42.749,28.041,67.457,33.874c24.68,5.75,50.694,7.486,75.596,2.055c9.5-1.917,18.305-6.139,26.805-10.667
		c5.944,14.903,11.833,29.861,16.708,45.18c3.222,10.167,5.847,20.694,5.847,31.444c0.056,11.583-1.028,23.152-0.43,34.735
		c0.611,12.319,1.305,24.833-1.542,36.944c-5.444,24.805-15.528,48.277-25.93,71.332c-19.472,42.749-42.833,83.568-62.652,126.137
		c-5.889,11.958-8.958,25.013-14.139,37.263c-18.236,44.721-39.152,88.526-65.11,129.317c-8.097,12.083-15.861,24.597-26.236,34.902
		c-16.125,16.778-30.708,34.986-47.235,51.36c-7.847,8.027-18.264,13.402-29.402,14.902c-20.527,2.93-41.319,2.958-61.971,4.403
		c-50.291,3.264-100.998-11.166-143.372-38.124c-16.097-10.305-31.166-22.416-43.819-36.777
		c-7.167-7.972-11.819-17.722-17.958-26.402c-16.75-24.222-34.486-47.749-52.971-70.666c-12.153-15.055-24.625-29.972-38.999-42.985
		c-17.153-18.305-31.763-38.777-46.791-58.805c-36.763-50.013-71.485-101.554-103.526-154.734
		c-20.972-35.583-41.319-71.79-56.332-110.359c-5.319-14.639-10.528-29.722-10.666-45.471c-0.153-11.569,0.167-23.125-0.097-34.68
		c-0.042-6.264-0.583-13.028,2.889-18.583c13.611-22.486,28.375-44.319,44.874-64.805c10.333-12.722,21.625-24.791,34.499-34.985
		c7.528-5.569,15.833-11.055,25.361-12.111c4.861-0.389,9.597,0.972,14.25,2.222c3.806-11.472,13.597-19.152,22.611-26.486
		c9.611-7.25,19.486-14.18,29.902-20.222c-4.18,8.069-6.444,17.458-4.597,26.5c2.069,11.958,9.361,22,16.597,31.388
		c-19.055,10.764-38.763,21.652-53.582,38.11c-11,12.097-13.764,28.902-14.916,44.624c-1.25,19.847-2.736,39.749-1.694,59.652
		c8.722-24.972,10.472-51.569,15.819-77.304c2.722-13.972,12.722-24.722,23-33.861c7.416-7.014,15.152-13.68,22.944-20.277
		c-8.097,26.444-9.791,55.291-1.653,81.929c2.139,7.68,5.917,14.764,10.083,21.513c-0.75-13.291-2.403-26.513-3.083-39.805
		c-0.917-13.611-0.861-27.263-1.097-40.902c-0.097-7.375-0.944-14.736-0.625-22.111c-0.056-4.403,3.597-7.403,6.069-10.611
		c5.528,5.569,11.222,10.972,17.18,16.097c4.472,3.847,8.958,8.069,11.125,13.722c2.722,6.805,5.569,13.583,9.166,20.014
		c-0.903-10.042-0.708-20.541-4.736-29.972c-4.5-8.514-12.319-14.528-18.541-21.68c-10.097-11.222-21.333-23-24.111-38.402
		c-1.736-8.403,1.25-16.708,4.361-24.388c9.069-4.097,17.305-9.778,26.083-14.458c10.653-6.083,21.805-11.291,32.194-17.847
		c10.764-6.778,22.861-11.486,35.472-13.278c13.555-2.514,27.319-0.361,40.583,2.694c0.069,10.542,0.222,21.763,6.014,31.013
		c11.347,18.972,31.833,30.791,52.86,36.097c8.305,2.292,17.027,1.931,25.43,3.68c4.403,0.625,6.736,4.944,7.792,8.847
		c2.028,7.68,2.028,15.68,2.736,23.541c2.167-5.208,4.361-10.403,6.514-15.597c7.236,4.569,14.194,9.569,20.791,15.028
		c-2.139-3.889-4.083-7.944-6.93-11.361c-3.431-3.986-8.319-6.194-12.805-8.708c-0.694-4.972-1.042-10.055-2.833-14.764
		c-1.931-4.875-6.139-8.236-9.833-11.708c3.694-7.569,7.805-14.916,12.528-21.902c-8.305,5.055-14.722,12.514-19,21.208
		c-22.305-4.069-44.708-12-61.943-27.18c-9.542-8.361-17.305-20.958-14.125-34.097c11.361-16.028,26.972-28.472,43.652-38.61
		c24.486-14.819,50.985-25.888,77.624-36.18c20.916-8.083,39.194-23.902,48.541-44.471c5.861-12.694,7.93-27.486,4.042-41.041
		c-3.653-12.416-13.319-22.611-25.194-27.569c-14.43-6.542-30.638-5.528-46.041-4.875c7.167-18.43,16.708-35.902,27.555-52.416
		c11.958-17.68,25.986-34.68,44.513-45.777c12-7.333,26.388-11.361,40.471-9.403c14.791,1.944,28.25,9.403,39.749,18.611
		c4.625,3.653,8.389,8.375,13.416,11.541c5.25,2.611,11.319,2.458,17.055,2.861c27.791,1.264,55.291-7.305,79.207-21.069
		c12.083-6.694,22.416-16.25,35.166-21.764C839.15,454.529,872.871,448.807,906.093,444.015 M543.044,746.399
		c-4.555,7.375-6.375,15.847-7.694,24.305c-0.417,4.75-4.972,7.014-8.292,9.625c-12.291,8.764-20.083,23.041-21.819,37.944
		c2.639-2.5,5.25-5.042,7.764-7.667c13.555-14.861,29.138-27.916,46.291-38.444c7.014-4.417,15.402-6.347,23.666-5.5
		c14.472,1.361,29.027,1.68,43.569,2.028c-6.958-7.542-17.278-10.472-27.208-11.333c-9.375-0.819-18.139,3.153-26.958,5.68
		c-7.847,2.403-15.944,3.764-23.958,5.431C548.474,760.746,547.96,752.732,543.044,746.399 M484.392,941.451
		c3.68,20.666,18.666,39.208,38.61,46.152c-12-13.5-23.083-28.708-26.819-46.749c-4.125-16.805-1.861-34.124-1.069-51.152
		C484.586,904.48,481.17,923.743,484.392,941.451 M528.488,889.785c2.458,2.833,5.028,5.583,7.639,8.305
		c10.944,11.083,19.097,24.472,28.555,36.777c7.847,10.153,15.416,21.458,27.541,26.902c-5.305-5.986-10.667-11.972-15.014-18.708
		c-8.708-13.055-17.888-25.764-27.694-37.999c12.319,2.639,24.222,6.778,36.43,9.861c12.403,3.68,25.638,6,36.416,13.583
		c11.611,8.25,22.777,17.111,34.374,25.375c-5.764-10.111-14.291-18.666-24.708-23.944c-7.472-3.75-15.319-6.68-22.638-10.708
		c-16.486-9.208-34.805-15.639-53.735-16.916c-4.514-0.486-9.486-0.583-13.111-3.68C538.238,895.119,533.655,891.91,528.488,889.785
		 M540.794,1142.615c-13.944,6.917-28.652,12.139-42.999,18.125c-11.722,5-24.527,6.18-37.055,7.583
		c-19.777,2.139-39.652,3.472-59.221,7.125c-10.528,2.083-21.375,4.208-30.374,10.417c37.874-6.097,76.582-2.25,114.359-9.194
		c-2.528,11.097-4.194,22.416-7.903,33.222c-2.319,6.93-6.972,12.68-11.389,18.389c5.792-0.847,11.847-2.306,15.847-6.93
		c12.097-11.792,12.458-30.527,8.25-45.874c13.833-4.903,26.777-11.944,39.805-18.652c12.625-7.194,25.958-15.444,32.472-29.027
		C555.696,1133.24,548.849,1138.934,540.794,1142.615 M550.113,1314.389c-17.889,24.194-35.805,48.374-54.207,72.165
		c-4.833,5.722-8.736,12.68-15.43,16.444c-8.264,3.694-17.583,4.028-25.958,7.444c-14.166,5.319-24.458,18.236-28.555,32.569
		c7-8.25,13.722-17.472,24.027-21.833c12.361-6.236,27.625-2.889,39.36-10.625c10.083-7.972,16.916-19.111,25.236-28.75
		c-4.403,21.847-10.694,43.319-13.625,65.457c-3.653,25.847-4.694,53.166,4.917,77.915c0.556-17.805,0.486-35.708,3.611-53.305
		c6.208,8.472,12.625,17.041,21.083,23.458c16.333,13.125,40.333,19.486,59.763,9.5c-5.93-0.986-11.889-1.75-17.777-2.917
		c-22.43-4.75-41.18-18.861-58.652-32.944c-3.097-2.042-3.764-5.75-3.111-9.166c3.444-25.889,9.194-51.694,8.444-77.943
		c-0.167-4.194,0.556-8.472,3.042-11.93c5.583-8.361,11.167-16.75,16.083-25.527c6.486-11.653,13.361-23.305,16.861-36.277
		C553.488,1310.181,551.766,1312.264,550.113,1314.389z"/>
	<path fill="#590101" stroke="#590101" d="M1020.438,456.973c2.597-4.278,6.153-7.833,9.528-11.472
		c-2.028,22.264-1.361,44.638-1.139,66.971c0.333,7.944-0.167,16.375-4.555,23.277c-1.819,3.014-4.708,7.389-8.819,5.458
		c-3.903-2.625-4.944-7.68-6.403-11.861c-2.889-11.111-6.43-22.583-4.597-34.194
		C1006.702,481.376,1013.188,468.751,1020.438,456.973z"/>
	<path fill="#DD4343" stroke="#DD4343" d="M949.398,559.402c3.43-0.764,7.181-0.944,10.111,1.375
		c15.652,10.569,34.666,14.222,53.096,16.389c26.708,2.667,53.694,1.931,80.346-1c3.972,15.528,3.847,31.916-0.056,47.444
		c-20-0.958-40.055-0.889-60.041,0.222c14.305,18.625,29.25,36.93,41.11,57.277c1.333,3.236,4.694,7.083,2.083,10.5
		c-5.833,8.792-15.458,14.653-25.916,15.986c-2.556-9.361-10.361-16.972-19.958-18.75c-3.5,1.292-6.014,4.25-9.125,6.18
		c-3.347,2.361-7.653,1.903-11.5,2.375c-5.833-10.819-11.527-22.861-22.5-29.374c-9.958-5.542-21.986-2.319-31.958,1.472
		c-4.805,1.597-8.403,5.903-8.736,11.028c-1.25,11.542,1.056,23.069,1.611,34.597c1.75,25.5-0.681,51.027-0.5,76.54
		c0.181,20.305-3.181,41.263-13.75,58.916c-3.042-11.861-3.555-24.875-10.444-35.361c-11.736-15.541-30.374-24.555-40.985-41.083
		c-3.792-5.403,0.278-12.861-4.069-17.986c-7.403-9.708-16.389-18.889-27.916-23.486c-10.708-4.403-23.958-2.972-32.75,4.805
		c-6.167,5.222-6.389,14.264-11.889,20.027c-12.75,14.389-28.388,26.25-45.513,34.944c-7.639,3.847-16,6.528-22.583,12.18
		c-9.208,7.778-15.819,18.097-21.458,28.625c-9.875,19.027-16.527,39.527-21.638,60.291c-10.861-4.569-17.986-14.333-24.708-23.541
		c-4.722-6.917-9.819-14.264-10.5-22.861c-0.5-5.597,2.972-10.403,6.43-14.416c5.389-6.167,11.319-11.944,15.75-18.889
		c12.611-20.416,25.944-40.458,36.735-61.943c19.597-39.083,33.847-80.651,45.166-122.817c1.042-4.778,4.958-7.93,8.111-11.333
		c5.5-5.667,8.889-13.347,15.778-17.639c11.18-7.208,24.208-10.708,36.833-14.486C865.288,574.402,907.44,567.152,949.398,559.402z"
		/>
	<path fill="#590101" stroke="#590101" d="M514.544,591.249c11.542-1.764,23.5-1.083,34.722,2.167
		c9.93,3.056,19.5,9.014,24.791,18.18c5.986,11.194,6.958,24.819,3.042,36.861c-6.264,20.75-22,38.027-41.402,47.388
		c-10.167,4.792-20.541,9.278-31.611,11.472c-6.528-31.611-8.5-64.61-1.917-96.387c1.208-5.417,2.167-11.055,4.861-15.972
		C508.475,592.235,511.836,591.832,514.544,591.249z"/>
	<path fill="#AA3C3C" stroke="#AA3C3C" d="M831.969,736.649c15.528-3.389,28.958,7.972,38.347,18.944
		c6.139,6.208,2.444,16.18,7.667,22.916c10.472,15.319,27.319,24.541,39.249,38.555c4.778,5.625,6.028,13.125,7.653,20.097
		c2.208,9.708,3.694,19.597,4.097,29.569c1.695,30.027,1.333,60.305-3.111,90.096c-2.236,13.555-5.208,27.305-11.75,39.527
		c-5.305,10.222-17.041,14.125-27.361,17.166c-24.097,6.055-49.541,4.542-73.638-0.708c-22.93-5.125-45.208-14.639-63.388-29.722
		c-19.194-15.611-34.041-36.36-43.61-59.11c-3.917-10.167-8.222-21.291-5.18-32.263c5.625-21.513,12.805-42.86,24-62.152
		c6.486-10.736,14.5-21.458,26.375-26.541c21.944-9.069,41.958-22.958,57.902-40.583c4.333-4.5,6.625-10.361,9.194-15.944
		C820.636,740.955,826.483,738.066,831.969,736.649z"/>
	<path fill="#7F0505" stroke="#7F0505" d="M543.044,746.399c4.917,6.333,5.43,14.347,5.361,22.069
		c8.014-1.667,16.111-3.028,23.958-5.431c8.819-2.528,17.583-6.5,26.958-5.68c9.93,0.861,20.25,3.792,27.208,11.333
		c-14.541-0.347-29.097-0.667-43.569-2.028c-8.264-0.847-16.652,1.083-23.666,5.5c-17.153,10.528-32.736,23.583-46.291,38.444
		c-2.514,2.625-5.125,5.167-7.764,7.667c1.736-14.903,9.528-29.18,21.819-37.944c3.319-2.611,7.875-4.875,8.292-9.625
		C536.669,762.246,538.488,753.774,543.044,746.399z"/>
	<path fill="#7F0505" stroke="#7F0505" d="M401.463,784.69c2.458-1.889,4.847-3.861,7.194-5.903
		c-3.18,13.139,4.583,25.736,14.125,34.097c17.236,15.18,39.638,23.111,61.943,27.18c4.278-8.694,10.694-16.152,19-21.208
		c-4.722,6.986-8.833,14.333-12.528,21.902c3.694,3.472,7.903,6.833,9.833,11.708c1.792,4.708,2.139,9.792,2.833,14.764
		c4.486,2.514,9.375,4.722,12.805,8.708c2.847,3.417,4.792,7.472,6.93,11.361c-6.597-5.458-13.555-10.458-20.791-15.028
		c-2.153,5.194-4.347,10.389-6.514,15.597c-0.708-7.861-0.708-15.861-2.736-23.541c-1.056-3.903-3.389-8.222-7.792-8.847
		c-8.403-1.75-17.125-1.389-25.43-3.68c-21.027-5.305-41.513-17.125-52.86-36.097C401.685,806.453,401.532,795.231,401.463,784.69z"
		/>
	<path fill="#7F0505" stroke="#7F0505" d="M259.423,833.342c2.25-2.764,5.305-4.694,8.111-6.819l-0.403,1.056
		c-3.111,7.68-6.097,15.986-4.361,24.388c2.778,15.403,14.014,27.18,24.111,38.402c6.222,7.153,14.041,13.166,18.541,21.68
		c4.028,9.43,3.833,19.93,4.736,29.972c-3.597-6.43-6.444-13.208-9.166-20.014c-2.167-5.653-6.653-9.875-11.125-13.722
		c-5.958-5.125-11.653-10.528-17.18-16.097c-2.472,3.208-6.125,6.208-6.069,10.611c-0.32,7.375,0.528,14.736,0.625,22.111
		c0.236,13.639,0.181,27.291,1.097,40.902c0.681,13.291,2.333,26.513,3.083,39.805c-4.167-6.75-7.944-13.833-10.083-21.513
		c-8.139-26.638-6.444-55.485,1.653-81.929c-7.792,6.597-15.527,13.264-22.944,20.277c-10.278,9.139-20.277,19.889-23,33.861
		c-5.347,25.736-7.097,52.332-15.819,77.304c-1.042-19.902,0.444-39.805,1.694-59.652c1.153-15.722,3.917-32.527,14.916-44.624
		c14.819-16.458,34.527-27.347,53.582-38.11c-7.236-9.389-14.527-19.43-16.597-31.388
		C252.979,850.8,255.243,841.411,259.423,833.342z"/>
	<path fill="#7F0505" stroke="#7F0505" d="M484.392,941.451c-3.222-17.708,0.194-36.972,10.722-51.749
		c-0.792,17.028-3.056,34.347,1.069,51.152c3.736,18.041,14.819,33.249,26.819,46.749
		C503.058,980.659,488.072,962.117,484.392,941.451z"/>
	<path fill="#800505" stroke="#800505" d="M528.488,889.785c5.167,2.125,9.75,5.333,14.055,8.847
		c3.625,3.097,8.597,3.194,13.111,3.68c18.93,1.278,37.249,7.708,53.735,16.916c7.319,4.028,15.166,6.958,22.638,10.708
		c10.416,5.278,18.944,13.833,24.708,23.944c-11.597-8.264-22.763-17.125-34.374-25.375c-10.778-7.583-24.013-9.903-36.416-13.583
		c-12.208-3.083-24.111-7.222-36.43-9.861c9.805,12.236,18.986,24.944,27.694,37.999c4.347,6.736,9.708,12.722,15.014,18.708
		c-12.125-5.444-19.694-16.75-27.541-26.902c-9.458-12.305-17.611-25.694-28.555-36.777
		C533.516,895.369,530.946,892.619,528.488,889.785z"/>
	<path fill="#7F0505" stroke="#7F0505" d="M681.25,893.341c1.056,0.389,2.111,0.778,3.194,1.181l0.181,0.986
		c1.944,12.055,5.43,23.819,7.014,35.944c4.111,29.333,4.472,59.235,0.306,88.582c-2.181,14.444-5.069,28.902-10.472,42.527
		c-2.236,5.694-4.68,11.305-6.917,17c22.458-25.861,34.944-59.555,37.722-93.498c0.986-12.417,1.819-25.013-0.264-37.36
		c1.861,2.361,4.028,4.75,4.514,7.847c2.083,17.236,4.944,34.624,2.875,52.027c-1.153,14.972-5.333,29.472-10.069,43.652
		c13.847,12.514,23.111,28.972,31.541,45.374c11.389,22.208,20.444,45.471,30.236,68.388c3.514,8.514,6.778,17.555,6.014,26.93
		c-0.694,10.417-7.958,19.611-6.5,30.305c1.68,13.653,13.652,22.972,16.611,36.208c2.917,13.583,0.931,27.68-2.486,40.985
		c-0.889-12.167,0.042-24.652-3.333-36.5c-2.18-7.972-7.75-14.264-12.541-20.764c-5.597-7.5-9.264-16.75-8.847-26.208
		c0.403-9.194,5.514-17.472,5.764-26.694c-0.125-7.861-3.569-15.111-6.43-22.277c-7.75-18.458-14.472-37.319-21.847-55.93
		c-7.986-20.083-15.902-40.513-28.68-58.124c-2.625,5.181-5.278,10.347-8.014,15.458c-8.694,16.458-20.472,31.041-32.874,44.819
		c-8.347,9.083-15.278,19.402-21.152,30.222c-7.18,13.944-2.083,30.083-5.18,44.888c-1.708,10.667-8,20.027-16.222,26.847
		c-11.847,9.889-21.819,21.722-31.666,33.541c-13.389,16.208-25.361,33.513-36.013,51.638c3.264-14.305,9.903-27.472,16.916-40.249
		c9.68-17.041,20.527-33.569,33.736-48.11c6.611-7.361,15.472-14.055,17.125-24.444c2.333-15.791-2.305-32.458,3.917-47.68
		c6.861-15.653,17.472-29.291,29.013-41.763c-20.652,10.792-44.194,14.097-67.207,14.889c-11.347,0.18-21.875,5.569-33.222,5.667
		c-9.097-0.139-18.375-0.708-26.888-4.139c-5-1.472-10.097-4.472-15.416-3.458c-9.153,4.361-15.625,13.472-25.93,15.694
		c-8.042,2.625-16.264-0.264-23.805-3.069c7.569-1.083,15.68-1.278,22.402-5.375c8.305-4.875,13.653-13.555,22.264-17.986
		c6.139-3.111,13.18-0.833,19.027,1.847c10.125,4.75,20.361,9.736,31.458,11.736c6.069,1.18,11.791-1.778,17.236-4.028
		c10.028-4.528,21.069-5.819,31.569-8.861c10.819-3.083,21.722-6.25,31.805-11.319c11.111-5.653,16.889-17.458,21.472-28.444
		c10.458-26.472,14.028-54.999,16.791-83.138C682.138,950.59,683.569,921.868,681.25,893.341z"/>
	<path fill="#CE1515" stroke="#CE1515" d="M691.638,931.451c-1.583-12.125-5.069-23.888-7.014-35.944
		c2.917,1.25,5.861,2.486,8.833,3.681c1.986,17.805,9.653,34.222,18.555,49.513c2.083,12.347,1.25,24.944,0.264,37.36
		c-2.778,33.944-15.264,67.638-37.722,93.498c2.236-5.694,4.68-11.305,6.917-17c5.403-13.625,8.292-28.083,10.472-42.527
		C696.11,990.686,695.749,960.784,691.638,931.451z"/>
	<path fill="#7F0505" stroke="#7F0505" d="M540.794,1142.615c8.055-3.681,14.902-9.375,21.791-14.819
		c-6.514,13.583-19.847,21.833-32.472,29.027c-13.028,6.708-25.972,13.75-39.805,18.652c4.208,15.347,3.847,34.083-8.25,45.874
		c-4,4.625-10.055,6.083-15.847,6.93c4.417-5.708,9.069-11.458,11.389-18.389c3.708-10.805,5.375-22.125,7.903-33.222
		c-37.777,6.944-76.485,3.097-114.359,9.194c9-6.208,19.847-8.333,30.374-10.417c19.569-3.653,39.444-4.986,59.221-7.125
		c12.528-1.403,25.333-2.583,37.055-7.583C512.141,1154.753,526.849,1149.531,540.794,1142.615z"/>
	<path fill="#7F0505" stroke="#7F0505" d="M550.113,1314.389c1.653-2.125,3.375-4.208,5.111-6.264
		c-3.5,12.972-10.375,24.625-16.861,36.277c-4.917,8.778-10.5,17.166-16.083,25.527c-2.486,3.458-3.208,7.736-3.042,11.93
		c0.75,26.25-5,52.055-8.444,77.943c-0.653,3.417,0.014,7.125,3.111,9.166c17.472,14.083,36.222,28.194,58.652,32.944
		c5.889,1.167,11.847,1.931,17.777,2.917c-19.43,9.986-43.43,3.625-59.763-9.5c-8.458-6.417-14.875-14.986-21.083-23.458
		c-3.125,17.597-3.056,35.499-3.611,53.305c-9.611-24.75-8.569-52.068-4.917-77.915c2.93-22.139,9.222-43.61,13.625-65.457
		c-8.319,9.639-15.153,20.777-25.236,28.75c-11.736,7.736-27,4.389-39.36,10.625c-10.305,4.361-17.027,13.583-24.027,21.833
		c4.097-14.333,14.389-27.25,28.555-32.569c8.375-3.417,17.694-3.75,25.958-7.444c6.694-3.764,10.597-10.722,15.43-16.444
		C514.308,1362.763,532.224,1338.583,550.113,1314.389z"/>
</g>
</svg>
